<svg xmlns="http://www.w3.org/2000/svg"><defs><font horiz-adv-x="962"><font-face units-per-em="2048" ascent="1638" descent="-410"/><glyph horiz-adv-x="2048"/><glyph horiz-adv-x="2048"/><glyph horiz-adv-x="681"/><glyph horiz-adv-x="481"/><glyph horiz-adv-x="481"/><glyph horiz-adv-x="481"/><glyph unicode="!" horiz-adv-x="483" d="M90 1243q0 82 43 135.5t108.5 53.5 108.5-53.5 43-135.5q0-25-2-37l-98-755h-103l-98 755q-2 12-2 37zm8-1103.5q0 71.5 43 120.5t103 49q57 0 101-49t44-120.5-44-121-101.5-49.5-101.5 49.5-44 121z"/><glyph unicode=""" horiz-adv-x="706" d="M80 1350q0 51 27.5 82.5t74.5 31.5 75-29.5 28-80.5q0-27-2-41l-80-461h-41l-80 461q-2 14-2 37zm338 0q0 53 28.5 83.5t75.5 30.5 76-29.5 29-80.5q0-12-4-41l-80-461h-41l-80 461q-4 25-4 37z"/><glyph unicode="#" horiz-adv-x="1574" d="M45 406l74 196h287l88 250h-304l74 197h299l148 415h215l-148-415h254l150 415h213l-148-415h283l-74-197h-278l-88-250h292l-71-196h-291l-148-416h-215l148 416h-254l-150-416h-215l148 416h-289zm569 196h265l88 250h-262z"/><glyph unicode="$" d="M84 350q0 78 39 127t96 49q53 0 89-42t36-105q0-129-141-139 61-127 211-127 27 0 39 2v473q-307 113-308 395 0 139 81 242.5t227 146.5v164h84v-156q139-6 221-79.5t82-188.5q0-68-36-109.5t-87-41.5-87 39.5-36 105.5q0 102 98 125-49 70-155 69v-397q340-154 340-450 0-154-88-263.5t-252-158.5v-164h-84v158h-4q-160 0-262.5 95t-102.5 230zm254 776q0-129 115-180v342q-115-47-115-162zm199-981q123 76 122 211 0 127-122 179v-390z"/><glyph unicode="%" horiz-adv-x="1234" d="M35 1071q0 168 71.5 256t209 88 209-88 71.5-256-71.5-255-209-87-209 87-71.5 255zm90-1077l858 1421h113l-858-1421h-113zm111 1077q0-137 17-196.5t62-59.5q80 0 80 225 0 158-15 222.5t-65 64.5q-45 0-62-60.5t-17-195.5zm395-735q0 168 71.5 256t208.5 88q279 0 279-344 0-342-279-342-137 0-208.5 87t-71.5 255zm200 2q0-137 17.5-196.5t62.5-59.5q43 0 61.5 53t18.5 170q0 158-15 222.5t-65 64.5q-45 0-62.5-59.5t-17.5-194.5z"/><glyph unicode="&" horiz-adv-x="1351" d="M43 375q0 117 68.5 204t220.5 169q-82 164-82 296 0 168 103.5 270.5t269.5 102.5q129 0 214-78.5t85-195.5q0-104-74-188.5t-230-168.5q152-238 306-403 49 111 49 176 0 72-41 103.5t-139 42.5v79h491v-86q-131-10-160-59-14-25-55-136.5t-84-195.5q45-59 89-92t71-33q76 0 76 187v28h79q2-23 3-67 0-172-64.5-263.5t-181.5-91.5q-106 0-240 123-150-131-328-131-199 0-322.5 115t-123.5 293zm270 61q0-139 87-237.5t200-98.5q82 1 154 64-231 264-365 473-76-90-76-201zm164 729q0-125 94-295 162 129 162 283 0 86-33.5 132t-95.5 46q-57 0-92-44t-35-122z"/><glyph unicode="'" horiz-adv-x="364" d="M78 1350q0 53 28.5 83.5t75.5 30.5 75-29.5 28-80.5q0-27-2-41l-80-461h-41l-80 461q-4 25-4 37z"/><glyph unicode="(" horiz-adv-x="747" d="M117 522q0 387 176 638t444 272v-86q-174-47-280.5-265.5t-106.5-556.5 106.5-556 280.5-267v-86q-264 16-442 268t-178 639z"/><glyph unicode=")" horiz-adv-x="747" d="M10-299q174 47 280.5 265t106.5 556-106.5 556-280.5 268v86q264-16 441.5-268.5t177.5-639.5q0-389-175-639t-444-270v86z"/><glyph unicode="*" d="M86 842q0 43 30.5 70.5t86.5 31.5q6 0 38.5 2t43 3 38 5 44 9.5 39 13.5 43.5 18q-88 47-254 56-49 4-79 30.5t-30 69.5q0 49 34 86t81 37q12 0 23.5-2t21.5-8.5 16-10.5 16.5-17 14.5-18.5 16.5-24.5 16.5-26q67-98 139-141-4 88-49 182.5t-45 120.5q0 45 30.5 74t79.5 29q51 0 81-29t30-76q0-20-44-115.5t-52-185.5q76 43 141 141 4 6 16.5 23.5t16.5 24 14 19.5 17.5 17 18.5 11.5 22.5 9.5 25.5 2q41 0 73.5-37t32.5-84q0-57-34.5-77.5t-114.5-26.5q-137-12-211-50 74-43 215-53 76-4 110.5-27.5t34.5-80.5q0-47-32.5-82t-77.5-35q-29 0-52.5 16.5t-33.5 30.5-41 59q-70 102-137 142 4-88 49-183.5t45-119.5q0-43-31-72t-82-29-80.5 28-29.5 75q0 23 45 119t51 182q-76-45-141-144-4-6-14.5-21.5t-13.5-20.5-12.5-17-14.5-16.5-14-11.5-18.5-10-20.5-5-25-2q-41 0-74 38t-33 83z"/><glyph unicode="+" horiz-adv-x="1705" d="M254 512v199h498v510h202v-510h498v-199h-498v-512h-202v512h-498z"/><glyph unicode="," horiz-adv-x="483" d="M96 139q0 74 44 125t106 51q70 0 111.5-56t41.5-159q0-150-62.5-286t-166.5-220l-59 58q163 171 165 321-10-2-28-2-68 0-110 46t-42 122z"/><glyph unicode="-" horiz-adv-x="618" d="M57 365v231h504v-231h-504z"/><glyph unicode="." horiz-adv-x="483" d="M96 149.5q0 73.5 43 125t103 51.5q61 0 104-50.5t43-126-44-127-103-51.5q-57 0-101.5 52.5t-44.5 126z"/><glyph unicode="/" horiz-adv-x="569" d="M-33-190l539 1626h96l-541-1626h-94z"/><glyph unicode="0" d="M61 702.5q0 325.5 124 529.5t296 204 296-204 124-529.5-124-530.5-296-205q-170 0-295 205t-125 530.5zm295 0q0-356.5 23.5-501t101.5-144.5 101.5 144.5 23.5 501-23.5 502-101.5 145.5-101.5-145.5-23.5-502z"/><glyph unicode="1" d="M131 0v92l143 10q90 6 91 111v805q0 125-20.5 158.5t-119.5 33.5q-6 0-22.5-1t-26.5-1v90q145 12 229 41t125 93h105v-1219q0-104 88-111l137-10v-92h-729z"/><glyph unicode="2" d="M12 0v121q90 205 269 442 123 168 179 276.5t56 229.5q0 117-52 184.5t-136 67.5q-63 0-114.5-44t-80.5-126q43 16 66 16 49 0 79.5-41t30.5-108q0-72-39-117t-96-45q-63 0-103 52.5t-40 140.5q0 164 113.5 273.5t285.5 109.5q174 0 279.5-111t105.5-289q0-135-60.5-217t-199.5-186q-6-4-44-34t-48-37-43-33.5-45.5-38-40-37-43-44-37-44-38-50-30.5-53.5h289q147 0 208.5 52t76.5 204h61l-22-514h-787z"/><glyph unicode="3" d="M23 293q0 96 43 153.5t112 57.5q61 0 100-44t39-118q0-66-33.5-105.5t-90.5-39.5q-27 0-68 20 47-152 215-151 125 0 183.5 78.5t58.5 242.5q0 139-48.5 213t-136.5 74q-16 0-43.5-3t-40.5-3q-68 0-67.5 53t63.5 53q10 0 35-3t39-3q82 0 135 75t53 199q0 133-57 205t-158 72q-129 0-180-131 35 10 55 10 53 0 87-41t34-104q0-66-40-109t-99-43q-63 0-105 50t-42 132q0 143 110.5 246t272.5 103q170 0 286.5-109t116.5-270q0-242-268-328 145-20 222-105t77-227q0-186-131-304t-344-118q-178 0-281.5 87t-103.5 235z"/><glyph unicode="4" d="M33 354v127l567 951h141v-951h197v-127h-197v-96q0-100 29-132t135-40v-86h-620v86q127 4 158.5 34t31.5 138v96h-442zm117 127h325v537z"/><glyph unicode="5" d="M61 299q0 86 46.5 141.5t111.5 55.5q57 0 93-41t36-111q0-61-34.5-102t-86.5-41q-6 0-47 8 55-145 180-146 109 0 171.5 108t62.5 306q0 328-201 328-70 0-123-42t-69-114q-8-41-18.5-57.5t-35.5-16.5q-16 0-27 12.5t-11 33.5q0 12 8 48t10 62l59 682q238-57 410-57 113 0 231 49v-23q0-135-95-213.5t-263-78.5q-102 0-225 30l-23-303q98 92 242 92 178 0 303-133t125-330q0-188-127-325-139-150-346-150-156 0-256.5 95.5t-100.5 232.5z"/><glyph unicode="6" d="M59 651q0 274 109 467 176 313 418 314 115 0 191.5-70t76.5-172q0-78-37-124t-96-46q-55 0-93 43t-38 108q0 119 108 138-59 37-104 37-111 0-174.5-126t-63.5-362q0-10 1-31.5t1-31.5q96 111 213 110 147 0 250-123t103-319q0-213-122-352.5t-296-139.5q-195 0-321 184.5t-126 495.5zm299-229q0-186 30-271t106-85q78 0 107.5 85t29.5 279q0 203-22.5 286t-94.5 83q-156 0-156-377z"/><glyph unicode="7" d="M119 840l28 563h807v-164q-326-485-325-874 0-25 2-72t2-70q0-252-150-252-154 0-153 211 0 168 105 379t343 582h-262q-154 0-229.5-69.5t-100.5-233.5h-67z"/><glyph unicode="8" d="M45 319q0 217 227 336-184 145-184 332 0 197 114.5 321t286.5 124q160 0 261.5-94.5t101.5-241.5q0-207-201-297 129-74 188.5-168t59.5-228q0-190-123-312t-315-122q-180 0-298 100.5t-118 249.5zm186 27q0-127 61.5-206t156.5-79q86 0 142 62.5t56 161.5q0 92-70.5 165.5t-224.5 149.5q-121-121-121-254zm84 805q0-88 62.5-157.5t193.5-139.5q102 96 103 244 0 113-53.5 182.5t-133.5 69.5q-74 0-123-56.5t-49-142.5z"/><glyph unicode="9" d="M41 940q0 211 121 351.5t295 140.5q193 0 318.5-183.5t125.5-494.5q0-274-108-469-174-315-449-316-127 0-207 70t-80 176q0 78 37 123t99 45q55 0 93-43t38-109q0-121-117-135 68-43 131-43 129 0 198.5 121t69.5 356q0 51-2 78-96-111-213-110-147 0-248.5 122.5t-101.5 319.5zm293 10q0-193 21.5-269.5t93.5-76.5q156 0 155 379 0 186-29.5 270t-105.5 84q-80 0-107.5-89t-27.5-298z"/><glyph unicode=":" horiz-adv-x="483" d="M96 149.5q0 73.5 43 125t103 51.5q61 0 104-50.5t43-126-44-127-103-51.5q-57 0-101.5 52.5t-44.5 126zm0 669.5q0 74 43 125t103 51q61 0 104-50t43-126-44-127-103-51q-57 0-101.5 52t-44.5 126z"/><glyph unicode=";" horiz-adv-x="483" d="M96 139q0 74 44 125t106 51q70 0 111.5-56t41.5-159q0-150-62.5-286t-166.5-220l-59 58q163 171 165 321-10-2-28-2-68 0-110 46t-42 122zm0 680q0 74 43 125t103 51q61 0 104-50t43-126-44-127-103-51q-57 0-101.5 52t-44.5 126z"/><glyph unicode="<" horiz-adv-x="1705" d="M264 512v199l1178 483v-219l-893-365 893-364v-219z"/><glyph unicode="=" horiz-adv-x="1705" d="M254 297v199h1198v-199h-1198zm0 430v199h1198v-199h-1198z"/><glyph unicode=">" horiz-adv-x="1705" d="M264 27v219l895 364-895 365v219l1178-483v-199z"/><glyph unicode="?" horiz-adv-x="827" d="M35 1114q0 137 104.5 229.5t266.5 92.5q154 0 253-91.5t99-224.5q0-76-38-145.5t-71-102-125-116.5q-111-102-110-291v-35h-95v131q0 49 14.5 94t25 64.5 38.5 62.5q4 4 13.5 18.5t12.5 20.5 12 20.5 13.5 23.5 11.5 24.5 10 28 8 30 7 33.5 4.5 36.5 2.5 41.5q0 129-47.5 199.5t-129.5 70.5q-88 0-155-84 8 2 24 2 57 0 90-40t33-113q0-63-39-107.5t-94-44.5q-59 0-99 49t-40 123zm172-975q0 72 44 121t103 49q61 0 103.5-48t42.5-122q0-72-43-122t-103-50q-57 0-102 51t-45 121z"/><glyph unicode="@" horiz-adv-x="2019" d="M133 535q0 317 205 563 145 174 347 267t435 93q350 0 559-189.5t209-502.5q0-332-229-539-121-109-264-108-96 0-153.5 52t-65.5 148q-121-197-295-196-141 0-222 91t-81 251q0 236 194 418 141 131 309 131 188 0 222-183l49 164h190l-174-618q-16-66-16-94 0-47 20.5-74t54.5-27q78 0 183 88 213 180 213 502 0 276-188.5 446.5t-489.5 170.5q-279 0-490-150-174-121-267-308.5t-93-416.5q0-336 211-532.5t565-196.5q326 0 627 207l39-51q-303-225-666-226-383 0-625 179-152 113-232.5 278.5t-80.5 362.5zm655-173q0-80 35-126t92-46q129 0 240 244 86 195 86 348 0 80-32 123t-91 43q-119 0-213-188-117-231-117-398z"/><glyph unicode="A" horiz-adv-x="1161" d="M-57 0v90q70 6 103.5 33t55.5 90l435 1219h96l432-1219q45-123 160-123h4v-90h-623v90q158 4 158 86 0 16-6 37l-88 258h-361l-73-221q-16-53-17-76 0-43 43-61.5t141-22.5v-90h-460zm399 571h291l-146 430z"/><glyph unicode="B" horiz-adv-x="1193" d="M45 0v90h14q80 0 110 41t30 143v854q0 102-30 143.5t-110 41.5h-14v90h590q473 0 473-348 0-123-67.5-203t-192.5-104q321-66 321-343 0-221-137-329-57-47-138-61.5t-212-14.5h-637zm442 213q0-59 31-87t98-28q115 0 175.5 75t60.5 218q0 141-63.5 217t-180.5 76h-121v-471zm0 571h64q248 0 248 267 0 121-52.5 186.5t-144.5 65.5q-115 0-115-113v-406z"/><glyph unicode="C" horiz-adv-x="1157" d="M55 705q0 313 189 536 164 188 358 189 72 0 134.5-27t100-53.5 50.5-26.5q16 0 26 16l41 60h68v-500l-68 2q-104 428-313 428-123 0-192.5-157.5t-69.5-452.5q0-299 82-464t215-165q123 0 210 125t93 338h76q-2-272-120-426t-308-154q-106 0-214 55.5t-188 151.5q-170 209-170 525z"/><glyph unicode="D" horiz-adv-x="1284" d="M45 0v90h14q80 0 110 41t30 143v854q0 102-30 143.5t-110 41.5h-14v90h490q236 0 342-57 346-195 346-644 0-451-346-645-106-57-342-57h-490zm442 276q0-102 31-143t113-41q131 0 200.5 155.5t69.5 454.5-69.5 455-200.5 156q-82 0-113-42.5t-31-144.5v-850z"/><glyph unicode="E" horiz-adv-x="1214" d="M45 0v90h14q80 0 110 41t30 143v854q0 102-30 143.5t-110 41.5h-14v90h1030v-496h-65q-47 205-137.5 302.5t-237.5 97.5q-76 0-111-28t-35-89v-402h17q104 0 159.5 56.5t77.5 181.5h76v-569h-76q-23 125-78 181t-159 56h-17v-481q0-61 35-89t113-28q143 0 253.5 121t147.5 332h72l-12-549h-1053z"/><glyph unicode="F" horiz-adv-x="1081" d="M45 0v90h14q80 0 110 41t30 143v854q0 102-30 143.5t-110 41.5h-14v90h1028v-496h-67q-51 207-140.5 303.5t-234.5 96.5q-76 0-109-28t-33-89v-402h17q102 0 157.5 56.5t77.5 181.5h76v-569h-76q-23 125-78 181t-157 56h-17v-481q0-104 82-111l107-10v-92h-633z"/><glyph unicode="G" horiz-adv-x="1236" d="M59 705q0 313 189 536 164 188 358 189 72 0 134.5-27t101.5-53.5 51-26.5q14 0 25 16l40 60h68v-500l-68 2q-104 428-311 428-123 0-193.5-155.5t-70.5-444.5q0-297 73.5-472t176.5-175q86 0 107.5 62.5t21.5 228.5q0 193-100 200l-105 9v90h651v-90l-61-9q-55-8-77.5-29.5t-22.5-70.5v-473h-68l-76 86q-154-113-274-113-102 0-211 55.5t-189 151.5q-170 205-170 525z"/><glyph unicode="H" horiz-adv-x="1329" d="M45 0v90h14q80 0 110 41t30 143v854q0 102-30 143.5t-110 41.5h-14v90h578v-90q-76 0-106-42t-30-143v-331h355v331q0 100-30 142.5t-105 42.5v90h577v-90h-14q-80 0-110-41t-30-144v-854q0-102 30-143t110-41h14v-90h-577v90q76 0 105.5 42t29.5 142v428h-355v-428q0-100 30-142t106-42v-90h-578z"/><glyph unicode="I" horiz-adv-x="696" d="M45 0v90h14q80 0 110 41t30 143v854q0 102-30 143.5t-110 41.5h-14v90h606v-90h-14q-80 0-109.5-41t-29.5-144v-854q0-102 29.5-143t109.5-41h14v-90h-606z"/><glyph unicode="J" horiz-adv-x="944" d="M-35 317q0 106 48 168t122 62q72 0 117-51.5t45-135.5q0-78-40-126t-103-48q-41 0-76 27 16-59 72.5-97t125.5-38q94 0 148.5 57.5t54.5 155.5v837q0 104-30.5 144.5t-114.5 40.5h-23v90h600v-90q-76 0-104.5-42t-28.5-143v-682q0-250-97-361.5t-327-111.5q-176 0-282.5 95.5t-106.5 248.5z"/><glyph unicode="K" horiz-adv-x="1263" d="M45 0v90h14q80 0 110 41t30 143v854q0 102-30 143.5t-110 41.5h-14v90h578v-90q-76 0-106-42t-30-143v-364l369 426q33 39 33 63 0 59-144 60v90h519v-90q-156-12-209-74l-287-330 358-700q33-66 70-92.5t107-26.5h8v-90h-584v90q90 8 90 60 0 33-29 86l-233 442-68-74v-330q0-100 30-142t106-42v-90h-578z"/><glyph unicode="L" horiz-adv-x="1028" d="M43 0v90q88 6 122 31.5t34 87.5v985q0 61-34 87t-122 32v90h637v-90q-102-2-142-27.5t-40-91.5v-981q0-113 108-113 121 0 221.5 120t139.5 329h73l-12-549h-985z"/><glyph unicode="M" horiz-adv-x="1579" d="M45 0v90h14q80 0 110 41t30 143v854q0 102-30 143.5t-110 41.5h-14v90h500l248-916 260 916h477v-90h-12q-78 0-107-41t-29-144v-854q0-102 31-143t109-41h12v-90h-576v90q82 8 113 32.5t31 86.5v1001l-340-1212h-133l-326 1190v-914q0-104 31-144t115-40h28v-90h-432z"/><glyph unicode="N" horiz-adv-x="1292" d="M33 0v90h22q84 0 115 40t31 144v879q0 100-23.5 126t-138.5 34v90h410l561-934v659q0 104-31 144.5t-115 40.5h-14v90h430v-90h-27q-78 0-108.5-41t-30.5-144v-1142h-156l-651 1073v-785q0-104 32-145t118-41q6 0 18 1t21 1v-90h-463z"/><glyph unicode="O" horiz-adv-x="1218" d="M61 702.5q0 327.5 181 544.5 154 188 366 189 217 0 371-189 178-215 178-544.5t-178-544.5q-160-190-371-191-207 0-366 191-181 217-181 544.5zm324 0q0-329.5 52-485.5t171-156 172.5 156 53.5 485q0 328-53.5 483.5t-172.5 155.5-171-154.5-52-484z"/><glyph unicode="P" horiz-adv-x="1116" d="M45 0v90h14q80 0 110 41t30 143v854q0 102-30 143.5t-110 41.5h-14v90h612q428 0 428-381 0-203-111.5-300t-340.5-97q-78 0-146 8v-359q0-102 31-143t111-41h12v-90h-596zm442 723h64q96 0 157.5 77t61.5 204q0 145-47 222t-129 77q-106 0-107-111v-469z"/><glyph unicode="Q" horiz-adv-x="1236" d="M61 704q0 327 181 543 154 188 366 189 217 0 371-189 178-215 178-545 0-418-291-657 33-137 111-137 45 0 73.5 45t28.5 123v14h80q0-8 1-21.5t1-21.5q0-176-76.5-281.5t-197.5-105.5q-111 0-180.5 82t-69.5 223v6q-31-6-53-6-80 0-174.5 51.5t-167.5 141.5q-181 218-181 546zm322-2q0-253 45-423 18 84 66.5 131t111.5 47q127 0 195-191 33 174 33 436 0 328-53.5 483.5t-172.5 155.5-172-155.5-53-483.5zm121-497q0-63 30.5-100t81.5-37q11 0 31 4 14 72 15 143 0 57-20.5 89t-53.5 32q-35 0-59.5-37t-24.5-94z"/><glyph unicode="R" horiz-adv-x="1191" d="M35 1313v90h653q197 0 300.5-94.5t103.5-266.5q0-315-392-356 102-29 164-84t94-153q14-43 25.5-91.5t17-80 13.5-60.5 20.5-42 32.5-13q63 0 66 155h77q0-6 1-18t1-16q0-147-69.5-228.5t-192.5-81.5q-133 0-189 92.5t-73 296.5q-6 72-11 110t-16.5 80-29 61.5-47 31.5-72.5 12h-25v-383q0-100 30-142t106-42v-90h-582v90h14q84 0 114 41t30 143v854q0 102-30 143.5t-114 41.5h-20zm446-555h19q278 0 278 282 0 117-54 188.5t-138 71.5q-104 0-105-110v-432z"/><glyph unicode="S" horiz-adv-x="1110" d="M119 1016q0 137 96 262 55 72 136 113t167 41q131 0 293-115l61 80h62v-496h-64q-37 211-117.5 321.5t-193.5 110.5q-86 0-147.5-58t-61.5-136q0-98 74-159.5t238-127.5q72-27 101.5-40t76.5-42 78-61q104-117 104-281 0-190-127-323.5t-303-133.5q-27 0-52.5 3t-55 13.5-41 14.5-48.5 20.5-39 18.5q-16 6-35.5 18.5t-32 19.5-22.5 7q-20 0-69-84h-72l2 541h72q104-477 368-477 94 0 154.5 66.5t60.5 170.5q0 109-64.5 165t-228.5 126q-197 84-283.5 178t-86.5 244z"/><glyph unicode="T" horiz-adv-x="1150" d="M41 903l16 500h1039l14-500h-76q-14 195-95 298.5t-214 105.5v-1098q0-63 35-89t125-30v-90h-619v90q90 4 125 29.5t35 89.5v1098q-131-4-212-107.5t-95-296.5h-78z"/><glyph unicode="U" horiz-adv-x="1257" d="M25 1313v90h577v-90q-76 0-105.5-42t-29.5-143v-739q0-143 60.5-222t164.5-79q274 0 275 369v671q0 104-31 144.5t-115 40.5h-14v90h436v-90h-26q-78 0-108-41t-30-144v-641q0-262-106.5-386t-337.5-124q-213 0-335 108t-122 300v743q0 102-29.5 143.5t-109.5 41.5h-14z"/><glyph unicode="V" horiz-adv-x="1081" d="M-41 1315v88h596v-88q-82-6-117-24.5t-35-59.5q0-33 11-66l204-757 234 735q20 61 20 92 0 43-32.5 59.5t-110.5 20.5v88h393v-88q-72-6-101.5-30.5t-47.5-88.5l-381-1196h-146l-331 1208q-18 66-56 84-35 16-100 23z"/><glyph unicode="W" horiz-adv-x="1648" d="M-45 1315v88h559v-88q-129-16-129-70 0-12 2-18l211-756 172 561-47 176q-14 51-42 74t-89 33v88h573v-88q-84-6-118.5-24.5t-34.5-59.5q0-33 10-66l188-694 203 672q20 68 21 92 0 43-34 59.5t-112 20.5v88h402v-88q-72-6-103-32t-49-87l-362-1196h-132l-225 840-262-840h-129l-332 1208q-18 63-55 84-27 12-86 23z"/><glyph unicode="X" horiz-adv-x="1157" d="M-53 0v90q102 2 152.5 34t103.5 116l256 403-291 551q-33 66-72 92.5t-110 26.5h-9v90h631v-90q-123-6-123-70 0-20 15-49l131-262 172 262q14 20 14 47 0 66-127 72v90h486v-90q-90-4-143.5-30t-96.5-89l-250-371 326-612q59-115 198-121v-90h-643v90q137 14 138 66 0 23-15 49l-170 327-192-301q-33-55-33-75 0-35 36-47.5t134-18.5v-90h-518z"/><glyph unicode="Y" horiz-adv-x="1073" d="M-45 1315v88h596v-88q-63-6-90-23.5t-27-56.5q0-41 12-66l191-417 162 391q20 49 20 92t-32.5 59.5-110.5 20.5v88h401v-88q-57-2-90-20.5t-42-35-27-63.5l-236-592v-332q0-102 30.5-143t110.5-41h13v-90h-596v90h14q80 0 109.5 41t29.5 143v308l-282 628q-29 63-50 78-31 23-106 29z"/><glyph unicode="Z" horiz-adv-x="1097" d="M94 0v131l565 1176h-104q-166 0-252-103.5t-98-316.5h-82l14 516h834l-2-121-576-1186h107q193 0 289 110.5t112 348.5h90l-14-555h-883z"/><glyph unicode="[" horiz-adv-x="747" d="M211-346v1749h403v-92l-86-11q-98-12-98-110v-1323q0-98 98-111l86-10v-92h-403z"/><glyph unicode="\" horiz-adv-x="569" d="M-33 1436h94l541-1626h-94z"/><glyph unicode="]" horiz-adv-x="747" d="M131-254l88 10q96 12 96 111v1323q0 98-96 110l-88 11v92h406v-1749h-406v92z"/><glyph unicode="^" horiz-adv-x="2048" d="M412 897l493 565h236l491-565h-112l-498 373-498-373h-112z"/><glyph unicode="_" horiz-adv-x="1024" d="M0-279h1024v-204h-1024v204z"/><glyph unicode="`" horiz-adv-x="1024" d="M209 1384q0 41 24.5 66t65.5 25q57 0 135-82l273-281h-91l-313 164q-51 27-72.5 49.5t-21.5 58.5z"/><glyph unicode="a" horiz-adv-x="1042" d="M63 209q0 145 118 236.5t384 175.5v131q0 86-35.5 127t-113.5 41q-92 0-144-58 61-4 96-42t35-95q0-51-38.5-85t-98.5-34q-57 0-92 40t-35 112q0 111 91.5 178.5t252.5 67.5q186 0 264-72t78-236v-528q0-43 35-43 59 0 60 108v72h94v-119q0-96-56.5-152.5t-154.5-56.5q-74 0-121 33t-80 107q-115-139-285-140-115 0-184.5 64.5t-69.5 167.5zm271 35q0-137 102-138 76 0 103.5 76t27.5 250v100q-233-55-233-288z"/><glyph unicode="b" horiz-adv-x="1005" d="M12 1303v86l383 16v-522q95 114 203 114h2q141 0 244.5-141t103.5-354q0-231-123-382t-295-151q-154 0-276 113l-49-82h-94q23 78 22 137v1037q0 74-23.5 101.5t-89.5 27.5h-8zm379-816q0-195 41-306t98-111q129 0 129 417 0 383-127 383-61 0-101-100t-40-283z"/><glyph unicode="c" horiz-adv-x="905" d="M57 485q0 229 125 372.5t320 143.5q141 0 234-77.5t93-188.5q0-78-37.5-125t-101.5-47q-61 0-99 45t-38 119q0 125 121 135-47 53-117 53-100 0-155.5-102t-55.5-293q0-459 199-459 168 0 223 273l84-15q-35-176-118-262t-224-86q-203 0-328 141.5t-125 372.5z"/><glyph unicode="d" horiz-adv-x="1013" d="M57 524q0 207 127 359 95 114 217 114h4q112 0 205-112v289q0 74-23.5 101.5t-88.5 27.5h-9v86l381 16v-1188q0-74 24-101.5t89-27.5h8v-88h-350l-4 104q-97-124-211-124h-2q-158 0-262.5 148t-104.5 396zm291-20q0-221 31-324.5t100-103.5q57 0 100.5 96t43.5 264v109q0 348-136 348-139 0-139-389z"/><glyph unicode="e" horiz-adv-x="909" d="M53 475q0 233 150 395 121 131 278 131 164 0 267.5-139t103.5-377v-6h-524q-2-20-2-57 0-166 61.5-258t163.5-92h1q121 0 234 204l64-40q-121-268-367-269-166 0-288 135-141 158-142 373zm275 98h258v48q0 299-115 299-59 0-97-89.5t-46-257.5z"/><glyph unicode="f" horiz-adv-x="675" d="M10 874v99h158q-2 20-2 59 0 195 90 299.5t254 104.5q115 0 194.5-68t79.5-156q0-63-33.5-102t-91.5-39q-55 0-91 39t-36 100q0 94 99 111-35 35-76 35-121 0-121-176v-207h195v-99h-195v-643q0-86 23.5-116.5t97.5-30.5q33 0 53 2v-86h-583v86h24q70 0 94.5 32t24.5 113v643h-158z"/><glyph unicode="g" horiz-adv-x="952" d="M18-135q0 135 211 198-82 18-118.5 54.5t-36.5 101.5q0 96 143 172-143 98-143 248 0 145 103.5 239.5t271.5 94.5q90 0 163-37 12 78 61.5 125t110.5 47q63 0 102.5-38t39.5-101q0-47-30-80t-71-33-67.5 32-26.5 83q0 20 2 30-45-25-45-75 0-16 5-29.5t11.5-20l17.5-17.5 15-15q74-76 74-189 0-137-106.5-232t-268.5-95q-33 0-77 9t-54 9q-27 0-43-14.5t-16-34.5q0-45 174-55 37-2 59-4 14-2 52-4.5t53.5-3.5 46.5-5 49-9 43-15.5 45-22.5q117-72 117-223.5t-128-247.5-343-96q-172 0-284 75.5t-112 178.5zm203-4q0-72 61.5-116t166.5-44q90 0 145 44t55 112q0 141-256 141-82 0-127-36t-45-101zm101 792.5q0-239.5 122-239.5 125 0 125 239.5t-125 239.5q-122 0-122-239.5z"/><glyph unicode="h" horiz-adv-x="1034" d="M45 0v86h6q68 0 91.5 32t23.5 113v940q0 74-23.5 103t-89.5 29h-8v86l365 14v-572q84 164 243 164 129 0 185.5-80.5t56.5-255.5v-428q0-82 22.5-113.5t88.5-31.5h20v-86h-387v668q0 102-15.5 149t-54.5 47q-68 0-107.5-102.5t-39.5-296.5v-234q0-82 22.5-113.5t87.5-31.5h21v-86h-508z"/><glyph unicode="i" horiz-adv-x="591" d="M55 0v86h6q68 0 91.5 32t23.5 113v525q0 74-23.5 102.5t-89.5 28.5h-8v86l385 14v-756q0-82 22.5-113.5t88.5-31.5h20v-86h-516zm97 1268q0 76 45 124t108 48q66 0 107-48.5t41-123.5q0-72-42-121t-102-49q-68 0-112.5 48t-44.5 122z"/><glyph unicode="j" horiz-adv-x="567" d="M-188-166q0 63 35.5 102t93.5 39q59 0 95-37.5t36-101.5q0-88-99-112 29-31 68-31 131 0 131 176v891q0 72-23.5 99.5t-89.5 27.5h-8v86l387 14v-993q0-180-91-281.5t-249-101.5q-123 0-204.5 67.5t-81.5 155.5zm327 1434q0 76 44 124t108 48q66 0 106.5-48.5t40.5-123.5q0-72-42-121t-101-49q-68 0-112 48t-44 122z"/><glyph unicode="k" horiz-adv-x="1038" d="M45 0v86h6q68 0 91.5 32t23.5 113v955q0 74-23.5 102.5t-89.5 28.5h-8v86l377 14v-831l209 202q31 31 31 54 0 49-91 49h-18v82h410v-82q-96-2-189-94l-127-125 256-504q39-76 133-82v-86h-334l-243 487-37-34v-222q0-82 22.5-113.5t87.5-31.5h21v-86h-508z"/><glyph unicode="l" horiz-adv-x="591" d="M55 0v86h6q68 0 91.5 32t23.5 113v957q0 74-23.5 102.5t-89.5 28.5h-8v84l385 16v-1188q0-82 22.5-113.5t88.5-31.5h20v-86h-516z"/><glyph unicode="m" horiz-adv-x="1478" d="M45 0v86h6q68 0 91.5 32t23.5 113v525q0 74-23.5 102.5t-89.5 28.5h-8v86l363 14 2-156q82 164 235 164 162 0 219-164 82 164 236 164 123 0 177-80.5t54-255.5v-428q0-80 21.5-112.5t81.5-32.5h12v-86h-359v670q0 104-15 150t-54 46q-66 0-103.5-103.5t-37.5-297.5v-234q0-80 21.5-112.5t80.5-32.5h12v-86h-360v670q0 104-14.5 150t-53.5 46q-66 0-103.5-103.5t-37.5-297.5v-234q0-82 21.5-113.5t82.5-31.5h13v-86h-494z"/><glyph unicode="n" horiz-adv-x="1034" d="M45 0v86h6q68 0 91.5 32t23.5 113v525q0 74-23.5 102.5t-89.5 28.5h-8v86l363 14 2-156q84 164 243 164 129 0 185.5-80.5t56.5-255.5v-428q0-82 22.5-113.5t88.5-31.5h20v-86h-387v668q0 102-15.5 149t-54.5 47q-68 0-107.5-102.5t-39.5-296.5v-234q0-82 22.5-113.5t87.5-31.5h21v-86h-508z"/><glyph unicode="o" horiz-adv-x="966" d="M57 485.5q0 225.5 124 369.5t302.5 144 302-144 123.5-369.5-123.5-370-302-144.5-302.5 144.5-124 370zm289-.5q0-428 137-428 74 0 106 103.5t32 325-32 325.5-106 104q-137 0-137-430z"/><glyph unicode="p" horiz-adv-x="1017" d="M27-285h6q68 0 91 32t23 114v895q0 72-23.5 101.5t-82.5 29.5h-6v86l340 14 10-153q80 163 215 163h2q145 0 252-144t107-368q0-221-106.5-365.5t-246.5-144.5q-119 0-205 121v-190q0-109 30-150t120-41h22v-86h-548v86zm376 772.5q0-182.5 40-283t102-100.5q125 0 125 383t-125 383q-61 0-101.5-100t-40.5-282.5z"/><glyph unicode="q" horiz-adv-x="1021" d="M57 469q0 231 122 380.5t294 149.5q158 0 277-110l51 82h88q-23-78-23-137v-949q0-100 20.5-136t94.5-36q6 0 16.5 1t14.5 1v-86h-559v86q6 0 17-1t15-1q74 0 99.5 32t25.5 116v225q-94-113-207-113-141 0-243.5 141.5t-102.5 354.5zm289 14q0-385 127-385 61 0 99 100.5t38 284.5q0 195-40 306.5t-97 111.5q-127 0-127-418z"/><glyph unicode="r" horiz-adv-x="833" d="M55 0v86h6q68 0 91.5 32t23.5 113v525q0 74-23.5 102.5t-89.5 28.5h-8v86l363 14 2-203q82 211 235 211 66 0 116-53t50-127q0-72-40-120t-95-48q-53 0-91 39t-38 94q0 29 12 66-57-33-97-137.5t-40-243.5v-234q0-84 24.5-115.5t94.5-31.5q4 0 15.5 1t17.5 1v-86h-529z"/><glyph unicode="s" horiz-adv-x="886" d="M98 674q0 131 100.5 228t241.5 97q109 0 222-73l36 39h62v-303h-66q-88 251-253 251h-1q-59 0-98-36.5t-39-88.5q0-49 35-83.5t66.5-47 123.5-43.5q14-6 23-8 141-47 202.5-112.5t61.5-176.5q0-147-101.5-247.5t-248.5-100.5q-104 0-254 80l-39-53h-70v366h70q72-292 293-292h2q59 0 97 34.5t38 92.5q0 61-46 94t-173 82q-147 55-197 102-88 84-88 199z"/><glyph unicode="t" horiz-adv-x="729" d="M10 870v91q143 33 218 116.5t100 237.5h73v-342h197v-103h-197v-669q0-49 24-78t62-29q55 0 77 50.5t22 160.5v66h84v-97q0-303-250-303-156 0-219 90-41 57-53.5 112.5t-12.5 139.5v557h-125z"/><glyph unicode="u" horiz-adv-x="1003" d="M0 887v86h387v-670q0-102 15.5-148t54.5-46q68 0 107.5 102t39.5 295v235q0 82-22.5 114t-87.5 32h-21v86h387v-758q0-74 23.5-101.5t89.5-27.5h8v-86h-363l-2 141q-86-166-243-166-129 0-185.5 82t-56.5 256v428q0 82-22.5 114t-88.5 32h-20z"/><glyph unicode="v" horiz-adv-x="862" d="M-41 889v84h477v-84q-98 0-98-62 0-25 12-61l142-457 145 461q10 31 10 57 0 33-21.5 45.5t-78.5 16.5v84h321v-84q-2 0-8 1t-10 1q-78 0-109-98l-258-803h-141l-258 794q-33 96-125 105z"/><glyph unicode="w" horiz-adv-x="1247" d="M-27 889v84h441v-84q-84 0-84-60 0-27 10-63l102-393 123 379-20 73q-18 63-76 64v84h424v-84q-84 0-84-60 0-23 12-63l103-393 116 397q10 37 11 57 0 35-22.5 46.5t-80.5 15.5v84h330v-84q-4 0-10 1t-8 1q-82 0-111-98l-231-803h-140l-166 590-178-590h-135l-217 794q-14 49-41 76-27 23-68 29z"/><glyph unicode="x" horiz-adv-x="1085" d="M51 0v86q74 2 140.5 57.5t144.5 169.5l86 127-217 342q-70 111-129 111h-4v80h469v-80h-21q-55 0-55-25 0-23 29-67l90-139 104 126q29 35 29 68 0 37-76 37h-14v80h377v-80q-76-2-130.5-42t-117.5-126l-113-156 258-403q31-45 54.5-62.5t76.5-17.5v-86h-483v86h8q66 0 66 29 0 16-25 53l-115 182-104-141q-31-43-31-72 0-51 98-51h15v-86h-410z"/><glyph unicode="y" horiz-adv-x="874" d="M-53 889v84h510v-84q-98 0-99-62 0-25 13-61l141-457 147 461q10 31 11 57 0 33-22.5 45.5t-80.5 16.5v84h322v-84h-15q-78 0-110-96l-315-934q-43-129-99.5-189.5t-146.5-60.5q-86 0-149.5 64.5t-63.5 152.5q0 74 35.5 119t95.5 45q57 0 94-43t37-113q0-98-84-123 25-10 43-10 100 0 160 252l-283 835q-33 100-141 101z"/><glyph unicode="z" horiz-adv-x="919" d="M102 0v117l412 768q-6 0-17.5 1t-15.5 1q-244 0-286-279h-64v365h666v-92l-416-789h27q145 0 232 82t103 236h64v-410h-705z"/><glyph unicode="{" horiz-adv-x="1024" d="M178 598v76q160 14 214 77.5t54 225.5v192q0 201 85 274t321 73v-62q-127-2-168-58.5t-41-205.5v-133q0-205-46-295t-204-127q158-35 204-124t46-296v-135q0-150 41-206t168-58v-60q-236 0-321 73t-85 273v193q0 162-54 225.5t-214 77.5z"/><glyph unicode="|" horiz-adv-x="1024" d="M410-483v2048h206v-2048h-206z"/><glyph unicode="}" horiz-adv-x="1024" d="M172-184q127 2 168 58t41 206v135q0 207 46 296t204 124q-158 37-204 127t-46 295v133q0 150-41 206t-168 58v62q236 0 322-73t86-274v-192q0-162 54-225.5t214-77.5v-76q-160-14-214-77.5t-54-225.5v-193q0-197-84-271.5t-312-74.5h-12v60z"/><glyph unicode="~" horiz-adv-x="1705" d="M178 418v221q213 143 387 143 117 0 295-59 18-6 57-19.5t60.5-20.5 54.5-16.5 62.5-13.5 60.5-4q164 0 375 154v-221q-203-137-379-138-92 0-184 31-23 8-81.5 27.5t-86 29-73.5 21.5-85 17-78 5q-164 0-385-157z"/><glyph unicode="¡" horiz-adv-x="483" d="M90 158q0 25 2 37l98 755h103l98-755q2-12 2-37 0-82-43-135.5t-108.5-53.5-108.5 53.5-43 135.5zm8 1103.5q0 71.5 44 121t101.5 49.5 101.5-49.5 44-121-44-121.5-101-50q-59 0-102.5 50t-43.5 121.5z"/><glyph unicode="¢" d="M84 717q0 215 109.5 353t293.5 161v205h72v-207q131-10 214-84t83-172q0-68-37-110t-98-42q-53 0-86 38t-33 102q0 123 98 133-45 53-131 53h-10v-856q179 2 236 272l84-14q-63-334-320-346v-234h-72v234q-184 20-293.5 159.5t-109.5 354.5zm272-2q0-178 28.5-276.5t102.5-139.5v831q-131-63-131-415z"/><glyph unicode="£" d="M-35 219q0 88 69.5 150.5t170.5 62.5q143 0 274-131 4 29 4 43 1 110-116 262h-314v129h234q-145 209-145.5 358.5t102 244 266.5 94.5q141 0 230-81t89-204q0-80-36.5-125t-102.5-45q-57 0-96 44t-39 109q0 82 92 146-35 66-112 65-53 0-85-36.5t-32-102.5q0-37 17.5-90t37-94 67.5-135.5 72-147.5h291v-129h-241q63-143 63-233 0-102-72-203 76-41 133-41 51 0 90 37t78 117l60-39q-47-143-109.5-208t-161.5-65q-102 0-202 82-145-82-279-82-129 0-213 72t-84 176zm137-20q0-43 40-73t106-30q102 0 176 72-113 125-203 125-55 0-87-25.5t-32-68.5z"/><glyph unicode="¤" horiz-adv-x="1241" d="M68 438l202 205q-76 106-75.5 241.5t75.5 241.5l-202 205 104 107 205-203q106 78 244 78 139 0 247-78l203 203 105-107-203-205q76-106 76-241 0-133-76-242l203-205-105-104-203 203q-106-78-245-78-141 0-246 78l-205-203zm278 447q0-115 81-195t195.5-80 195.5 81 81 193.5-82 194.5-194.5 82-194.5-82-82-194z"/><glyph unicode="¥" horiz-adv-x="1196" d="M41 1315v88h575v-88q-63-6-89.5-23.5t-26.5-56.5q0-41 10-66l197-440 163 414q23 57 23 92 0 43-34 59.5t-111 20.5v88h395v-88q-57-2-88-19.5t-41-35-29-64.5l-92-235h254v-87h-291l-84-208h375v-86h-397v-308q0-102 29.5-143t109.5-41h12v-88h-577v88h14q80 0 110.5 41t30.5 143v308h-428v86h385l-92 208h-293v87h254l-110 247q-29 63-50 78-31 25-104 29z"/><glyph unicode="¦" horiz-adv-x="1024" d="M410-350v758h206v-758h-206zm0 1024v758h206v-758h-206z"/><glyph unicode="§" d="M61 618q0 109 78 178.5t209 77.5q-98 84-143 152t-45 141q0 121 90 193t248 72q133 0 216-61.5t83-153.5q0-59-35-96.5t-92-37.5q-53 0-88 31t-35 76q0 33 31.5 70.5t31.5 50.5q0 25-32.5 46t-81.5 21q-70 0-112-36.5t-42-98 48-120 159-154.5l178-150q174-147 174-293 0-104-77-173t-210-77q188-158 189-296 0-113-97.5-184.5t-263.5-71.5q-139 0-225 61t-86 154q0 61 37 99t98 38q49 0 82-34t33-81q0-39-32-73.5t-32-45.5q0-27 35-45t92-18q82 0 128 39t46 104q0 41-28.5 85t-61 75-110.5 96l-180 156q-176 152-177 284zm168 76q0-94 133-209 94-82 145.5-116.5t90.5-34.5q57 0 96 36t39 91q0 86-129 209-158 152-244 151-55 0-93-38t-38-89z"/><glyph unicode="¨" horiz-adv-x="1024" d="M209 1276q0 47 36 83t85 36 84-35 35-84q0-53-34-88t-85-35-86 36-35 87zm364 0q0 47 36 83t85 36 84-35 35-84q0-53-34-88t-85-35-86 36-35 87z"/><glyph unicode="©" horiz-adv-x="1683" d="M111 678q0 305 213 518 217 217 520 217 295 0 514-215 102-102 159.5-239.5t57.5-280.5q0-297-217-518-209-213-516-213-299 0-516 213-215 215-215 518zm106 0q0-262 182.5-444.5t442.5-182.5q262 0 440 182 184 188 184 445 0 268-182 446-184 185-440 185-262 0-444.5-186.5t-182.5-444.5zm193-14q0 193 121.5 317.5t304.5 124.5q80 0 153.5-33t79.5-33q45 1 57 62h45v-326h-47q-33 131-101.5 202t-162.5 71q-233 0-233-365 0-377 245-377 160 0 273 174l45-28q-125-215-348-215-186 0-309 122.5t-123 303.5z"/><glyph unicode="ª" horiz-adv-x="782" d="M47 868q0 102 89 167t288 122v92q0 117-113 117-68 0-106-39 45-2 71.5-28.5t26.5-67.5q0-37-28.5-60.5t-73.5-23.5q-43 0-70 28.5t-27 77.5q0 78 69 125t189 47q139 0 197.5-50t58.5-165v-370q0-29 27-29 45 0 45 76v49h70v-82q0-68-42-107.5t-116-39.5q-102 0-149 98-90-98-215-98-86 0-138.5 45t-52.5 116zm203 25q0-96 78-96 55 0 76.5 53t21.5 176v70q-176-39-176-203z"/><glyph unicode="«" horiz-adv-x="829" d="M59 485q96 109 168 221.5t100.5 164 45.5 51.5q31 0 30-41 0-78-127-396 127-315 127-393 0-43-30-43-16 0-45 51.5t-101 163.5-168 221zm365 0q96 109 169 221.5t101.5 164 44.5 51.5q31 0 31-41 0-78-127-396 127-315 127-393 0-43-31-43-16 0-44.5 51.5t-101.5 163.5-169 221z"/><glyph unicode="¬" horiz-adv-x="1705" d="M254 668v196h1198v-502h-199v306h-999z"/><glyph unicode="­" horiz-adv-x="618" d="M57 365v231h504v-231h-504z"/><glyph unicode="®" horiz-adv-x="1683" d="M111 678q0 301 213 518t520 217q145 0 284.5-59.5t241.5-165.5q203-209 203-522 0-137-60.5-275.5t-171.5-245.5q-205-199-499-198-221 0-402 121-158 104-243.5 264t-85.5 346zm106 0q0-262 182.5-444.5t442.5-182.5q262 0 440 182 184 188 184 445 0 125-48 242.5t-136 203.5q-184 185-438 185-262 0-444.5-186.5t-182.5-444.5zm248-393v51q61 4 83.5 22.5t22.5 69.5v522q0 49-22.5 69.5t-83.5 24.5v54h403q150 0 236-57.5t86-141.5q0-88-65.5-136t-213.5-73q186-43 219-194 6-25 8.5-72t11.5-66.5 36-19.5q57 0 57 117v12h51v-23q0-180-172-180-96 0-139 55-18 25-24.5 58t-8.5 77-6 66q-27 154-166 154h-18v-246q0-47 20.5-65.5t77.5-26.5v-51h-393zm295 438q14-2 43-2 193 0 192 180 0 57-42 101.5t-107 44.5q-86 0-86-66v-258z"/><glyph unicode="¯" horiz-adv-x="1024" d="M236 1200v148h552v-148h-552z"/><glyph unicode="°" horiz-adv-x="673" d="M35 1159q0 127 88 216t215 89q125 0 214-89t89-216q0-125-89-214t-216-89-214 88-87 215zm127 2q0-74 51-125t125-51 124 52.5 50 124-51 122.5-123 51-124-51-52-123z"/><glyph unicode="±" horiz-adv-x="1705" d="M254-2v199h1198v-199h-1198zm0 700v199h498v326h202v-326h498v-199h-498v-325h-202v325h-498z"/><glyph unicode="²" horiz-adv-x="634" d="M8 561v72q57 119 176 266 82 100 119 165.5t37 137.5-34 112-89 40q-92 0-129-103 27 10 43 11 31 0 52.5-25t21.5-66q0-43-25.5-69.5t-64.5-26.5q-41 0-68 31t-27 84q0 98 75 163.5t189.5 65.5 184.5-66.5 70-172.5q0-80-40-129.5t-132-112.5q-68-45-94.5-65.5t-73.5-64.5-76-91h190q98 0 138.5 30.5t50.5 122.5h41l-17-309h-518z"/><glyph unicode="³" horiz-adv-x="634" d="M14 737q0 57 29 92t74 35q41 0 66.5-26.5t25.5-71.5q0-39-22.5-62.5t-59.5-23.5q-20 0-45 12 31-92 143-92 158 0 158 193 0 172-121 172-10 0-28.5-1t-26.5-1q-45 0-45 30 0 33 43 33 6 0 21.5-2t25.5-2q55 0 90 45t35 119q0 80-37 123t-104 43q-88 0-119-78 18 6 37 6 35 0 57-24.5t22-63.5-26.5-64.5-65.5-25.5q-43 0-70.5 29.5t-27.5 78.5q0 86 73.5 147.5t180.5 61.5q113 0 189.5-64.5t76.5-162.5q0-144-178-197 197-23 197-198 0-111-86-181.5t-228-70.5q-119 0-186.5 51t-67.5 141z"/><glyph unicode="´" horiz-adv-x="1024" d="M317 1112l273 281q78 82 135 82 41 0 65.5-25t24.5-66q0-37-21.5-59t-72.5-49l-313-164h-91z"/><glyph unicode="¶" horiz-adv-x="1024" d="M41 1130q0 156 106.5 252.5t284.5 96.5h551v-111h-113v-1368h-151v1368h-160v-1368h-151v784q-168 6-267.5 101.5t-99.5 244.5z"/><glyph unicode="·" horiz-adv-x="483" d="M104 716.5q0 69.5 47.5 118t117 48.5 117.5-48.5 48-118-48-117.5-117.5-48-117 48-47.5 117.5z"/><glyph unicode="¸" horiz-adv-x="1024" d="M242-375l39 88q135-74 249-73 41 0 63.5 21.5t22.5 59.5q0 86-100 86-29 0-61-6v199h69v-113q33 6 66 7 86 0 136-46.5t50-123.5q0-86-59.5-133.5t-169.5-47.5q-104 0-305 82z"/><glyph unicode="¹" horiz-adv-x="634" d="M88 561v55l94 7q59 4 60 65v483q0 76-13.5 96.5t-78.5 20.5q-4 0-15.5-1t-17.5-1v53q186 16 233 80h70v-731q0-61 57-65l92-7v-55h-481z"/><glyph unicode="º" horiz-adv-x="724" d="M43 1063q0 158 93 259t226.5 101 226.5-101 93-259-92-259.5-228-101.5q-133 0-226 101.5t-93 259.5zm217 0q0-299 102-299 55 0 79 71.5t24 227.5-23.5 228.5-79.5 72.5q-102 0-102-301z"/><glyph unicode="»" horiz-adv-x="829" d="M61 92q0 84 125 395-125 309-125 394 0 41 29 41 16 0 45-51.5t102-164 169-221.5q-96-109-169-221t-102-163.5-45-51.5q-29 0-29 43zm365 0q0 78 127 395-127 315-127 394 0 41 31 41 16 0 44.5-51.5t100.5-164 168-221.5q-96-109-168-221t-100.5-163.5-44.5-51.5q-31 0-31 43z"/><glyph unicode="¼" horiz-adv-x="1554" d="M84 616v52l90 6q55 4 55 61v451q0 70-12 89t-74 19q-4 0-15-1t-17-1v51q180 12 223 74h67v-682q0-59 56-61l86-6v-52h-459zm192-649l891 1469h111l-891-1469h-111zm693 232v71l358 531h88v-531h125v-71h-125v-54q0-57 17.5-75.5t85.5-20.5v-49h-390v49q78 2 98.5 18.5t20.5 77.5v54h-278zm73 71h205v299z"/><glyph unicode="½" horiz-adv-x="1554" d="M84 616v52l90 6q55 4 55 61v451q0 70-12 89t-74 19q-4 0-15-1t-17-1v51q180 12 223 74h67v-682q0-59 56-61l86-6v-52h-459zm192-649l891 1469h111l-891-1469h-111zm680 33v68q53 111 168 247 78 92 114 153.5t36 129.5q0 66-33 103.5t-86 37.5q-86 0-123-94 23 8 41 8 31 0 50.5-22.5t19.5-61.5q0-41-24.5-65.5t-59.5-24.5q-41 0-66.5 30t-25.5 79q0 90 71.5 151.5t180 61.5 176-61.5 67.5-161.5q0-76-38-122t-126-104q-8-4-36.5-23.5t-38-26.5-34-25.5-36.5-29.5-29.5-28.5-32-35.5-26.5-38h182q92 0 131 29t49 115h39l-14-289h-496z"/><glyph unicode="¾" horiz-adv-x="1554" d="M14 780q0 55 28 87t71 32q39 0 63.5-24.5t24.5-65.5q0-39-21.5-60.5t-58.5-21.5q-16 0-43 10 31-84 137-84 152 0 152 181 0 160-117 159-8 0-26.5-1t-26.5-1q-41 0-41 29 0 31 39 31 6 0 21-2t26-2q51 0 84.5 41.5t33.5 111.5q0 74-35.5 115t-99.5 41q-82 0-114-74 2 0 15 3t19 3q33 0 54.5-23.5t21.5-58.5q0-37-25.5-61.5t-60.5-24.5q-41 0-67.5 28t-26.5 75q0 80 69.5 137t172.5 57q106 0 180-60.5t74-150.5q0-135-168-184 90-10 139-58.5t49-125.5q0-104-83-171t-218-67q-113 0-177.5 48t-64.5 132zm262-813l891 1469h111l-891-1469h-111zm693 232v71l358 531h88v-531h125v-71h-125v-54q0-57 17.5-75.5t85.5-20.5v-49h-390v49q78 2 98.5 18.5t20.5 77.5v54h-278zm73 71h205v299z"/><glyph unicode="¿" horiz-adv-x="827" d="M70 283q0 76 37.5 145.5t70.5 102 125 116.5q109 102 109 287v37h96v-129q0-16-1-32.5t-5-32-6-27-9.5-26.5-9.5-21.5-12-22.5-11-19.5-14-21.5l-12-18q-33-49-45-72t-29.5-81-17.5-126q0-129 47-199.5t129-70.5q86 0 154 84-8-2-23-2-57 0-90 41t-33 114q0 63 39 107.5t94 44.5q59 0 99.5-50.5t40.5-123.5q0-137-104.5-228.5t-266.5-91.5q-154 0-253 91.5t-99 224.5zm256 978.5q0 71.5 44 122t103 50.5q57 0 101-51t44-121q0-72-43-121t-102-49q-61 0-104 49t-43 120.5z"/><glyph unicode="À" horiz-adv-x="1161" d="M-57 0v90q70 6 103.5 33t55.5 90l435 1219h96l432-1219q45-123 160-123h4v-90h-623v90q158 4 158 86 0 16-6 37l-88 258h-361l-73-221q-16-53-17-76 0-43 43-61.5t141-22.5v-90h-460zm340 1820q0 41 24.5 66t65.5 25q57 0 135-82l273-281h-91l-313 164q-51 27-72.5 49.5t-21.5 58.5zm59-1249h291l-146 430z"/><glyph unicode="Á" horiz-adv-x="1161" d="M-57 0v90q70 6 103.5 33t55.5 90l435 1219h96l432-1219q45-123 160-123h4v-90h-623v90q158 4 158 86 0 16-6 37l-88 258h-361l-73-221q-16-53-17-76 0-43 43-61.5t141-22.5v-90h-460zm399 571h291l-146 430zm49 977l273 281q78 82 135 82 41 0 65.5-25t24.5-66q0-37-21.5-59t-72.5-49l-313-164h-91z"/><glyph unicode="Â" horiz-adv-x="1161" d="M-57 0v90q70 6 103.5 33t55.5 90l435 1219h96l432-1219q45-123 160-123h4v-90h-623v90q158 4 158 86 0 16-6 37l-88 258h-361l-73-221q-16-53-17-76 0-43 43-61.5t141-22.5v-90h-460zm344 1548l225 348h148l225-348h-84l-215 178-215-178h-84zm55-977h291l-146 430z"/><glyph unicode="Ã" horiz-adv-x="1161" d="M-57 0v90q70 6 103.5 33t55.5 90l435 1219h96l432-1219q45-123 160-123h4v-90h-623v90q158 4 158 86 0 16-6 37l-88 258h-361l-73-221q-16-53-17-76 0-43 43-61.5t141-22.5v-90h-460zm352 1579q33 246 211 246 33 0 64-9l108-26q20-6 39-6 61 0 92 86h66q-14-119-68.5-183.5t-136.5-64.5q-16 0-57 8l-105 29q-31 8-57 8-59 0-90-88h-66zm47-1008h291l-146 430z"/><glyph unicode="Ä" horiz-adv-x="1161" d="M-57 0v90q70 6 103.5 33t55.5 90l435 1219h96l432-1219q45-123 160-123h4v-90h-623v90q158 4 158 86 0 16-6 37l-88 258h-361l-73-221q-16-53-17-76 0-43 43-61.5t141-22.5v-90h-460zm340 1712q0 47 36 83t85 36 84-35 35-84q0-53-34-88t-85-35-86 36-35 87zm59-1141h291l-146 430zm305 1141q0 47 36 83t85 36 84-35 35-84q0-53-34-88t-85-35-86 36-35 87z"/><glyph unicode="Å" horiz-adv-x="1161" d="M-57 0v90q70 6 103.5 33t55.5 90l424 1190h115l424-1190q45-123 160-123h4v-90h-623v90q158 4 158 86 0 16-6 37l-88 258h-361l-73-221q-16-53-17-76 0-43 43-61.5t141-22.5v-90h-460zm389 1720.5q0 106.5 72.5 179t179 72.5 180.5-72.5 74-179-74-180.5-180.5-74-179 74-72.5 180.5zm10-1149.5h291l-146 430zm107 1149.5q0-57.5 38.5-96.5t96-39 96.5 39 39 96.5-40 96-95 38.5q-57 0-96-38.5t-39-96z"/><glyph unicode="Æ" horiz-adv-x="1705" d="M-80 0v90h10q133 0 185 123l417 969q16 35 17 65 0 66-143 66v90h1163v-496h-68q-47 205-137 302.5t-238 97.5q-76 0-110.5-28t-34.5-89v-402h16q104 0 159.5 56.5t78.5 181.5h76v-569h-76q-23 125-78 181t-160 56h-16v-481q0-61 35-89t112-28q143 0 254 121t148 332h72l-13-549h-1042v90h14q80 0 109.5 41t29.5 143v197h-366l-92-240q-10-25-11-53 0-45 43-64.5t146-23.5v-90h-500zm459 571h321v734z"/><glyph unicode="Ç" horiz-adv-x="1157" d="M55 705q0 313 189 536 164 188 358 189 72 0 134.5-27t100-53.5 50.5-26.5q16 0 26 16l41 60h68v-500l-68 2q-104 428-313 428-123 0-192.5-157.5t-69.5-452.5q0-299 82-464t215-165q123 0 210 125t93 338h76q-2-272-120-426t-308-154q-106 0-214 55.5t-188 151.5q-170 209-170 525zm265-1080l39 88q135-74 249-73 41 0 63.5 21.5t22.5 59.5q0 86-100 86-29 0-61-6v199h69v-113q33 6 66 7 86 0 136-46.5t50-123.5q0-86-59.5-133.5t-169.5-47.5q-104 0-305 82z"/><glyph unicode="È" horiz-adv-x="1214" d="M45 0v90h14q80 0 110 41t30 143v854q0 102-30 143.5t-110 41.5h-14v90h1030v-496h-65q-47 205-137.5 302.5t-237.5 97.5q-76 0-111-28t-35-89v-402h17q104 0 159.5 56.5t77.5 181.5h76v-569h-76q-23 125-78 181t-159 56h-17v-481q0-61 35-89t113-28q143 0 253.5 121t147.5 332h72l-12-549h-1053zm260 1820q0 41 24.5 66t65.5 25q57 0 135-82l273-281h-91l-313 164q-51 27-72.5 49.5t-21.5 58.5z"/><glyph unicode="É" horiz-adv-x="1214" d="M45 0v90h14q80 0 110 41t30 143v854q0 102-30 143.5t-110 41.5h-14v90h1030v-496h-65q-47 205-137.5 302.5t-237.5 97.5q-76 0-111-28t-35-89v-402h17q104 0 159.5 56.5t77.5 181.5h76v-569h-76q-23 125-78 181t-159 56h-17v-481q0-61 35-89t113-28q143 0 253.5 121t147.5 332h72l-12-549h-1053zm368 1548l273 281q78 82 135 82 41 0 65.5-25t24.5-66q0-37-21.5-59t-72.5-49l-313-164h-91z"/><glyph unicode="Ê" horiz-adv-x="1214" d="M45 0v90h14q80 0 110 41t30 143v854q0 102-30 143.5t-110 41.5h-14v90h1030v-496h-65q-47 205-137.5 302.5t-237.5 97.5q-76 0-111-28t-35-89v-402h17q104 0 159.5 56.5t77.5 181.5h76v-569h-76q-23 125-78 181t-159 56h-17v-481q0-61 35-89t113-28q143 0 253.5 121t147.5 332h72l-12-549h-1053zm264 1548l225 348h148l225-348h-84l-215 178-215-178h-84z"/><glyph unicode="Ë" horiz-adv-x="1214" d="M45 0v90h14q80 0 110 41t30 143v854q0 102-30 143.5t-110 41.5h-14v90h1030v-496h-65q-47 205-137.5 302.5t-237.5 97.5q-76 0-111-28t-35-89v-402h17q104 0 159.5 56.5t77.5 181.5h76v-569h-76q-23 125-78 181t-159 56h-17v-481q0-61 35-89t113-28q143 0 253.5 121t147.5 332h72l-12-549h-1053zm260 1712q0 47 36 83t85 36 84-35 35-84q0-53-34-88t-85-35-86 36-35 87zm364 0q0 47 36 83t85 36 84-35 35-84q0-53-34-88t-85-35-86 36-35 87z"/><glyph unicode="Ì" horiz-adv-x="696" d="M45 0v90h14q80 0 110 41t30 143v854q0 102-30 143.5t-110 41.5h-14v90h606v-90h-14q-80 0-109.5-41t-29.5-144v-854q0-102 29.5-143t109.5-41h14v-90h-606zm0 1820q0 41 24.5 66t65.5 25q57 0 135-82l273-281h-91l-313 164q-51 27-72.5 49.5t-21.5 58.5z"/><glyph unicode="Í" horiz-adv-x="696" d="M45 0v90h14q80 0 110 41t30 143v854q0 102-30 143.5t-110 41.5h-14v90h606v-90h-14q-80 0-109.5-41t-29.5-144v-854q0-102 29.5-143t109.5-41h14v-90h-606zm108 1548l273 281q78 82 135 82 41 0 65.5-25t24.5-66q0-37-21.5-59t-72.5-49l-313-164h-91z"/><glyph unicode="Î" horiz-adv-x="696" d="M45 0v90h14q80 0 110 41t30 143v854q0 102-30 143.5t-110 41.5h-14v90h606v-90h-14q-80 0-109.5-41t-29.5-144v-854q0-102 29.5-143t109.5-41h14v-90h-606zm4 1548l225 348h148l225-348h-84l-215 178-215-178h-84z"/><glyph unicode="Ï" horiz-adv-x="696" d="M45 0v90h14q80 0 110 41t30 143v854q0 102-30 143.5t-110 41.5h-14v90h606v-90h-14q-80 0-109.5-41t-29.5-144v-854q0-102 29.5-143t109.5-41h14v-90h-606zm0 1712q0 47 36 83t85 36 84-35 35-84q0-53-34-88t-85-35-86 36-35 87zm364 0q0 47 36 83t85 36 84-35 35-84q0-53-34-88t-85-35-86 36-35 87z"/><glyph unicode="Ð" horiz-adv-x="1298" d="M0 702v95h217v331q0 102-29.5 143.5t-109.5 41.5h-15v90h490q238 0 344-57 344-193 344-644 0-453-344-645-106-57-344-57h-490v90h15q80 0 109.5 41t29.5 143v428h-217zm508-426q0-102 29.5-143t111.5-41q131 0 201 155.5t70 454.5-70 455-201 156q-82 0-111.5-42t-29.5-145v-329h205v-95h-205v-426z"/><glyph unicode="Ñ" horiz-adv-x="1292" d="M33 0v90h22q84 0 115 40t31 144v879q0 100-23.5 126t-138.5 34v90h410l561-934v659q0 104-31 144.5t-115 40.5h-14v90h430v-90h-27q-78 0-108.5-41t-30.5-144v-1142h-156l-651 1073v-785q0-104 32-145t118-41q6 0 18 1t21 1v-90h-463zm323 1579q33 246 211 246 33 0 64-9l108-26q20-6 39-6 61 0 92 86h66q-14-119-68.5-183.5t-136.5-64.5q-16 0-57 8l-105 29q-31 8-57 8-59 0-90-88h-66z"/><glyph unicode="Ò" horiz-adv-x="1218" d="M61 702.5q0 327.5 181 544.5 154 188 366 189 217 0 371-189 178-215 178-544.5t-178-544.5q-160-190-371-191-207 0-366 191-181 217-181 544.5zm246 1117.5q0 41 24.5 66t65.5 25q57 0 135-82l273-281h-91l-313 164q-51 27-72.5 49.5t-21.5 58.5zm78-1117.5q0-329.5 52-485.5t171-156 172.5 156 53.5 485q0 328-53.5 483.5t-172.5 155.5-171-154.5-52-484z"/><glyph unicode="Ó" horiz-adv-x="1218" d="M61 702.5q0 327.5 181 544.5 154 188 366 189 217 0 371-189 178-215 178-544.5t-178-544.5q-160-190-371-191-207 0-366 191-181 217-181 544.5zm324 0q0-329.5 52-485.5t171-156 172.5 156 53.5 485q0 328-53.5 483.5t-172.5 155.5-171-154.5-52-484zm30 845.5l273 281q78 82 135 82 41 0 65.5-25t24.5-66q0-37-21.5-59t-72.5-49l-313-164h-91z"/><glyph unicode="Ô" horiz-adv-x="1218" d="M61 702.5q0 327.5 181 544.5 154 188 366 189 217 0 371-189 178-215 178-544.5t-178-544.5q-160-190-371-191-207 0-366 191-181 217-181 544.5zm250 845.5l225 348h148l225-348h-84l-215 178-215-178h-84zm74-845.5q0-329.5 52-485.5t171-156 172.5 156 53.5 485q0 328-53.5 483.5t-172.5 155.5-171-154.5-52-484z"/><glyph unicode="Õ" horiz-adv-x="1218" d="M61 702.5q0 327.5 181 544.5 154 188 366 189 217 0 371-189 178-215 178-544.5t-178-544.5q-160-190-371-191-207 0-366 191-181 217-181 544.5zm258 876.5q33 246 211 246 33 0 64-9l108-26q20-6 39-6 61 0 92 86h66q-14-119-68.5-183.5t-136.5-64.5q-16 0-57 8l-105 29q-31 8-57 8-59 0-90-88h-66zm66-876.5q0-329.5 52-485.5t171-156 172.5 156 53.5 485q0 328-53.5 483.5t-172.5 155.5-171-154.5-52-484z"/><glyph unicode="Ö" horiz-adv-x="1218" d="M61 702.5q0 327.5 181 544.5 154 188 366 189 217 0 371-189 178-215 178-544.5t-178-544.5q-160-190-371-191-207 0-366 191-181 217-181 544.5zm246 1009.5q0 47 36 83t85 36 84-35 35-84q0-53-34-88t-85-35-86 36-35 87zm78-1009.5q0-329.5 52-485.5t171-156 172.5 156 53.5 485q0 328-53.5 483.5t-172.5 155.5-171-154.5-52-484zm286 1009.5q0 47 36 83t85 36 84-35 35-84q0-53-34-88t-85-35-86 36-35 87z"/><glyph unicode="×" horiz-adv-x="1705" d="M276 160l451 450-451 453 140 139 450-450 451 450 141-139-450-453 450-450-141-140-451 451-450-451z"/><glyph unicode="Ø" horiz-adv-x="1218" d="M43-145l184 317q-166 213-166 530 0 328 181 545 154 188 366 189 160 0 293-113l119 201h115l-160-273q182-221 182-549 0-330-178-544-160-190-371-191-158 0-309 129l-143-241h-113zm334 847q0-170 6-260l416 707q-51 193-189 192-125 0-179-155.5t-54-483.5zm33-415q31-117 78-171.5t122-54.5q125 0 179.5 156t54.5 485q-1 188-15 299z"/><glyph unicode="Ù" horiz-adv-x="1257" d="M25 1313v90h577v-90q-76 0-105.5-42t-29.5-143v-739q0-143 60.5-222t164.5-79q274 0 275 369v671q0 104-31 144.5t-115 40.5h-14v90h436v-90h-26q-78 0-108-41t-30-144v-641q0-262-106.5-386t-337.5-124q-213 0-335 108t-122 300v743q0 102-29.5 143.5t-109.5 41.5h-14zm342 507q0 41 24.5 66t65.5 25q57 0 135-82l273-281h-91l-313 164q-51 27-72.5 49.5t-21.5 58.5z"/><glyph unicode="Ú" horiz-adv-x="1257" d="M25 1313v90h577v-90q-76 0-105.5-42t-29.5-143v-739q0-143 60.5-222t164.5-79q274 0 275 369v671q0 104-31 144.5t-115 40.5h-14v90h436v-90h-26q-78 0-108-41t-30-144v-641q0-262-106.5-386t-337.5-124q-213 0-335 108t-122 300v743q0 102-29.5 143.5t-109.5 41.5h-14zm450 235l273 281q78 82 135 82 41 0 65.5-25t24.5-66q0-37-21.5-59t-72.5-49l-313-164h-91z"/><glyph unicode="Û" horiz-adv-x="1257" d="M25 1313v90h577v-90q-76 0-105.5-42t-29.5-143v-739q0-143 60.5-222t164.5-79q274 0 275 369v671q0 104-31 144.5t-115 40.5h-14v90h436v-90h-26q-78 0-108-41t-30-144v-641q0-262-106.5-386t-337.5-124q-213 0-335 108t-122 300v743q0 102-29.5 143.5t-109.5 41.5h-14zm346 235l225 348h148l225-348h-84l-215 178-215-178h-84z"/><glyph unicode="Ü" horiz-adv-x="1257" d="M25 1313v90h577v-90q-76 0-105.5-42t-29.5-143v-739q0-143 60.5-222t164.5-79q274 0 275 369v671q0 104-31 144.5t-115 40.5h-14v90h436v-90h-26q-78 0-108-41t-30-144v-641q0-262-106.5-386t-337.5-124q-213 0-335 108t-122 300v743q0 102-29.5 143.5t-109.5 41.5h-14zm342 399q0 47 36 83t85 36 84-35 35-84q0-53-34-88t-85-35-86 36-35 87zm364 0q0 47 36 83t85 36 84-35 35-84q0-53-34-88t-85-35-86 36-35 87z"/><glyph unicode="Ý" horiz-adv-x="1073" d="M-45 1315v88h596v-88q-63-6-90-23.5t-27-56.5q0-41 12-66l191-417 162 391q20 49 20 92t-32.5 59.5-110.5 20.5v88h401v-88q-57-2-90-20.5t-42-35-27-63.5l-236-592v-332q0-102 30.5-143t110.5-41h13v-90h-596v90h14q80 0 109.5 41t29.5 143v308l-282 628q-29 63-50 78-31 23-106 29zm387 233l273 281q78 82 135 82 41 0 65.5-25t24.5-66q0-37-21.5-59t-72.5-49l-313-164h-91z"/><glyph unicode="Þ" horiz-adv-x="1116" d="M45 0v90h14q80 0 110 41t30 143v854q0 104-31 144.5t-115 40.5h-8v90h596v-90h-12q-80 0-111-40t-31-136v-23h170q428 0 428-381 0-203-111.5-301t-340.5-98q-78 0-146 8v-68q0-100 30-142t106-42h18v-90h-596zm442 432h64q98 0 158.5 77t60.5 204q0 145-46 223t-130 78q-107 0-107-111v-471z"/><glyph unicode="ß" horiz-adv-x="1118" d="M51 0v76q76 4 98.5 30.5t22.5 100.5v665h-121v95h121q20 223 130 343t292 120q164 0 273.5-99.5t109.5-245.5q0-180-152-260-25-14-65.5-24t-61-20.5-20.5-32.5q0-16 15.5-32t36-27 60-30.5 70.5-37.5q115-72 167-142.5t52-179.5q0-145-82-239.5t-200-94.5q-109 0-209 80l-31-45h-63v371l71-9q49-295 197-294 49 0 79.5 33.5t30.5 91.5q0 61-49 105t-172 116q-88 51-129 101t-41 132q0 88 94 178 88 84 91 88 43 82 43 205 0 102-36 158.5t-98 56.5q-82 0-114.5-70.5t-32.5-224.5v-1038h-377z"/><glyph unicode="à" horiz-adv-x="1042" d="M63 209q0 145 118 236.5t384 175.5v131q0 86-35.5 127t-113.5 41q-92 0-144-58 61-4 96-42t35-95q0-51-38.5-85t-98.5-34q-57 0-92 40t-35 112q0 111 91.5 178.5t252.5 67.5q186 0 264-72t78-236v-528q0-43 35-43 59 0 60 108v72h94v-119q0-96-56.5-152.5t-154.5-56.5q-74 0-121 33t-80 107q-115-139-285-140-115 0-184.5 64.5t-69.5 167.5zm132 1175q0 41 24.5 66t65.5 25q57 0 135-82l273-281h-91l-313 164q-51 27-72.5 49.5t-21.5 58.5zm139-1140q0-137 102-138 76 0 103.5 76t27.5 250v100q-233-55-233-288z"/><glyph unicode="á" horiz-adv-x="1042" d="M63 209q0 145 118 236.5t384 175.5v131q0 86-35.5 127t-113.5 41q-92 0-144-58 61-4 96-42t35-95q0-51-38.5-85t-98.5-34q-57 0-92 40t-35 112q0 111 91.5 178.5t252.5 67.5q186 0 264-72t78-236v-528q0-43 35-43 59 0 60 108v72h94v-119q0-96-56.5-152.5t-154.5-56.5q-74 0-121 33t-80 107q-115-139-285-140-115 0-184.5 64.5t-69.5 167.5zm240 903l273 281q78 82 135 82 41 0 65.5-25t24.5-66q0-37-21.5-59t-72.5-49l-313-164h-91zm31-868q0-137 102-138 76 0 103.5 76t27.5 250v100q-233-55-233-288z"/><glyph unicode="â" horiz-adv-x="1042" d="M63 209q0 145 118 236.5t384 175.5v131q0 86-35.5 127t-113.5 41q-92 0-144-58 61-4 96-42t35-95q0-51-38.5-85t-98.5-34q-57 0-92 40t-35 112q0 111 91.5 178.5t252.5 67.5q186 0 264-72t78-236v-528q0-43 35-43 59 0 60 108v72h94v-119q0-96-56.5-152.5t-154.5-56.5q-74 0-121 33t-80 107q-115-139-285-140-115 0-184.5 64.5t-69.5 167.5zm136 903l225 348h148l225-348h-84l-215 178-215-178h-84zm135-868q0-137 102-138 76 0 103.5 76t27.5 250v100q-233-55-233-288z"/><glyph unicode="ã" horiz-adv-x="1042" d="M63 209q0 145 118 236.5t384 175.5v131q0 86-35.5 127t-113.5 41q-92 0-144-58 61-4 96-42t35-95q0-51-38.5-85t-98.5-34q-57 0-92 40t-35 112q0 111 91.5 178.5t252.5 67.5q186 0 264-72t78-236v-528q0-43 35-43 59 0 60 108v72h94v-119q0-96-56.5-152.5t-154.5-56.5q-74 0-121 33t-80 107q-115-139-285-140-115 0-184.5 64.5t-69.5 167.5zm144 934q33 246 211 246 33 0 64-9l108-26q20-6 39-6 61 0 92 86h66q-14-119-68.5-183.5t-136.5-64.5q-16 0-57 8l-105 29q-31 8-57 8-59 0-90-88h-66zm127-899q0-137 102-138 76 0 103.5 76t27.5 250v100q-233-55-233-288z"/><glyph unicode="ä" horiz-adv-x="1042" d="M63 209q0 145 118 236.5t384 175.5v131q0 86-35.5 127t-113.5 41q-92 0-144-58 61-4 96-42t35-95q0-51-38.5-85t-98.5-34q-57 0-92 40t-35 112q0 111 91.5 178.5t252.5 67.5q186 0 264-72t78-236v-528q0-43 35-43 59 0 60 108v72h94v-119q0-96-56.5-152.5t-154.5-56.5q-74 0-121 33t-80 107q-115-139-285-140-115 0-184.5 64.5t-69.5 167.5zm132 1067q0 47 36 83t85 36 84-35 35-84q0-53-34-88t-85-35-86 36-35 87zm139-1032q0-137 102-138 76 0 103.5 76t27.5 250v100q-233-55-233-288zm225 1032q0 47 36 83t85 36 84-35 35-84q0-53-34-88t-85-35-86 36-35 87z"/><glyph unicode="å" horiz-adv-x="1042" d="M63 209q0 145 118 236.5t384 175.5v131q0 86-35.5 127t-113.5 41q-92 0-144-58 61-4 96-42t35-95q0-51-38.5-85t-98.5-34q-57 0-92 40t-35 112q0 111 91.5 178.5t252.5 67.5q186 0 264-72t78-236v-528q0-43 35-43 59 0 60 108v72h94v-119q0-96-56.5-153.5t-154.5-57.5q-138 1-201 142-115-139-285-140-115 0-184.5 64.5t-69.5 167.5zm175 1105.5q0 106.5 72.5 179.5t179 73 180-73 73.5-179.5-73.5-180-180-73.5-179 73.5-72.5 180zm96-1070.5q0-137 100-138 76 0 103.5 76t27.5 250v100q-113-27-172-100.5t-59-187.5zm22 1068.5q0-57.5 39-96t96.5-38.5 95.5 38.5 38 96-39 96.5-94 39q-57 0-96.5-39t-39.5-96.5z"/><glyph unicode="æ" horiz-adv-x="1429" d="M88 207q0 150 114.5 240t385.5 174v131q0 86-36 127t-114 41q-92 0-143-58 61-4 96-42t35-95q0-51-39-85t-98-34q-57 0-92 40t-35 112q0 111 90 178.5t250 67.5q184 0 278-82 117 82 221 82 164 0 267.5-140.5t103.5-378.5v-6h-524q-2-20-2-59 0-166 60.5-257t162.5-91q123 0 236 204l65-40q-119-264-364-265-207 0-320 168-156-168-332-168-121 0-193.5 64.5t-72.5 171.5zm266 37q0-137 103-138 76 0 103.5 76t27.5 250v100q-233-55-234-288zm494 329h258v48q0 299-115 299-59 0-97-89.5t-46-257.5z"/><glyph unicode="ç" horiz-adv-x="905" d="M57 485q0 229 125 372.5t320 143.5q141 0 234-77.5t93-188.5q0-78-37.5-125t-101.5-47q-61 0-99 45t-38 119q0 125 121 135-47 53-117 53-100 0-155.5-102t-55.5-293q0-459 199-459 168 0 223 273l84-15q-35-176-118-262t-224-86q-203 0-328 141.5t-125 372.5zm126-860l39 88q135-74 249-73 41 0 63.5 21.5t22.5 59.5q0 86-100 86-29 0-61-6v199h69v-113q33 6 66 7 86 0 136-46.5t50-123.5q0-86-59.5-133.5t-169.5-47.5q-104 0-305 82z"/><glyph unicode="è" horiz-adv-x="909" d="M53 475q0 233 150 395 121 131 278 131 164 0 267.5-139t103.5-377v-6h-524q-2-20-2-57 0-166 61.5-258t163.5-92q122-1 235 204l64-40q-121-268-367-269-166 0-288 135-141 158-142 373zm107 909q0 41 24.5 66t65.5 25q57 0 135-82l273-281h-91l-313 164q-51 27-72.5 49.5t-21.5 58.5zm168-811h258v48q0 299-115 299-59 0-97-89.5t-46-257.5z"/><glyph unicode="é" horiz-adv-x="909" d="M53 475q0 233 150 395 121 131 278 131 164 0 267.5-139t103.5-377v-6h-524q-2-20-2-57 0-166 61.5-258t163.5-92q122-1 235 204l64-40q-121-268-367-269-166 0-288 135-141 158-142 373zm215 637l273 281q78 82 135 82 41 0 65.5-25t24.5-66q0-37-21.5-59t-72.5-49l-313-164h-91zm60-539h258v48q0 299-115 299-59 0-97-89.5t-46-257.5z"/><glyph unicode="ê" horiz-adv-x="909" d="M53 475q0 233 150 395 121 131 278 131 164 0 267.5-139t103.5-377v-6h-524q-2-20-2-57 0-166 61.5-258t163.5-92q122-1 235 204l64-40q-121-268-367-269-166 0-288 135-141 158-142 373zm111 637l225 348h148l225-348h-84l-215 178-215-178h-84zm164-539h258v48q0 299-115 299-59 0-97-89.5t-46-257.5z"/><glyph unicode="ë" horiz-adv-x="909" d="M53 475q0 233 150 395 121 131 278 131 164 0 267.5-139t103.5-377v-6h-524q-2-20-2-57 0-166 61.5-258t163.5-92q122-1 235 204l64-40q-121-268-367-269-166 0-288 135-141 158-142 373zm107 801q0 47 36 83t85 36 84-35 35-84q0-53-34-88t-85-35-86 36-35 87zm168-703h258v48q0 299-115 299-59 0-97-89.5t-46-257.5zm196 703q0 47 36 83t85 36 84-35 35-84q0-53-34-88t-85-35-86 36-35 87z"/><glyph unicode="ì" horiz-adv-x="591" d="M-33 1384q0 41 24.5 66t65.5 25q57 0 135-82l273-281h-91l-313 164q-51 27-72.5 49.5t-21.5 58.5zm88-1384v86h6q68 0 91.5 32t23.5 113v525q0 74-23.5 102.5t-89.5 28.5h-8v86l385 14v-756q0-82 22.5-113.5t88.5-31.5h20v-86h-516z"/><glyph unicode="í" horiz-adv-x="591" d="M55 0v86h6q68 0 91.5 32t23.5 113v525q0 74-23.5 102.5t-89.5 28.5h-8v86l385 14v-756q0-82 22.5-113.5t88.5-31.5h20v-86h-516zm20 1112l273 281q78 82 135 82 41 0 65.5-25t24.5-66q0-37-21.5-59t-72.5-49l-313-164h-91z"/><glyph unicode="î" horiz-adv-x="591" d="M-29 1112l225 348h148l225-348h-84l-215 178-215-178h-84zm84-1112v86h6q68 0 91.5 32t23.5 113v525q0 74-23.5 102.5t-89.5 28.5h-8v86l385 14v-756q0-82 22.5-113.5t88.5-31.5h20v-86h-516z"/><glyph unicode="ï" horiz-adv-x="591" d="M-33 1276q0 47 36 83t85 36 84-35 35-84q0-53-34-88t-85-35-86 36-35 87zm88-1276v86h6q68 0 91.5 32t23.5 113v525q0 74-23.5 102.5t-89.5 28.5h-8v86l385 14v-756q0-82 22.5-113.5t88.5-31.5h20v-86h-516zm276 1276q0 47 36 83t85 36 84-35 35-84q0-53-34-88t-85-35-86 36-35 87z"/><glyph unicode="ð" horiz-adv-x="966" d="M57 485q0 233 136 381 57 61 132.5 98t137.5 37q29 0 82-16-37 104-76 162l-215-129-45 69 219 138q-63 96-104 151l63 43q72-55 145-133l222 133 45-76-203-120q313-336 313-717 0-240-121.5-387.5t-304.5-147.5q-178 0-302 144.5t-124 369.5zm289 0q0-219 33-323.5t104-104.5q74 0 106 103.5t32 325-32 325.5-106 104q-137 0-137-430z"/><glyph unicode="ñ" horiz-adv-x="1034" d="M45 0v86h6q68 0 91.5 32t23.5 113v525q0 74-23.5 102.5t-89.5 28.5h-8v86l363 14 2-156q84 164 243 164 129 0 185.5-80.5t56.5-255.5v-428q0-82 22.5-113.5t88.5-31.5h20v-86h-387v668q0 102-15.5 149t-54.5 47q-68 0-107.5-102.5t-39.5-296.5v-234q0-82 22.5-113.5t87.5-31.5h21v-86h-508zm182 1143q33 246 211 246 33 0 64-9l108-26q20-6 39-6 61 0 92 86h66q-14-119-68.5-183.5t-136.5-64.5q-16 0-57 8l-105 29q-31 8-57 8-59 0-90-88h-66z"/><glyph unicode="ò" horiz-adv-x="966" d="M57 485.5q0 225.5 124 369.5t302.5 144 302-144 123.5-369.5-123.5-370-302-144.5-302.5 144.5-124 370zm123 898.5q0 41 24.5 66t65.5 25q57 0 135-82l273-281h-91l-313 164q-51 27-72.5 49.5t-21.5 58.5zm166-899q0-428 137-428 74 0 106 103.5t32 325-32 325.5-106 104q-137 0-137-430z"/><glyph unicode="ó" horiz-adv-x="966" d="M57 485.5q0 225.5 124 369.5t302.5 144 302-144 123.5-369.5-123.5-370-302-144.5-302.5 144.5-124 370zm231 626.5l273 281q78 82 135 82 41 0 65.5-25t24.5-66q0-37-21.5-59t-72.5-49l-313-164h-91zm58-627q0-428 137-428 74 0 106 103.5t32 325-32 325.5-106 104q-137 0-137-430z"/><glyph unicode="ô" horiz-adv-x="966" d="M57 485.5q0 225.5 124 369.5t302.5 144 302-144 123.5-369.5-123.5-370-302-144.5-302.5 144.5-124 370zm127 626.5l225 348h148l225-348h-84l-215 178-215-178h-84zm162-627q0-428 137-428 74 0 106 103.5t32 325-32 325.5-106 104q-137 0-137-430z"/><glyph unicode="õ" horiz-adv-x="966" d="M57 485.5q0 225.5 124 369.5t302.5 144 302-144 123.5-369.5-123.5-370-302-144.5-302.5 144.5-124 370zm135 657.5q33 246 211 246 33 0 64-9l108-26q20-6 39-6 61 0 92 86h66q-14-119-68.5-183.5t-136.5-64.5q-16 0-57 8l-105 29q-31 8-57 8-59 0-90-88h-66zm154-658q0-428 137-428 74 0 106 103.5t32 325-32 325.5-106 104q-137 0-137-430z"/><glyph unicode="ö" horiz-adv-x="966" d="M57 485.5q0 225.5 124 369.5t302.5 144 302-144 123.5-369.5-123.5-370-302-144.5-302.5 144.5-124 370zm123 790.5q0 47 36 83t85 36 84-35 35-84q0-53-34-88t-85-35-86 36-35 87zm166-791q0-428 137-428 74 0 106 103.5t32 325-32 325.5-106 104q-137 0-137-430zm198 791q0 47 36 83t85 36 84-35 35-84q0-53-34-88t-85-35-86 36-35 87z"/><glyph unicode="÷" horiz-adv-x="1705" d="M254 512v199h1198v-199h-1198zm448-294.5q0 63.5 45.5 107.5t106.5 44 106.5-44 45.5-108q0-61-44-105t-107.5-44-108 43-44.5 106.5zm0 786q0 63.5 45.5 107.5t106.5 44 106.5-44 45.5-107q0-61-44-106.5t-107.5-45.5-108 44-44.5 107.5z"/><glyph unicode="ø" horiz-adv-x="966" d="M57-115l133 219q-133 154-133 381 0 225 124 369.5t302 144.5q106 0 209-65l94 151h103l-125-206q145-158 145-394 0-225-123.5-369.5t-302.5-144.5q-111 0-225 74l-98-160h-103zm283 619q0-44 4-146l258 424q-35 133-119 133-143 0-143-411zm18-287q37-160 125-160 143 0 144 404 0 76-6 182z"/><glyph unicode="ù" horiz-adv-x="1003" d="M0 887v86h387v-670q0-102 15.5-148t54.5-46q68 0 107.5 102t39.5 295v235q0 82-22.5 114t-87.5 32h-21v86h387v-758q0-74 23.5-101.5t89.5-27.5h8v-86h-363l-2 141q-86-166-243-166-129 0-185.5 82t-56.5 256v428q0 82-22.5 114t-88.5 32h-20zm199 497q0 41 24.5 66t65.5 25q57 0 135-82l273-281h-91l-313 164q-51 27-72.5 49.5t-21.5 58.5z"/><glyph unicode="ú" horiz-adv-x="1003" d="M0 887v86h387v-670q0-102 15.5-148t54.5-46q68 0 107.5 102t39.5 295v235q0 82-22.5 114t-87.5 32h-21v86h387v-758q0-74 23.5-101.5t89.5-27.5h8v-86h-363l-2 141q-86-166-243-166-129 0-185.5 82t-56.5 256v428q0 82-22.5 114t-88.5 32h-20zm307 225l273 281q78 82 135 82 41 0 65.5-25t24.5-66q0-37-21.5-59t-72.5-49l-313-164h-91z"/><glyph unicode="û" horiz-adv-x="1003" d="M0 887v86h387v-670q0-102 15.5-148t54.5-46q68 0 107.5 102t39.5 295v235q0 82-22.5 114t-87.5 32h-21v86h387v-758q0-74 23.5-101.5t89.5-27.5h8v-86h-363l-2 141q-86-166-243-166-129 0-185.5 82t-56.5 256v428q0 82-22.5 114t-88.5 32h-20zm203 225l225 348h148l225-348h-84l-215 178-215-178h-84z"/><glyph unicode="ü" horiz-adv-x="1003" d="M0 887v86h387v-670q0-102 15.5-148t54.5-46q68 0 107.5 102t39.5 295v235q0 82-22.5 114t-87.5 32h-21v86h387v-758q0-74 23.5-101.5t89.5-27.5h8v-86h-363l-2 141q-86-166-243-166-129 0-185.5 82t-56.5 256v428q0 82-22.5 114t-88.5 32h-20zm199 389q0 47 36 83t85 36 84-35 35-84q0-53-34-88t-85-35-86 36-35 87zm364 0q0 47 36 83t85 36 84-35 35-84q0-53-34-88t-85-35-86 36-35 87z"/><glyph unicode="ý" horiz-adv-x="874" d="M-53 889v84h510v-84q-98 0-99-62 0-25 13-61l141-457 147 461q10 31 11 57 0 33-22.5 45.5t-80.5 16.5v84h322v-84h-15q-78 0-110-96l-315-934q-43-129-99.5-189.5t-146.5-60.5q-86 0-149.5 64.5t-63.5 152.5q0 74 35.5 119t95.5 45q57 0 94-43t37-113q0-98-84-123 25-10 43-10 100 0 160 252l-283 835q-33 100-141 101zm296 223l273 281q78 82 135 82 41 0 65.5-25t24.5-66q0-37-21.5-59t-72.5-49l-313-164h-91z"/><glyph unicode="þ" horiz-adv-x="1017" d="M27-285h6q68 0 91 32t23 114v1327q0 74-23.5 102.5t-88.5 28.5h-8v84l376 16v-557q76 135 199 135 145 0 252-144t107-367.5-106.5-367-252.5-143.5q-113 0-199 121v-190q0-109 30-150t120-41h22v-86h-548v86zm376 772.5q0-182.5 40-283t102-100.5q125 0 125 383t-125 383q-61 0-101.5-100t-40.5-282.5z"/><glyph unicode="ÿ" horiz-adv-x="874" d="M-53 889v84h510v-84q-98 0-99-62 0-25 13-61l141-457 147 461q10 31 11 57 0 33-22.5 45.5t-80.5 16.5v84h322v-84h-15q-78 0-110-96l-315-934q-43-129-99.5-189.5t-146.5-60.5q-86 0-149.5 64.5t-63.5 152.5q0 74 35.5 119t95.5 45q57 0 94-43t37-113q0-98-84-123 25-10 43-10 100 0 160 252l-283 835q-33 100-141 101zm188 387q0 47 36 83t85 36 84-35 35-84q0-53-34-88t-85-35-86 36-35 87zm364 0q0 47 36 83t85 36 84-35 35-84q0-53-34-88t-85-35-86 36-35 87z"/><glyph unicode="Œ" horiz-adv-x="1816" d="M61.5 702.5q-.5 327.5 180.5 544.5 154 188 366 189 106 0 226-33h868v-496h-68q-47 205-137 302.5t-235 97.5q-76 0-111-28t-35-89v-402h17q104 0 159.5 56.5t77.5 181.5h76v-569h-76q-23 125-78 181t-159 56h-17v-481q0-61 35-89t113-28q143 0 253.5 121t147.5 332h72l-13-549h-890q-135-33-226-33-211 0-366 191-180 217-180.5 544.5zm321.5-2.5q0-324 58.5-481.5t185.5-157.5q207 1 207 316v653q0 311-207 311-127 0-185.5-156.5t-58.5-484.5z"/><glyph unicode="œ" horiz-adv-x="1468" d="M57 485.5q0 225.5 124 369.5t302 144q186 0 277-149 104 150 276 149 166 0 270.5-138t104.5-376v-6h-526q-2-20-2-57 0-166 61.5-258t163.5-92q123 0 235 204l64-40q-119-264-367-265-178 1-280 146-90-145-277-146-178 0-302 144.5t-124 370zm289-.5q0-428 137-428 74 0 106 103.5t32 325-32 328-106 106.5q-137 0-137-435zm539 88h258v48q0 299-115 299-59 0-97-89.5t-46-257.5z"/><glyph unicode="Ÿ" horiz-adv-x="1073" d="M-45 1315v88h596v-88q-63-6-90-23.5t-27-56.5q0-41 12-66l191-417 162 391q20 49 20 92t-32.5 59.5-110.5 20.5v88h401v-88q-57-2-90-20.5t-42-35-27-63.5l-236-592v-332q0-102 30.5-143t110.5-41h13v-90h-596v90h14q80 0 109.5 41t29.5 143v308l-282 628q-29 63-50 78-31 23-106 29zm279 397q0 47 36 83t85 36 84-35 35-84q0-53-34-88t-85-35-86 36-35 87zm364 0q0 47 36 83t85 36 84-35 35-84q0-53-34-88t-85-35-86 36-35 87z"/><glyph unicode="ˆ" horiz-adv-x="1024" d="M213 1112l225 348h148l225-348h-84l-215 178-215-178h-84z"/><glyph unicode="˜" horiz-adv-x="1024" d="M221 1143q33 246 211 246 33 0 64-9l108-26q20-6 39-6 61 0 92 86h66q-14-119-68.5-183.5t-136.5-64.5q-16 0-57 8l-105 29q-31 8-57 8-59 0-90-88h-66z"/><glyph horiz-adv-x="986"/><glyph horiz-adv-x="1972"/><glyph horiz-adv-x="986"/><glyph horiz-adv-x="1972"/><glyph horiz-adv-x="657"/><glyph horiz-adv-x="493"/><glyph horiz-adv-x="328"/><glyph horiz-adv-x="328"/><glyph horiz-adv-x="246"/><glyph horiz-adv-x="394"/><glyph horiz-adv-x="109"/><glyph unicode="‐" horiz-adv-x="618" d="M57 365v231h504v-231h-504z"/><glyph unicode="‑" horiz-adv-x="618" d="M57 365v231h504v-231h-504z"/><glyph unicode="‒" horiz-adv-x="618" d="M57 365v231h504v-231h-504z"/><glyph unicode="–" horiz-adv-x="1024" d="M0 393v172h1024v-172h-1024z"/><glyph unicode="—" horiz-adv-x="2048" d="M0 393v172h2048v-172h-2048z"/><glyph unicode="‘" horiz-adv-x="483" d="M84 932q0 147 62.5 283.5t166.5 220.5l60-58q-164-171-166-321 10 2 29 2 68 0 109.5-46t41.5-122q0-74-44-124t-105-50q-70 0-112 56t-42 159z"/><glyph unicode="’" horiz-adv-x="483" d="M96 1264q0 74 44 124t106 50q70 0 111.5-56.5t41.5-158.5q0-147-62.5-283.5t-166.5-220.5l-59 55q161 172 165 324-10-2-28-2-68 0-110 46t-42 122z"/><glyph unicode="‚" horiz-adv-x="483" d="M96 139q0 74 44 125t106 51q70 0 111.5-56t41.5-159q0-150-62.5-286t-166.5-220l-59 58q163 171 165 321-10-2-28-2-68 0-110 46t-42 122z"/><glyph unicode="“" horiz-adv-x="886" d="M82 936q0 141 63.5 279.5t167.5 220.5l60-58q-164-171-166-321 10 2 29 2 68 0 109.5-46t41.5-122q0-74-44-124t-105-50q-70 0-113 58.5t-43 160.5zm418 0q0 141 63.5 279.5t167.5 220.5l60-58q-160-169-164-321 10 2 28 2 68 0 110-46t42-122q0-74-45-124t-107-50q-70 0-112.5 58.5t-42.5 160.5z"/><glyph unicode="”" horiz-adv-x="886" d="M82 1264q0 74 44 124t105 50q70 0 113-58.5t43-160.5q0-141-63.5-279.5t-167.5-220.5l-60 55q162 172 166 324-10-2-29-2-68 0-109.5 46t-41.5 122zm418 0q0 74 45 124t106 50q70 0 112-58.5t42-160.5q0-141-63.5-279.5t-168.5-220.5l-59 55q162 172 166 324-10-2-29-2-68 0-109.5 46t-41.5 122z"/><glyph unicode="„" horiz-adv-x="886" d="M82 139q0 74 44 125t105 51q70 0 113-59t43-162q0-141-63.5-279.5t-167.5-220.5l-60 58q164 171 166 321-10-2-29-2-68 0-109.5 46t-41.5 122zm418 0q0 74 45 125t106 51q70 0 112-59t42-162q0-141-63.5-279.5t-168.5-220.5l-59 58q164 171 166 321-10-2-29-2-68 0-109.5 46t-41.5 122z"/><glyph unicode="•" horiz-adv-x="1208" d="M307 762q0 123 87 209t210 86q121 0 208-86t87-209q0-121-87-209t-210-88-209 87-86 210z"/><glyph unicode="…" horiz-adv-x="2048" d="M197 149.5q0 73.5 43 125t102 51.5q61 0 104-50.5t43-126-44-127-103-51.5q-57 0-101 52.5t-44 126zm682 0q0 73.5 43 125t102 51.5q61 0 104-50.5t43-126-44-127-103-51.5q-57 0-101 52.5t-44 126zm684 0q0 73.5 43 125t102 51.5q61 0 104-50.5t43-126-44-127-103-51.5q-57 0-101 52.5t-44 126z"/><glyph horiz-adv-x="394"/><glyph unicode="‹" horiz-adv-x="464" d="M59 485q96 109 168 221.5t100.5 164 45.5 51.5q31 0 30-41 0-78-127-396 127-315 127-393 0-43-30-43-16 0-45 51.5t-101 163.5-168 221z"/><glyph unicode="›" horiz-adv-x="464" d="M61 92q0 84 125 395-125 309-125 394 0 41 29 41 16 0 45-51.5t102-164 169-221.5q-96-109-169-221t-102-163.5-45-51.5q-29 0-29 43z"/><glyph horiz-adv-x="493"/><glyph unicode="™" horiz-adv-x="1683" d="M225 1262l13 192h450l12-192h-32q-14 152-131 151h-7v-420q0-45 35-51l31-4v-33h-266v33l30 4q35 6 35 51v420h-10q-59 0-89-36t-38-115h-33zm533-357v33l35 4q37 6 36 51v373q0 45-36 51l-35 4v33h211l131-369 129 369h198v-27l-26-4q-37-6-37-51v-379q0-45 37-51l26-4v-33h-253v33l30 4q37 6 37 51v365l-156-455h-36l-166 463v-373q0-45 37-51l34-4v-33h-196z"/><glyph unicode="" horiz-adv-x="972" d="M0 0v973h973v-973h-973z"/><glyph unicode="ﬁ" horiz-adv-x="1087" d="M10 874v99h158q-2 18-2 55 0 186 108.5 297t284.5 111q145 0 245.5-71t100.5-161q0-59-34.5-96t-92.5-37q-55 0-92 38t-37 93q0 47 28 79t75 40q-51 39-119 39-209 0-209-283v-104h528v-742q0-82 22.5-113.5t88.5-31.5h20v-86h-497v86q63 0 86.5 33t23.5 112v512q0 76-25.5 103.5t-95.5 27.5h-151v-643q0-82 21.5-113.5t82.5-31.5h13v-86h-502v86h14q66 0 90.5 32t24.5 113v643h-158z"/><glyph unicode="ﬂ" horiz-adv-x="1087" d="M10 874v99h158q-2 23-2 65 0 186 89 293t237 107q74 0 178-33l282 31v-1205q0-82 22.5-113.5t88.5-31.5h20v-86h-481v86q55 6 74.5 38t19.5 107v844q-72 25-71 129 0 61 43 107-41 45-111 45-72 0-102.5-43t-30.5-133v-207h154v-99h-154v-643q0-84 23.5-115.5t91.5-31.5q4 0 14 1t16 1v-86h-544v86h24q70 0 94.5 32t24.5 113v643h-158z"/></font>
</defs>
</svg>
