<?xml version="1.0" standalone="no"?>
<!DOCTYPE svg PUBLIC "-//W3C//DTD SVG 1.1//EN" "http://www.w3.org/Graphics/SVG/1.1/DTD/svg11.dtd" >
<svg xmlns="http://www.w3.org/2000/svg">
<metadata></metadata>
<defs>
<font id="itc_centurybookcondensed" horiz-adv-x="1024" >
<font-face units-per-em="2048" ascent="1638" descent="-410" />
<missing-glyph horiz-adv-x="454" />
<glyph horiz-adv-x="2048" />
<glyph horiz-adv-x="2048" />
<glyph unicode="&#xd;" horiz-adv-x="681" />
<glyph unicode=" "  horiz-adv-x="454" />
<glyph unicode="&#x09;" horiz-adv-x="454" />
<glyph unicode="&#xa0;" horiz-adv-x="454" />
<glyph unicode="!" horiz-adv-x="497" d="M137 119q0 59 32 101t73 42q43 0 73.5 -41t30.5 -102q0 -59 -31.5 -100.5t-72.5 -41.5q-39 0 -72 42.5t-33 99.5zM147 1266q0 90 23 130t78 40t77.5 -40t22.5 -130q0 -51 -2 -76l-67 -791h-62l-67 791q-2 25 -3 76z" />
<glyph unicode="&#x22;" horiz-adv-x="677" d="M90 1362q0 100 84 100q86 0 86 -100q0 -8 -4 -41l-66 -457h-32l-64 457q-4 29 -4 41zM418 1360q0 102 86 102q84 0 84 -100q0 -25 -2 -41l-68 -457h-31l-65 457q-4 29 -4 39z" />
<glyph unicode="#" horiz-adv-x="1574" d="M104 467l43 115h322l100 286h-348l43 115h348l166 473h133l-168 -473h287l168 473h131l-166 -473h307l-40 -115h-310l-100 -286h332l-43 -115h-330l-166 -469h-133l166 469h-287l-166 -469h-131l166 469h-324zM600 582h289l102 286h-291z" />
<glyph unicode="$" horiz-adv-x="909" d="M82 408q0 66 28.5 106.5t75.5 40.5q41 0 68 -34t27 -89q0 -57 -25 -90t-68 -33q-12 0 -20 2q20 -94 82.5 -144t157.5 -50v551q-268 152 -269 397q0 145 76 243.5t193 108.5v182h81v-184q115 -4 184.5 -76.5t69.5 -183.5q0 -135 -96 -135q-37 0 -61.5 29.5t-24.5 78.5 q0 51 22.5 81t63.5 30h10q-41 98 -168 98v-471q160 -92 232 -192.5t72 -241.5q0 -152 -86 -265.5t-218 -129.5v-154h-81v152q-145 14 -235.5 118.5t-90.5 254.5zM266 1135q1 -125 142 -213v415q-66 -10 -104 -65t-38 -137zM489 119q76 12 119 77.5t43 168.5q0 151 -162 249 v-495z" />
<glyph unicode="%" horiz-adv-x="1134" d="M16 1104q0 145 75 238.5t181.5 93.5t181 -94.5t74.5 -237.5t-74.5 -237.5t-181.5 -94.5q-104 0 -180 94.5t-76 237.5zM111 -33l790 1469h123l-791 -1469h-122zM160 1106q0 -143 25.5 -210t87 -67t86 66t24.5 211q0 147 -23.5 211.5t-87.5 64.5q-61 0 -86.5 -66.5 t-25.5 -209.5zM606 299q0 145 75 238.5t181.5 93.5t181 -94.5t74.5 -237.5t-74.5 -237.5t-181.5 -94.5q-104 0 -180 94.5t-76 237.5zM750 297q0 -143 25.5 -210t87 -67t86 66t24.5 211q0 147 -24.5 212.5t-86 65.5t-87 -66.5t-25.5 -211.5z" />
<glyph unicode="&#x26;" horiz-adv-x="1251" d="M45 352q0 250 313 402q-98 190 -98 346q0 147 89 241.5t226 94.5q123 0 204 -78t81 -195q0 -104 -73.5 -194t-231.5 -195q117 -252 272 -483q82 131 82 252q0 166 -151 166h-13v65h439v-65h-10q-66 0 -95.5 -23.5t-54.5 -85.5q-10 -29 -33.5 -110.5t-49.5 -144 t-67 -118.5q68 -115 142 -114q117 0 117 225v10h71q0 -8 1 -25.5t1 -23.5q0 -158 -62.5 -242t-176.5 -84q-127 1 -213 101q-127 -115 -308 -115q-168 0 -284.5 114.5t-116.5 278.5zM246 391q0 -152 77.5 -247t190.5 -95q109 0 191 88q-209 285 -316 545q-143 -88 -143 -291z M432 1176q0 -115 96 -330q98 68 143.5 142.5t45.5 172.5q0 92 -38 144.5t-106 52.5q-61 0 -101 -49t-40 -133z" />
<glyph unicode="'" horiz-adv-x="348" d="M90 1360q0 102 84 102q86 0 86 -100q0 -8 -4 -41l-66 -457h-32l-66 457q-2 14 -2 39z" />
<glyph unicode="(" horiz-adv-x="735" d="M129 516q0 532 285 805q111 109 274 115v-72q-154 -6 -262.5 -237.5t-108.5 -610.5q0 -377 109.5 -608.5t261.5 -235.5v-75q-164 10 -274 114q-285 274 -285 805z" />
<glyph unicode=")" horiz-adv-x="735" d="M25 -328q152 4 260 234.5t108 609.5t-107.5 610.5t-260.5 237.5v72q164 -6 274 -115q283 -270 283 -805q0 -530 -285 -805q-113 -106 -272 -114v75z" />
<glyph unicode="*" d="M137 854q0 90 150 102q125 10 192 62q-18 14 -39.5 23.5t-37 15.5t-40 10t-36 6t-40 5t-36.5 3q-53 4 -83 32t-30 69q0 37 24.5 63.5t61.5 26.5q16 0 30.5 -5t24 -9.5t22.5 -18.5t18.5 -20.5t19.5 -27t18 -26.5q58 -80 142 -123v15q0 74 -39 166t-39 120q0 37 25.5 63 t66.5 26q90 0 90 -89q0 -27 -37 -116.5t-37 -165.5v-21q86 47 138 123q31 43 42 57.5t37.5 33t57.5 18.5q33 0 58.5 -30t25.5 -64q0 -37 -32 -65t-73 -32q-4 0 -31.5 -3t-32.5 -3t-29.5 -3t-32 -6t-27 -7t-30.5 -10.5t-26.5 -14.5t-27.5 -18q25 -16 48 -27.5t53 -17.5t41 -8 t50 -5l37 -4q51 -4 82 -32.5t31 -71.5q0 -35 -28 -62.5t-62 -27.5q-20 0 -37 7t-36 27.5t-26.5 30t-31.5 43.5q-61 82 -140 121v-14q0 -76 38 -166t38 -115q0 -43 -23.5 -67.5t-66.5 -24.5t-67.5 23.5t-24.5 64.5q0 29 38 116t38 163v24q-78 -45 -138 -125q-29 -39 -44 -56 t-38.5 -32.5t-50.5 -15.5q-37 0 -62.5 25.5t-25.5 64.5z" />
<glyph unicode="+" horiz-adv-x="1705" d="M254 553v117h541v551h118v-551h539v-117h-539v-553h-118v553h-541z" />
<glyph unicode="," horiz-adv-x="454" d="M121 -367q117 175 135 351q-18 -6 -35 -7q-43 0 -70.5 38t-27.5 104q0 68 27.5 105.5t76.5 37.5q117 0 117 -188q0 -250 -164 -494z" />
<glyph unicode="-" horiz-adv-x="569" d="M86 455v161h401v-161h-401z" />
<glyph unicode="." horiz-adv-x="454" d="M123 119q0 59 31.5 101t72.5 42q43 0 74 -41t31 -102q0 -59 -32 -100.5t-73 -41.5q-39 0 -71.5 42.5t-32.5 99.5z" />
<glyph unicode="/" horiz-adv-x="569" d="M-47 -190l547 1626h116l-546 -1626h-117z" />
<glyph unicode="0" horiz-adv-x="909" d="M74 702.5q0 327.5 112.5 530.5t268 203t269.5 -203t114 -530.5t-114 -531.5t-269 -204q-154 0 -267.5 204t-113.5 531.5zM272 702q0 -342 41 -498.5t141.5 -156.5t141.5 156.5t41 498.5q0 344 -40 499t-142 155q-100 0 -141.5 -156t-41.5 -498z" />
<glyph unicode="1" horiz-adv-x="909" d="M176 0v78h25q96 0 130 41t34 149v873q0 100 -97 100h-61v70q166 2 305 125h35v-1168q0 -109 32.5 -149.5t125.5 -40.5h30v-78h-559z" />
<glyph unicode="2" horiz-adv-x="909" d="M76 0v121q78 211 272 454q33 41 69 83t57.5 67t29.5 39q82 129 82 289q0 143 -52.5 220t-144.5 77q-90 0 -154.5 -68t-68.5 -172q20 14 49 14q37 0 62.5 -37.5t25.5 -97.5q0 -61 -26.5 -96t-69.5 -35q-117 0 -117 186q0 176 94.5 285t243.5 109q156 0 255 -105.5 t99 -277.5q0 -115 -39 -191q-20 -43 -59 -90t-65.5 -73.5t-95 -89t-91.5 -83.5q-150 -141 -262 -358h287q139 0 199.5 72.5t70.5 240.5h57l-16 -483h-692z" />
<glyph unicode="3" horiz-adv-x="909" d="M66 309q0 184 112 185q45 0 71.5 -33t26.5 -90q0 -55 -26.5 -88t-69.5 -33q-23 0 -41 12q6 -100 68.5 -158.5t159.5 -58.5q121 0 186 91t65 265q0 152 -49 223.5t-151 71.5q-12 0 -37 -3t-35 -3q-84 0 -84 39t76 39q16 0 38.5 -3t29.5 -3q82 0 137 76.5t55 199.5 q0 152 -56.5 236t-152.5 84q-94 0 -156.5 -60.5t-66.5 -156.5q18 12 43 12q43 0 68.5 -33t25.5 -90t-26.5 -90t-71.5 -33q-113 0 -113 187q0 150 92 246t236 96q162 0 260 -97.5t98 -261.5q0 -248 -241 -336q137 -39 201.5 -122.5t64.5 -225.5q0 -182 -117 -304t-287 -122 q-150 0 -241.5 94.5t-91.5 247.5z" />
<glyph unicode="4" horiz-adv-x="909" d="M74 371v104l510 961h108v-961h168v-104h-168v-172q0 -72 22.5 -94.5t116.5 -28.5v-76h-491v76q96 4 133 29.5t37 91.5v174h-436zM162 475h348v655z" />
<glyph unicode="5" horiz-adv-x="909" d="M76 309q0 184 112 185q45 0 72 -33t27 -90.5t-25.5 -89t-68.5 -31.5q-25 0 -43 12q4 -98 66.5 -157.5t154.5 -59.5q133 0 196.5 97.5t63.5 299.5q0 180 -62.5 278.5t-171.5 98.5q-76 0 -130 -47t-74 -133q-2 -4 -3.5 -11t-2.5 -11.5t-3 -9.5t-3 -7l-3 -6t-4 -5t-5 -3 t-7 -2h-8q-33 0 -33 45q0 14 2 36.5t6 58.5t6 64l45 642q145 -57 314 -58q104 0 282 60q-14 -250 -332 -250q-108 -1 -208 24l-37 -413q96 115 227 114q174 0 288.5 -129t114.5 -338q0 -213 -118.5 -343t-300.5 -130q-150 0 -242 94.5t-92 247.5z" />
<glyph unicode="6" horiz-adv-x="909" d="M92 674q0 352 123 558t303 206q109 0 177.5 -73t68.5 -187q0 -61 -29.5 -98.5t-75.5 -37.5q-43 0 -72.5 37t-29.5 95q0 53 24.5 86.5t57.5 33.5q6 0 23 -4q-41 74 -136 74q-240 0 -239 -571v-56q117 162 235 162q133 0 231.5 -125t98.5 -313q0 -221 -102.5 -357.5 t-257.5 -136.5q-176 0 -288 187.5t-112 519.5zM295 434q0 -180 53 -281.5t137 -101.5q166 0 166 383t-166 383q-84 0 -137 -101.5t-53 -281.5z" />
<glyph unicode="7" horiz-adv-x="909" d="M141 895l21 508h684v-119q-315 -514 -316 -1055q0 -43 2.5 -93t2.5 -60q0 -102 -91 -103q-102 0 -102 181q0 238 98.5 481.5t307.5 605.5h-265q-145 0 -205.5 -73.5t-82.5 -272.5h-54z" />
<glyph unicode="8" horiz-adv-x="909" d="M70 324q0 233 262 378q-223 129 -223 363q0 158 105 265.5t257 107.5q145 0 239.5 -95.5t94.5 -236.5q0 -188 -209 -344q244 -127 244 -387q0 -184 -108.5 -296t-289.5 -112q-168 0 -270 100.5t-102 256.5zM201 324q0 -133 68.5 -209t189.5 -76q100 0 162.5 71.5 t62.5 188.5q0 119 -65.5 201.5t-210.5 158.5q-94 -31 -150.5 -120.5t-56.5 -214.5zM250 1124q0 -100 64.5 -175.5t207.5 -147.5q147 104 148 286q0 125 -59.5 199t-154 74t-150.5 -63.5t-56 -172.5z" />
<glyph unicode="9" horiz-adv-x="909" d="M63 944q0 221 102.5 357.5t258.5 136.5q176 0 287.5 -187.5t111.5 -519.5q0 -356 -124 -561t-316 -205q-123 0 -206 89t-83 225q0 172 109 172q45 0 72.5 -34t27.5 -91.5t-26.5 -91t-69.5 -33.5q-23 0 -43 14q4 -78 61.5 -127t136.5 -49q147 0 207 143.5t60 466.5v19 q-117 -162 -236 -162q-133 0 -231.5 125t-98.5 313zM264 971q0 -383 166 -383q84 0 137.5 101.5t53.5 281.5t-53.5 281.5t-137.5 101.5q-166 0 -166 -383z" />
<glyph unicode=":" horiz-adv-x="454" d="M123 119q0 59 31.5 101t72.5 42q43 0 74 -41t31 -102q0 -59 -32 -100.5t-73 -41.5q-39 0 -71.5 42.5t-32.5 99.5zM123 854q0 59 31.5 100t72.5 41q43 0 74 -41t31 -100t-33 -101t-72 -42t-71.5 43t-32.5 100z" />
<glyph unicode=";" horiz-adv-x="454" d="M121 -367q117 175 135 351q-18 -6 -35 -7q-43 0 -70.5 38t-27.5 104q0 68 27.5 105.5t76.5 37.5q117 0 117 -188q0 -250 -164 -494zM123 854q0 59 31.5 100t72.5 41q43 0 74 -41t31 -100t-33 -101t-72 -42t-71.5 43t-32.5 100z" />
<glyph unicode="&#x3c;" horiz-adv-x="1705" d="M264 559v103l1178 483v-127l-1000 -408l1000 -405v-129z" />
<glyph unicode="=" horiz-adv-x="1705" d="M254 360v117h1198v-117h-1198zM254 743v117h1198v-117h-1198z" />
<glyph unicode="&#x3e;" horiz-adv-x="1705" d="M264 76v129l1000 405l-1000 408v127l1178 -483v-103z" />
<glyph unicode="?" horiz-adv-x="749" d="M66 1100q0 143 89 239.5t214 96.5q141 0 233 -90.5t92 -231.5q0 -53 -9 -96t-39 -88t-45 -65.5t-66.5 -74t-65.5 -69.5q-49 -55 -70.5 -107.5t-21.5 -136.5q0 -35 2 -55h-74q-2 23 -2 65q0 170 113 318q37 49 54 78.5t32.5 87t15.5 135.5q0 119 -46 181.5t-132 62.5 q-74 0 -129 -52.5t-55 -119.5v-4q8 2 26 2q94 0 94 -127q0 -57 -26.5 -92t-71.5 -35q-113 0 -112 178zM246 119q0 59 31.5 101t72.5 42q43 0 74 -41t31 -102q0 -59 -32 -100.5t-73 -41.5q-39 0 -71.5 42.5t-32.5 99.5z" />
<glyph unicode="@" horiz-adv-x="2019" d="M145 537q0 418 336 694q264 221 635 221q346 0 553 -187.5t207 -498.5q0 -158 -58.5 -297t-162.5 -236q-117 -109 -258 -108q-195 0 -207 211q-123 -211 -309 -211q-125 0 -201 92t-76 244q0 229 187 409q139 135 299 136q178 0 221 -195l53 180h143l-170 -610 q-18 -63 -18 -109q0 -47 25.5 -74.5t68.5 -27.5q78 0 164 66q252 186 252 546q0 276 -203 455q-188 166 -483 166q-373 0 -617 -234q-264 -254 -264 -663q0 -336 238 -539q231 -197 581 -196q328 0 613 206l30 -36q-299 -221 -655 -222q-377 0 -616 185q-307 231 -308 633z M750 375q0 -94 40.5 -147.5t108.5 -53.5q131 0 242 178q125 203 125 400q0 94 -47 153.5t-121 59.5q-102 0 -191 -131q-74 -111 -115.5 -237t-41.5 -222z" />
<glyph unicode="A" horiz-adv-x="1056" d="M-72 0v66h15q117 0 163 145l392 1227h55l414 -1227q29 -86 54.5 -115.5t90.5 -29.5h21v-66h-512v66q139 0 139 77q0 37 -10 68l-82 254h-394l-63 -203q-16 -53 -16 -82q0 -114 154 -114h3h8v-66h-432zM301 551h338l-170 520z" />
<glyph unicode="B" horiz-adv-x="1161" d="M66 0v66h8q80 0 108.5 31.5t28.5 113.5v981q0 82 -28.5 113.5t-108.5 31.5h-8v66h454q498 0 498 -342q0 -121 -73 -204t-210 -116q174 -41 257 -127t83 -231q0 -176 -117.5 -279.5t-328.5 -103.5h-563zM406 209q0 -80 30.5 -110.5t114.5 -30.5q141 0 219 85t78 240.5 t-79 236.5t-228 81h-135v-502zM406 774h135q117 0 182 76t65 215q0 129 -64.5 199.5t-178.5 70.5q-82 0 -110.5 -21.5t-28.5 -82.5v-457z" />
<glyph unicode="C" horiz-adv-x="1142" d="M82 702q0 326 170 545q147 188 350 189q117 0 213 -66q8 -4 28.5 -20.5t33 -21.5t26.5 -5q39 0 64 80h61v-535h-72q-35 238 -126 361t-228 123q-154 0 -223.5 -160t-69.5 -492q0 -336 70 -492.5t233 -156.5q160 0 251 135.5t98 388.5h86q-2 -291 -121 -449.5t-324 -158.5 q-201 0 -350 191q-170 215 -170 544z" />
<glyph unicode="D" horiz-adv-x="1224" d="M66 0v66h8q80 0 108.5 31.5t28.5 113.5v981q0 82 -28.5 113.5t-108.5 31.5h-8v66h434q127 0 215 -19.5t168 -78.5q266 -199 266 -602.5t-266 -602.5q-80 -59 -168 -79.5t-215 -20.5h-434zM406 229q0 -90 27.5 -123.5t113.5 -33.5q201 0 288 152.5t87 478t-87 477 t-288 151.5q-86 0 -113.5 -33.5t-27.5 -123.5v-945z" />
<glyph unicode="E" horiz-adv-x="1157" d="M66 0v66h8q80 0 108.5 31.5t28.5 113.5v981q0 82 -28.5 113.5t-108.5 31.5h-8v66h954v-520h-64q-29 227 -128 337.5t-279 110.5q-88 0 -115.5 -33.5t-27.5 -123.5v-396h63q94 0 150.5 65.5t56.5 184.5h55v-565h-55q-6 111 -60.5 174t-134.5 63h-75v-471 q0 -90 27.5 -123.5t115.5 -33.5q197 0 301 120.5t133 376.5h61v-569h-978z" />
<glyph unicode="F" horiz-adv-x="1052" d="M66 0v66h8q80 0 108.5 31.5t28.5 113.5v981q0 82 -28.5 113.5t-108.5 31.5h-8v66h954v-520h-64q-29 227 -128 337.5t-279 110.5q-88 0 -115.5 -33.5t-27.5 -123.5v-396h63q94 0 150.5 65.5t56.5 184.5h55v-565h-55q-6 111 -60.5 174t-134.5 63h-75v-489 q0 -82 28.5 -113.5t108.5 -31.5h8v-66h-485z" />
<glyph unicode="G" horiz-adv-x="1171" d="M82 702q0 326 170 545q147 188 352 189q106 0 195 -66q8 -6 21.5 -17.5t20.5 -16.5t17 -9t21 -4q39 0 59 80h57v-535h-65q-33 238 -117 361t-209 123q-156 0 -225.5 -159t-69.5 -493q0 -649 279 -649q88 0 149.5 73t61.5 183v187q0 82 -38 113.5t-132 31.5h-23v68h531 v-68h-9q-78 0 -106.5 -32t-28.5 -113v-494h-59q-25 84 -64 84q-14 0 -26.5 -6t-32.5 -23.5t-27 -21.5q-84 -66 -192 -66q-190 0 -340 191q-170 215 -170 544z" />
<glyph unicode="H" horiz-adv-x="1239" d="M66 0v66h8q80 0 108.5 31.5t28.5 113.5v981q0 82 -28.5 113.5t-108.5 31.5h-8v66h485v-66h-8q-80 0 -108.5 -31.5t-28.5 -113.5v-410h428v410q0 82 -29 113.5t-107 31.5h-8v66h484v-66h-9q-80 0 -108.5 -31.5t-28.5 -113.5v-981q0 -82 28.5 -113.5t108.5 -31.5h9v-66 h-484v66h8q78 0 107 31.5t29 113.5v494h-428v-494q0 -82 28.5 -113.5t108.5 -31.5h8v-66h-485z" />
<glyph unicode="I" horiz-adv-x="620" d="M66 0v66h8q80 0 108.5 31.5t28.5 113.5v981q0 82 -28.5 113.5t-108.5 31.5h-8v66h489v-66h-8q-80 0 -108.5 -31.5t-28.5 -113.5v-981q0 -82 28.5 -113.5t108.5 -31.5h8v-66h-489z" />
<glyph unicode="J" horiz-adv-x="847" d="M53 274q0 86 37 139.5t88 53.5q43 0 77 -40t34 -97q0 -66 -28 -104t-73 -38q-25 0 -38 19q2 -74 52 -119t130 -45t116.5 56.5t36.5 174.5v918q0 82 -28.5 113.5t-108.5 31.5h-8v66h485v-66h-8q-78 0 -106.5 -31.5t-28.5 -113.5v-793q0 -219 -78 -325.5t-242 -106.5 q-139 0 -224 86t-85 221z" />
<glyph unicode="K" horiz-adv-x="1146" d="M72 0v66h8q80 0 108.5 31.5t28.5 113.5v981q0 82 -28.5 113.5t-108.5 31.5h-8v66h483v-66h-8q-78 0 -106.5 -31.5t-28.5 -113.5v-461l403 459q35 41 35 74q0 41 -33 57t-106 16v66h460v-66q-121 -6 -186 -82l-330 -376l363 -668q43 -80 84 -112.5t102 -32.5h17v-66h-510 v66q16 -2 43 -3q77 0 77 58q0 34 -30 90l-277 518l-112 -125v-393q0 -82 28.5 -113.5t106.5 -31.5h8v-66h-483z" />
<glyph unicode="L" horiz-adv-x="1103" d="M66 0v66h8q80 0 108.5 31.5t28.5 113.5v981q0 82 -28.5 113.5t-108.5 31.5h-8v66h485v-66h-8q-80 0 -108.5 -31.5t-28.5 -113.5v-963q0 -90 27.5 -123.5t115.5 -33.5q197 0 301 120.5t133 376.5h61v-569h-978z" />
<glyph unicode="M" horiz-adv-x="1445" d="M61 0v66h9q78 0 106.5 31.5t28.5 113.5v981q0 82 -29 113.5t-106 31.5h-9v66h383l291 -995l273 995h389v-66h-8q-80 0 -109 -31.5t-29 -113.5v-981q0 -82 29 -113.5t109 -31.5h8v-66h-484v66h9q78 0 106.5 31.5t28.5 113.5v1051l-350 -1262h-54l-362 1239v-1028 q0 -82 28.5 -113.5t108.5 -31.5h8v-66h-375z" />
<glyph unicode="N" horiz-adv-x="1179" d="M35 0v66h8q78 0 106.5 31.5t28.5 113.5v1008l-20 38q-47 80 -123 80v66h280l607 -1026v815q0 82 -29 113.5t-107 31.5h-8v66h375v-66h-8q-80 0 -108.5 -31.5t-28.5 -113.5v-1206h-80l-664 1122v-897q0 -82 29 -113.5t108 -31.5h9v-66h-375z" />
<glyph unicode="O" horiz-adv-x="1193" d="M76 702.5q0 329.5 170 544.5q147 188 352 189q203 0 350 -189q170 -215 170 -545q0 -326 -170 -544q-150 -190 -350 -191q-203 0 -352 191q-170 215 -170 544.5zM303 700.5q0 -331.5 69.5 -490.5t225.5 -159q154 0 223.5 159t69.5 490.5t-69.5 491.5t-223.5 160 t-224.5 -160t-70.5 -491.5z" />
<glyph unicode="P" horiz-adv-x="1054" d="M72 0v66h8q80 0 108.5 31.5t28.5 113.5v981q0 82 -28.5 113.5t-108.5 31.5h-8v66h454q496 0 496 -367q0 -176 -131 -285.5t-344 -109.5h-135v-430q0 -82 28.5 -113.5t108.5 -31.5h8v-66h-485zM412 725h135q111 0 179.5 80t68.5 215q0 145 -63.5 222t-180.5 77 q-82 0 -110.5 -22.5t-28.5 -88.5v-483z" />
<glyph unicode="Q" horiz-adv-x="1193" d="M76 702.5q0 329.5 170 544.5q147 188 352 189q203 0 350 -189q170 -215 170 -545q0 -223 -73.5 -391t-210.5 -260q29 -182 112 -182q96 0 109 242h80q0 -8 1 -24.5t1 -23.5q0 -172 -69 -268t-179 -96q-94 0 -155.5 71.5t-61.5 188.5v16q-49 -8 -84 -8q-193 0 -342 191 q-170 215 -170 544.5zM303 700q0 -240 29.5 -377t109.5 -208q-26 59 -26 130v5q0 96 54 159.5t130 63.5h1q167 0 210 -280q80 131 80 507q0 332 -69.5 492t-223.5 160t-224.5 -160t-70.5 -492zM494 240q0 -82 36.5 -135.5t90.5 -53.5q26 1 61 15q12 49 12 157q0 174 -98 174 q-47 0 -74.5 -42t-27.5 -115z" />
<glyph unicode="R" horiz-adv-x="1171" d="M72 0v66h8q80 0 108.5 31.5t28.5 113.5v981q0 82 -28.5 113.5t-108.5 31.5h-8v66h454q496 0 496 -348q0 -135 -85 -229.5t-241 -131.5q123 -47 162 -130t57 -257q14 -143 29 -164q10 -14 29 -14q41 0 51 52t14 200h64q2 -29 2 -78q0 -338 -184 -338q-63 0 -104.5 32 t-74.5 105q-14 33 -22 179.5t-33 259.5q-31 137 -139 137h-135v-467q0 -82 28.5 -113.5t108.5 -31.5h8v-66h-485zM412 764h135q113 0 180.5 74.5t67.5 199.5q0 135 -63.5 207t-178.5 72q-82 0 -111.5 -20.5t-29.5 -82.5v-450z" />
<glyph unicode="S" d="M123 0v537h72q33 -233 125 -359.5t217 -126.5q92 0 156.5 73t64.5 179q0 88 -44 148.5t-141 119.5q-29 16 -99.5 53.5t-130.5 75t-110 86.5q-106 102 -106 273q0 166 98.5 271.5t247.5 105.5q100 0 184 -66q8 -6 20.5 -17.5t18.5 -16.5t15.5 -9t19.5 -4q35 0 55 80h64 v-504h-72q-33 221 -112.5 337t-192.5 116q-84 0 -139 -61.5t-55 -155.5q0 -90 59 -145.5t205 -135.5q14 -8 53 -28.5t59.5 -33t51 -31t56 -37.5t48.5 -42q115 -106 115 -297q0 -174 -113 -296t-268 -122q-111 0 -207 66q-8 4 -28.5 20.5t-33 21.5t-26.5 5q-39 0 -64 -80h-63 z" />
<glyph unicode="T" horiz-adv-x="1067" d="M45 883v520h977v-520h-66v16q0 424 -323 432v-1120q0 -82 28.5 -113.5t108.5 -31.5h8v-66h-489v66h8q80 0 108.5 31.5t28.5 113.5v1120q-326 -12 -325 -432v-16h-64z" />
<glyph unicode="U" horiz-adv-x="1103" d="M23 1337v66h489v-66h-8q-80 0 -108.5 -31.5t-28.5 -113.5v-752q0 -201 56 -295t181 -94q274 0 275 389v752q0 82 -29 113.5t-109 31.5h-8v66h375v-66h-8q-80 0 -108.5 -31.5t-28.5 -113.5v-717q0 -264 -92.5 -386t-297.5 -122q-190 0 -297.5 119t-107.5 330v776 q0 82 -28.5 113.5t-108.5 31.5h-8z" />
<glyph unicode="V" horiz-adv-x="991" d="M-86 1337v66h494v-66q-139 0 -140 -77q0 -35 11 -68l266 -866l254 815q14 45 14 82q0 114 -155 114h-3h-8v66h434v-66h-12q-59 0 -106.5 -37.5t-67.5 -107.5l-375 -1208h-67l-365 1208q-25 82 -57.5 113.5t-102.5 31.5h-14z" />
<glyph unicode="W" horiz-adv-x="1435" d="M-41 1337v66h434v-66q-119 0 -119 -77q0 -18 13 -68l219 -825l182 686l-41 139q-39 137 -125 145v66h416v-66q-117 0 -117 -77q0 -29 10 -68l230 -827l194 776q12 45 13 78q0 55 -32 86.5t-89 31.5h-10v66h368v-66q-53 0 -94 -38.5t-57 -106.5l-307 -1210h-72l-250 929 l-238 -929h-71l-316 1210q-37 143 -141 145z" />
<glyph unicode="X" horiz-adv-x="1138" d="M2 0v66h16q63 0 101.5 32.5t85.5 112.5l287 496l-254 485q-41 78 -83 111.5t-104 33.5h-16v66h510v-66q-16 2 -43 2q-78 0 -78 -59q0 -29 31 -88l159 -305l181 305q31 55 30 88q0 59 -77 59q-27 0 -43 -2v66h391v-66h-17q-63 0 -101 -32.5t-85 -112.5l-229 -395l309 -586 q41 -78 83 -111.5t103 -33.5h17v-66h-510v66q16 -2 43 -3q75 0 75 58q0 31 -30 90l-213 414l-238 -414q-31 -53 -31 -88q0 -59 78 -60q27 0 43 3v-66h-391z" />
<glyph unicode="Y" horiz-adv-x="970" d="M-84 1337v66h498v-66q-16 2 -43 2q-78 0 -78 -59q0 -10 33 -88l198 -465l213 465q31 68 31 88q0 59 -78 59q-27 0 -43 -2v66h383v-66h-6q-78 0 -117 -32.5t-78 -112.5l-268 -567v-414q0 -82 28.5 -113.5t108.5 -31.5h9v-66h-484v66h8q78 0 107 31.5t29 113.5v389 l-250 592q-61 145 -185 145h-16z" />
<glyph unicode="Z" horiz-adv-x="1013" d="M80 0v76l627 1243h-74q-203 0 -303.5 -101.5t-130.5 -334.5h-66v520h787v-94l-621 -1233h72q242 0 350 109.5t143 383.5h64v-569h-848z" />
<glyph unicode="[" horiz-adv-x="626" d="M182 -403v1806h320v-66h-8q-80 0 -109 -31.5t-29 -113.5v-1382q0 -82 29 -114t109 -32h8v-67h-320z" />
<glyph unicode="\" horiz-adv-x="569" d="M-47 1436h117l546 -1626h-116z" />
<glyph unicode="]" horiz-adv-x="626" d="M125 -336h8q78 0 106.5 32t28.5 114v1382q0 82 -28.5 113.5t-106.5 31.5h-8v66h317v-1806h-317v67z" />
<glyph unicode="^" horiz-adv-x="2048" d="M412 897l522 565h178l520 -565h-92l-518 436l-520 -436h-90z" />
<glyph unicode="_" d="M0 -365h1024v-118h-1024v118z" />
<glyph unicode="`" d="M229 1399q0 31 20.5 51t53.5 20q37 0 96 -59l289 -299h-67l-330 205q-61 39 -62 82z" />
<glyph unicode="a" horiz-adv-x="905" d="M55 199q0 141 118 233t382 174v152q0 90 -37 130t-125 40q-117 0 -164 -72q84 -27 84 -115q0 -55 -28.5 -85.5t-75.5 -30.5t-75 31.5t-28 82.5q0 115 88.5 188.5t235.5 73.5q160 0 230.5 -71.5t70.5 -231.5v-557q0 -43 35 -43q57 0 57 111v84h68v-111q0 -96 -48 -150.5 t-126 -54.5q-63 0 -101 40t-61 124q-80 -170 -248 -170q-115 0 -183.5 63.5t-68.5 164.5zM252 205q0 -63 28.5 -100t73.5 -37q82 0 141.5 96t59.5 252v108q-145 -27 -224 -110.5t-79 -208.5z" />
<glyph unicode="b" horiz-adv-x="923" d="M0 1343v60l299 12v-565q92 147 225 147q139 0 246 -144t107 -368q0 -233 -112 -375.5t-288 -142.5q-66 0 -118 26.5t-81.5 53.5t-41.5 27q-18 0 -29 -17l-41 -65h-68q27 90 27 149v1073q0 74 -24.5 101.5t-92.5 27.5h-8zM299 481q0 -207 56.5 -321.5t144.5 -114.5 q176 0 176 436q0 434 -176 434q-88 0 -144.5 -113.5t-56.5 -320.5z" />
<glyph unicode="c" horiz-adv-x="868" d="M70 485q0 227 114.5 371.5t282.5 144.5q131 0 216 -81.5t85 -196.5q0 -129 -109 -129q-43 0 -70.5 31.5t-27.5 85.5q0 102 92 112q-4 41 -50 71t-109 30q-119 0 -173.5 -106.5t-54.5 -332.5q0 -223 54.5 -330.5t173.5 -107.5q100 0 155.5 75t55.5 214v14h75v-24 q0 -168 -79.5 -261.5t-223.5 -93.5q-178 0 -292.5 142.5t-114.5 371.5z" />
<glyph unicode="d" horiz-adv-x="972" d="M74 485.5q0 223.5 106.5 367.5t245.5 144q127 0 225 -145v362q0 74 -25.5 101.5t-93.5 27.5h-8v60l301 12v-1225q0 -74 26 -102.5t93 -28.5h8v-59l-282 -10l-8 174q-86 -188 -230 -189q-145 0 -251.5 143.5t-106.5 367zM274 485q0 -419 176 -419h1q88 0 144 109.5t56 310 t-56 311t-144 110.5q-176 0 -177 -422z" />
<glyph unicode="e" horiz-adv-x="847" d="M43 485q0 227 113.5 371.5t287.5 144.5q162 0 255.5 -133t93.5 -372h-555v-31q0 -418 229 -418q94 0 163.5 75t90.5 206h72q-20 -168 -111.5 -262.5t-230.5 -94.5q-178 0 -293 142.5t-115 371.5zM236 575h362q-2 170 -50 259.5t-134 89.5q-78 0 -126 -91.5t-52 -257.5z " />
<glyph unicode="f" horiz-adv-x="559" d="M14 887v86h166q-2 23 -2 67q0 193 79 295.5t220 102.5q96 0 156.5 -55.5t60.5 -137.5q0 -55 -28.5 -89t-75.5 -34q-43 0 -68.5 30t-25.5 81q0 72 57 102q-23 23 -59 23q-74 0 -104 -45t-30 -144v-196h191v-86h-191v-682q0 -82 26 -114t95 -32h25v-59h-451v59h8 q70 0 93.5 31t23.5 115v682h-166z" />
<glyph unicode="g" horiz-adv-x="868" d="M45 -123q0 170 199 223q-74 27 -107 62t-33 90q0 88 127 160q-135 92 -135 254q0 145 98.5 238t247.5 93q61 0 146 -32q29 143 145 143q51 0 84 -30.5t33 -80.5q0 -96 -78 -96q-76 0 -76 76q0 25 13 55q-59 -14 -60 -102v-6q115 -92 115 -252q0 -133 -93 -227.5 t-235 -94.5q-68 0 -137 25q-66 -31 -66 -72q0 -39 44.5 -51t173.5 -25q207 -20 304 -88.5t97 -208.5q0 -137 -115.5 -229t-300.5 -92q-176 0 -283.5 77.5t-107.5 190.5zM180 -115q0 -90 71.5 -147t192.5 -57q119 0 191 57t72 147q0 176 -263 176q-264 0 -264 -176zM295 674 q0 -256 135 -256t135 256t-135 256t-135 -256z" />
<glyph unicode="h" horiz-adv-x="1013" d="M49 0v59h8q70 0 94.5 32t24.5 114v997q0 74 -25.5 101.5t-93.5 27.5h-8v60l301 12v-578q109 170 264 170q131 0 189.5 -80.5t58.5 -255.5v-454q0 -82 24.5 -114t90.5 -32h6v-59h-295v643q0 135 -27.5 193.5t-99.5 58.5q-92 0 -151.5 -103.5t-59.5 -293.5v-293 q0 -82 25.5 -114t95.5 -32h25v-59h-447z" />
<glyph unicode="i" horiz-adv-x="497" d="M41 0v59h8q70 0 93.5 31t23.5 115v577q0 74 -24.5 102.5t-92.5 28.5h-8v60l305 10v-778q0 -82 25.5 -114t95.5 -32h25v-59h-451zM150 1304.5q0 61.5 28.5 96.5t77.5 35t77.5 -35t28.5 -96.5t-28.5 -97.5t-77.5 -36t-77.5 36t-28.5 97.5z" />
<glyph unicode="j" horiz-adv-x="487" d="M-170 -199q0 57 28.5 91t78.5 34q43 0 68.5 -28.5t25.5 -79.5q0 -72 -60 -103q24 -24 57 -24h3q72 0 103.5 46t31.5 142v903q0 74 -24.5 102.5t-92.5 28.5h-8v60l305 10v-938q0 -432 -297 -432q-96 0 -157.5 54t-61.5 134zM150 1304.5q0 61.5 28.5 96.5t77.5 35t77.5 -35 t28.5 -96.5t-28.5 -97.5t-77.5 -36t-77.5 36t-28.5 97.5z" />
<glyph unicode="k" horiz-adv-x="897" d="M16 0v59h9q70 0 93 31t23 115v1009q0 74 -24.5 101.5t-91.5 27.5h-9v60l295 12v-917l232 239q82 84 82 123q0 53 -111 53v60h391v-60h-8q-92 0 -158 -71l-227 -242l266 -473q37 -68 117 -68h10v-59h-241l-273 473l-80 -90v-178q0 -82 24.5 -114t94.5 -32h8v-59h-422z" />
<glyph unicode="l" horiz-adv-x="473" d="M47 0v59h8q70 0 94.5 32t24.5 114v1009q0 74 -25.5 101.5t-93.5 27.5h-8v60l307 12v-1210q0 -84 23.5 -115t93.5 -31h8v-59h-432z" />
<glyph unicode="m" horiz-adv-x="1417" d="M35 0v59h8q70 0 93.5 31t23.5 115v577q0 74 -24.5 102.5t-92.5 28.5h-8v60l282 10l7 -180q97 192 252 192h2q164 0 225 -176q104 176 250 176q123 0 177 -80.5t54 -255.5v-454q0 -82 24.5 -114t90.5 -32h6v-59h-297v643q0 133 -24.5 192.5t-88.5 59.5q-82 0 -134 -103.5 t-52 -293.5v-293q0 -82 24.5 -114t90.5 -32h6v-59h-295v643q0 133 -24.5 192.5t-88.5 59.5q-82 0 -134 -103.5t-52 -293.5v-293q0 -80 21.5 -113t80.5 -33h19v-59h-422z" />
<glyph unicode="n" horiz-adv-x="1013" d="M49 0v59h8q70 0 94.5 32t24.5 114v577q0 74 -25.5 102.5t-93.5 28.5h-8v60l283 10l8 -180q105 192 272 192h2q131 0 189.5 -80.5t58.5 -255.5v-454q0 -82 24.5 -114t90.5 -32h6v-59h-295v643q0 135 -27.5 193.5t-99.5 58.5q-92 0 -151.5 -103.5t-59.5 -293.5v-293 q0 -82 25.5 -114t95.5 -32h25v-59h-447z" />
<glyph unicode="o" horiz-adv-x="905" d="M70 485.5q0 223.5 113.5 368.5t269.5 145q158 0 271.5 -145t113.5 -368.5t-114 -369t-271 -145.5q-156 0 -269.5 145.5t-113.5 369zM268 485.5q0 -225.5 44.5 -332t140.5 -106.5q98 0 141 106.5t43 332t-43 332t-141 106.5q-96 0 -140.5 -106.5t-44.5 -332z" />
<glyph unicode="p" horiz-adv-x="978" d="M31 -311h14q63 0 87 32.5t24 112.5v948q0 74 -25 102.5t-92 28.5h-8v60l282 10l6 -174q86 188 231.5 188t251 -144t105.5 -367.5t-105.5 -367t-244.5 -143.5q-133 0 -225 148v-289q0 -82 25.5 -113.5t95.5 -31.5h24v-60h-446v60zM332 485.5q0 -200.5 56 -310t144 -109.5 q176 0 177 419q0 422 -177 422q-88 0 -144 -110.5t-56 -311z" />
<glyph unicode="q" horiz-adv-x="933" d="M76 485q0 227 111.5 369.5t273.5 142.5q61 0 114.5 -25.5t90 -52t55.5 -26.5q14 0 24 16l43 64h66q-27 -90 -27 -150v-989q0 -80 23.5 -112.5t89.5 -32.5h14v-60h-446v60h24q70 0 95.5 31.5t25.5 113.5v289q-92 -147 -225 -148q-139 0 -245.5 143.5t-106.5 366.5z M274 492q0 -426 181 -426q90 0 148.5 112.5t58.5 315t-57.5 315.5t-149.5 113q-181 0 -181 -430z" />
<glyph unicode="r" horiz-adv-x="696" d="M49 0v59h8q70 0 94.5 32t24.5 114v577q0 74 -25.5 102.5t-93.5 28.5h-8v60l283 10v-233q74 245 218 245h1q66 0 108.5 -47t42.5 -123q0 -149 -93 -149h-1q-41 0 -65.5 30.5t-24.5 86.5q0 109 74 114q-4 18 -39 19q-76 0 -139.5 -147.5t-63.5 -375.5v-198q0 -82 25.5 -114 t95.5 -32h25v-59h-447z" />
<glyph unicode="s" horiz-adv-x="819" d="M106 0v373h58q55 -328 262 -328q70 0 116 49t46 127q0 53 -29 98q-20 33 -57 53.5t-102.5 45t-102.5 43.5q-184 90 -184 266q0 119 76.5 195.5t197.5 76.5q84 0 184 -63l37 37h58v-326h-58q-66 287 -219 287q-68 0 -109.5 -40t-41.5 -103q0 -100 120 -152 q18 -8 69.5 -28.5t70 -29t51.5 -23.5t52.5 -27.5t35.5 -26.5q96 -84 96 -225q0 -129 -90 -218.5t-219 -89.5q-109 0 -229 80l-31 -51h-58z" />
<glyph unicode="t" horiz-adv-x="612" d="M14 887v65q238 82 238 387h61v-366h244v-86h-244v-717q0 -113 70 -113t97.5 65.5t27.5 213.5v41h67q0 -10 1.5 -30.5t1.5 -29.5q0 -184 -54.5 -265t-183.5 -81q-94 0 -145.5 55.5t-51.5 155.5v705h-129z" />
<glyph unicode="u" horiz-adv-x="1013" d="M29 913v60l301 10v-653q0 -135 27.5 -193.5t99.5 -58.5q92 0 150.5 103.5t58.5 293.5v307q0 74 -25 102.5t-92 28.5h-8v60l301 10v-793q0 -74 24.5 -102.5t91.5 -28.5h9v-59l-283 -12l-6 180q-106 -193 -275 -193q-131 0 -190 82t-59 256v469q0 74 -25 102.5t-92 28.5h-8 z" />
<glyph unicode="v" horiz-adv-x="796" d="M-43 913v60h426v-60h-8q-102 0 -103 -77q0 -20 4 -33l177 -522l174 524q6 23 6 35q0 73 -106 73h-3h-8v60h336v-60h-8q-53 0 -80 -20.5t-45 -75.5l-283 -829h-69l-279 829q-20 55 -42.5 75.5t-80.5 20.5h-8z" />
<glyph unicode="w" horiz-adv-x="1218" d="M-37 913v60h414v-60h-8q-102 0 -103 -75q0 -16 6 -35l140 -494l159 496q6 23 7 35q0 73 -106 73h-3h-8v60h405v-60h-8q-102 0 -102 -75q0 -16 6 -35l141 -502l162 504q6 20 6 35q0 73 -105 73h-3h-9v60h334v-60q-61 0 -87.5 -20.5t-45.5 -75.5l-268 -829h-66l-203 694 l-221 -694h-71l-232 829q-16 55 -41.5 75.5t-81.5 20.5h-8z" />
<glyph unicode="x" horiz-adv-x="833" d="M-31 0v59q84 12 133.5 49t92.5 107l147 242l-236 377q-48 77 -116 77h-2v62h391v-62q-86 0 -86 -39q0 -12 6 -20l152 -236l120 177q27 39 27 61q0 31 -20.5 42t-75.5 15v62h340v-62q-98 -8 -164 -106l-176 -266l241 -389q49 -78 146 -91v-59h-418v59q80 2 80 41 q0 27 -6 35l-156 238l-110 -168q-35 -55 -35 -86q0 -53 86 -60v-59h-361z" />
<glyph unicode="y" horiz-adv-x="825" d="M-20 913v60h426v-60h-9q-102 0 -102 -77q0 -14 6 -33l174 -522l174 524q8 23 8 37q0 71 -115 71h-3v60h335v-60q-63 0 -87.5 -20.5t-45.5 -75.5l-354 -1022q-35 -98 -74 -141t-110 -43q-76 0 -123 50t-47 130q0 61 31.5 99t78.5 38q43 0 69 -29.5t26 -82.5 q0 -43 -22.5 -69t-57.5 -26q-9 1 -29 5q18 -45 76 -45q70 0 104 104l74 221l-272 811q-20 55 -43 75.5t-80 20.5h-8z" />
<glyph unicode="z" horiz-adv-x="876" d="M90 0v84l469 817h-117q-117 0 -172 -61.5t-84 -216.5h-57v350h627v-64l-480 -833h132q137 0 207.5 82t89.5 258h57v-416h-672z" />
<glyph unicode="{" d="M176 606v60q168 14 224.5 74.5t56.5 215.5v213q0 197 79.5 272t299.5 75h10v-52q-147 -2 -196.5 -58t-49.5 -206v-143q0 -209 -54 -299t-233 -123q178 -33 232.5 -123t54.5 -299v-143q0 -150 49 -205t197 -58v-51h-10q-219 0 -299 75t-80 271v213q0 156 -57.5 216.5 t-223.5 74.5z" />
<glyph unicode="|" d="M449 -483v2048h126v-2048h-126z" />
<glyph unicode="}" d="M178 -193q147 2 196.5 57.5t49.5 205.5v143q0 209 54 299t233 123q-178 33 -232.5 123t-54.5 299v143q0 150 -49 206t-197 58v52h10q217 0 298 -75t81 -272v-213q0 -156 56.5 -216t224.5 -74v-60q-166 -14 -223.5 -74.5t-57.5 -216.5v-213q0 -197 -80.5 -271.5 t-298.5 -74.5h-10v51z" />
<glyph unicode="~" horiz-adv-x="1705" d="M178 461v133q211 145 387 145q106 0 291 -65q10 -4 40 -14.5t43 -15.5t39 -13t42 -12.5t38.5 -8.5t44 -6t42.5 -2q162 0 385 156v-131q-201 -143 -387 -144q-86 0 -191 35q-29 10 -99.5 35t-104 35t-87 21.5t-98.5 11.5q-158 0 -385 -160z" />
<glyph unicode="&#xa1;" horiz-adv-x="497" d="M137 1284q0 59 32 101t73 42q43 0 73.5 -42t30.5 -101t-31.5 -100t-72.5 -41q-39 0 -72 42t-33 99zM147 137q0 51 3 76l67 791h62l67 -791q2 -25 2 -76q0 -90 -22.5 -130t-77.5 -40t-78 40t-23 130z" />
<glyph unicode="&#xa2;" horiz-adv-x="909" d="M150 718.5q0 186.5 87 312.5t226 149v223h65v-221q109 -6 179.5 -80t70.5 -178q0 -51 -25.5 -80t-70.5 -29q-39 0 -64.5 28.5t-25.5 76.5q0 92 84 102q-14 84 -148 90v-788q195 6 195 264v8h68v-18q0 -150 -69 -233t-194 -87v-258h-65v260q-141 25 -227 148.5t-86 310z M328 719q0 -166 30.5 -257t104.5 -124v764q-135 -53 -135 -383z" />
<glyph unicode="&#xa3;" horiz-adv-x="909" d="M-2 152q0 76 55.5 128t141.5 52q102 0 280 -160q51 57 51 133q0 109 -141 289h-328v84h260q-199 233 -198 409q0 150 95 250.5t237 100.5q109 0 183.5 -72t74.5 -172q0 -63 -29 -100t-72 -37q-41 0 -68.5 33.5t-27.5 89.5q0 63 29 94q14 16 47 22q-39 68 -135 68 q-78 0 -132.5 -60.5t-54.5 -150.5q0 -43 12.5 -82t47 -91t58.5 -83t87.5 -106.5t93.5 -112.5h281v-84h-223q70 -88 69 -195q0 -168 -133 -290q39 -39 88 -39q117 0 195 198l69 -37q-47 -125 -117.5 -191.5t-152.5 -66.5q-72 0 -156 66q-125 -72 -241 -72q-111 0 -178.5 53.5 t-67.5 131.5zM150 135q0 -39 33.5 -63.5t88.5 -24.5q49 0 127 53q-111 104 -172 105q-35 0 -56 -18.5t-21 -51.5z" />
<glyph unicode="&#xa4;" horiz-adv-x="1241" d="M86 424l207 205q-88 117 -88 256t88 256l-207 205l72 73l207 -207q119 90 256 91q141 0 260 -91l204 207l72 -73l-205 -205q86 -113 86 -256.5t-86 -255.5l205 -205l-72 -74l-204 207q-113 -88 -260 -88q-143 0 -256 88l-207 -207zM309 887q0 -131 91.5 -223.5 t222.5 -92.5q129 0 221 93.5t92 222.5t-91 221t-222 92t-222.5 -92t-91.5 -221z" />
<glyph unicode="&#xa5;" horiz-adv-x="1161" d="M25 1337v66h499v-66q-16 2 -43 2q-78 0 -78 -59q0 -14 31 -88l199 -465l213 465q31 68 31 88q0 59 -78 59q-27 0 -43 -2v66h383v-66h-6q-78 0 -117 -32.5t-78 -112.5l-104 -221h258v-76h-295l-103 -219h398v-76h-420v-389q0 -82 28.5 -113.5t106.5 -31.5h8v-66h-483v66h8 q80 0 108.5 31.5t28.5 113.5v389h-405v76h370l-92 219h-278v76h247l-94 221q-61 145 -186 145h-14z" />
<glyph unicode="&#xa6;" d="M449 -350v758h126v-758h-126zM449 674v758h126v-758h-126z" />
<glyph unicode="&#xa7;" d="M135 625q0 109 77 180.5t198 71.5h18q-100 84 -147.5 153.5t-47.5 145.5q0 106 81 181t206 75q121 0 198 -60.5t77 -146.5q0 -49 -29 -79t-76 -30q-39 0 -64.5 21.5t-25.5 56.5q0 31 33 70t33 53q0 25 -42 47t-100 22q-76 0 -122 -44t-46 -111q0 -61 43 -118.5 t138 -137.5l178 -150q174 -147 174 -290q0 -106 -77 -177t-198 -71h-22q199 -154 199 -301q0 -106 -87.5 -179t-222.5 -73q-127 0 -206.5 60.5t-79.5 144.5q0 51 28.5 81.5t75.5 30.5q39 0 64.5 -24.5t25.5 -61.5t-32.5 -72.5t-32.5 -44.5q0 -29 42 -49t113 -20 q84 0 136.5 44t52.5 114q0 57 -42 113t-134 134l-181 156q-176 152 -176 285zM250 682q0 -68 96 -170q168 -180 264 -180q70 0 116 44t46 107q0 82 -123 205q-152 147 -235 148q-72 0 -118 -44t-46 -110z" />
<glyph unicode="&#xa8;" d="M238 1266q0 41 29.5 70.5t68.5 29.5q41 0 70.5 -29.5t29.5 -70.5q0 -43 -29.5 -72t-70.5 -29t-69.5 29t-28.5 72zM588 1266q0 41 29.5 70.5t70.5 29.5q39 0 68.5 -29.5t29.5 -70.5q0 -43 -28.5 -72t-69.5 -29t-70.5 29t-29.5 72z" />
<glyph unicode="&#xa9;" horiz-adv-x="1683" d="M139 678q0 289 205 498q203 206 500 206q289 0 493 -204q98 -96 152.5 -228.5t54.5 -271.5q0 -287 -207 -498q-201 -205 -495 -205q-291 0 -496 205q-207 203 -207 498zM225 678q0 -258 183 -440q180 -180 434 -181q258 0 434 181q182 186 182 440q0 262 -180 442 q-182 183 -434 183q-258 0 -438.5 -184.5t-180.5 -440.5zM426 664q0 188 116.5 313t284.5 125q74 0 148 -34t82 -34q51 1 63 62h35l2 -314h-41q-68 274 -280 275q-248 0 -248 -373q0 -381 266 -381q170 0 283 174l34 -24q-117 -209 -342 -209q-168 0 -285.5 122.5 t-117.5 297.5z" />
<glyph unicode="&#xaa;" horiz-adv-x="679" d="M41 862q0 98 89 163t286 122v106q0 63 -28 91t-93 28q-86 0 -123 -49q63 -18 64 -82q0 -39 -21.5 -60.5t-56.5 -21.5t-56.5 22.5t-21.5 59.5q0 80 66.5 131t177.5 51q119 0 172 -50t53 -161v-391q0 -29 26 -28q43 0 43 75v60h50v-78q0 -66 -36 -104.5t-93 -38.5 q-90 -1 -123 114q-59 -119 -185 -119q-86 0 -138 44.5t-52 115.5zM188 866q0 -43 21.5 -69.5t56.5 -26.5q61 0 105.5 67.5t44.5 176.5v76q-109 -18 -168.5 -77t-59.5 -147z" />
<glyph unicode="&#xab;" horiz-adv-x="774" d="M70 485q86 100 149.5 206t88 153t40.5 47q27 0 27 -39q0 -76 -113 -367q113 -287 113 -364q0 -41 -29 -41q-14 0 -39.5 47t-88 152.5t-148.5 205.5zM397 485q86 100 149.5 206t89.5 153t42 47q27 0 27 -39q0 -72 -115 -367q115 -291 115 -364q0 -41 -29 -41q-14 0 -40 47 t-89.5 152.5t-149.5 205.5z" />
<glyph unicode="&#xac;" horiz-adv-x="1705" d="M254 741v117h1198v-502h-115v385h-1083z" />
<glyph unicode="&#xad;" horiz-adv-x="569" d="M86 455v161h401v-161h-401z" />
<glyph unicode="&#xae;" horiz-adv-x="1683" d="M139 678q0 289 205 498q203 206 500 206q291 0 497 -206q203 -203 203 -500q0 -287 -213 -500q-201 -201 -495 -201q-281 0 -490 205q-207 203 -207 498zM225 678q0 -258 183 -440q180 -180 434 -181q258 0 434 181q182 186 182 440q0 123 -47 240.5t-133 201.5 q-182 183 -434 183q-254 0 -438 -185q-180 -184 -181 -440zM469 291v41q72 2 99.5 23.5t27.5 76.5v516q0 55 -26.5 75.5t-100.5 25.5v43h393q150 0 234 -55.5t84 -145.5q0 -76 -70 -124t-217 -75q94 -29 142 -78t71 -133q4 -20 11 -69.5t18.5 -65.5t40.5 -16q68 0 67 133h43 v-12q0 -178 -160 -179q-94 0 -127 66q-18 39 -21 113.5t-9 95.5q-39 133 -207 133h-33v-248q0 -55 26.5 -75.5t98.5 -24.5v-41h-385zM729 719q33 -2 66 -2q115 0 175 46t60 128q0 72 -52 117t-144 45q-104 0 -105 -72v-262z" />
<glyph unicode="&#xaf;" d="M254 1202v127h516v-127h-516z" />
<glyph unicode="&#xb0;" horiz-adv-x="673" d="M55 1171.5q0 118.5 83 200.5t200 82t200 -83t83 -199.5t-83 -199.5t-202 -83t-200 82t-81 200.5zM135 1171q0 -86 59.5 -144t143.5 -58q86 0 143.5 59t57.5 143t-58.5 142.5t-142.5 58.5t-143.5 -58.5t-59.5 -142.5z" />
<glyph unicode="&#xb1;" horiz-adv-x="1705" d="M254 41v117h1198v-117h-1198zM254 719v117h541v344h118v-344h539v-117h-539v-344h-118v344h-541z" />
<glyph unicode="&#xb2;" horiz-adv-x="600" d="M49 561v72q55 133 180 274q20 23 45 48.5t38.5 41t19.5 23.5q55 76 55 172q0 86 -35 132t-96 46q-59 0 -102 -40t-45 -103q14 8 32 8q25 0 42.5 -21.5t17.5 -58.5t-18.5 -58.5t-45.5 -21.5q-78 0 -78 113q0 104 62.5 169.5t161.5 65.5q102 0 167.5 -63.5t65.5 -165.5 q0 -66 -24 -115q-12 -20 -27.5 -39.5t-39.5 -42t-40 -36t-51 -42t-49 -40.5q-98 -86 -172 -215h188q92 0 132 44t46 144h39l-10 -291h-459z" />
<glyph unicode="&#xb3;" horiz-adv-x="600" d="M43 748q0 111 74 110q66 0 65.5 -73.5t-63.5 -73.5q-17 0 -27 8q4 -59 45 -95t105 -36q166 0 166 215q0 176 -132 176q-8 0 -24 -2t-23 -2q-57 0 -57 24q0 23 51 23q10 0 24.5 -2t20.5 -2q55 0 91 46t36 120q0 90 -38 141t-101 51q-61 0 -103 -35.5t-44 -95.5q10 8 28 8 q63 0 64 -73q0 -33 -18.5 -53.5t-47.5 -20.5q-74 0 -74 111q0 90 60.5 148t154.5 58q109 0 173.5 -58t64.5 -157q0 -150 -160 -202q176 -45 176 -209q0 -109 -77.5 -182.5t-188.5 -73.5q-100 0 -160.5 57t-60.5 150z" />
<glyph unicode="&#xb4;" d="M336 1112l289 299q59 59 96 59q33 0 53.5 -20t20.5 -51q0 -43 -62 -82l-330 -205h-67z" />
<glyph unicode="&#xb6;" d="M76 1130q0 156 106.5 252.5t286.5 96.5h479v-78h-125v-1401h-94v1401h-184v-1401h-94v782q-174 8 -274.5 103.5t-100.5 244.5z" />
<glyph unicode="&#xb7;" horiz-adv-x="454" d="M104 725q0 53 36 89t87.5 36t87 -36t35.5 -89q0 -51 -34.5 -86t-88 -35t-88.5 35t-35 86z" />
<glyph unicode="&#xb8;" d="M274 -371l35 78q127 -72 223 -72q121 0 121 93q0 90 -112 90q-29 0 -62 -6v188h64v-113q35 6 61 7q88 0 135 -43.5t47 -120.5q0 -80 -58 -128t-161 -48.5t-293 75.5z" />
<glyph unicode="&#xb9;" horiz-adv-x="600" d="M117 561v47h16q63 0 86 24.5t23 90.5v522q0 61 -64 62h-41v41q111 2 201 75h22v-700q0 -66 21.5 -90.5t83.5 -24.5h20v-47h-368z" />
<glyph unicode="&#xba;" horiz-adv-x="679" d="M53 1063q0 156 85 258t202 102t203 -101t86 -259q0 -156 -85 -258.5t-204 -102.5q-117 0 -202 102.5t-85 258.5zM201 1063q0 -307 139 -307q74 0 105.5 74.5t31.5 232.5t-31.5 232.5t-105.5 74.5q-139 0 -139 -307z" />
<glyph unicode="&#xbb;" horiz-adv-x="774" d="M70 121q0 70 114 364q-115 291 -114 367q0 39 28 39q14 0 40 -47t89.5 -153t149.5 -206q-86 -100 -149.5 -205.5t-88 -152.5t-41.5 -47q-29 0 -28 41zM399 121q0 70 115 364q-115 291 -115 367q0 39 29 39q14 0 40 -47t89.5 -153t149.5 -206q-86 -100 -149.5 -205.5 t-89.5 -152.5t-42 -47q-27 0 -27 41z" />
<glyph unicode="&#xbc;" horiz-adv-x="1488" d="M111 616v43h16q61 0 81.5 23t20.5 84v489q0 55 -61 56h-39v39q106 2 193 71h22v-655q0 -59 20.5 -83t79.5 -24h19v-43h-352zM231 0l902 1436h122l-901 -1436h-123zM963 207v59l321 539h68v-539h106v-59h-106v-96q0 -41 14 -53.5t74 -14.5v-43h-310v43q59 2 83 16.5 t24 51.5v96h-274zM1018 266h219v367z" />
<glyph unicode="&#xbd;" horiz-adv-x="1488" d="M111 616v43h16q61 0 81.5 23t20.5 84v489q0 55 -61 56h-39v39q106 2 193 71h22v-655q0 -59 20.5 -83t79.5 -24h19v-43h-352zM231 0l902 1436h122l-901 -1436h-123zM963 0v68q53 123 172 254q20 23 42.5 46t36 37.5t19.5 22.5q51 72 51 162q0 80 -32.5 123t-90.5 43 q-55 0 -97 -38t-44 -95q12 6 31 6q25 0 40 -20.5t15 -55.5q0 -33 -16.5 -52.5t-42.5 -19.5q-74 0 -74 105q0 98 59.5 158.5t153.5 60.5q98 0 160.5 -59.5t62.5 -155.5q0 -59 -25 -107q-14 -25 -37.5 -50t-42 -41.5t-58.5 -49.5t-58 -47q-94 -76 -166 -201h180q88 0 127 41 t45 135h35l-10 -270h-436z" />
<glyph unicode="&#xbe;" horiz-adv-x="1486" d="M41 791q0 102 72 102q29 0 45 -18.5t16 -51.5q0 -31 -16.5 -49t-44.5 -18q-15 0 -25 8q2 -57 42 -90t101 -33q158 0 158 201q0 164 -125 164q-8 0 -24.5 -1t-22.5 -1q-51 0 -51 20q0 23 47 23q10 0 24.5 -2.5t18.5 -2.5q51 0 86 44t35 112q0 84 -35 131t-96 47 q-59 0 -99.5 -32.5t-42.5 -88.5q12 6 27 7q59 0 59 -68q0 -33 -16 -51.5t-45 -18.5q-72 0 -72 105q0 84 58.5 138t148.5 54q102 0 163.5 -54t61.5 -146q0 -141 -151 -189q168 -41 168 -194q0 -102 -74 -171t-180 -69q-94 0 -152.5 53.5t-58.5 139.5zM231 0l902 1436h122 l-901 -1436h-123zM963 207v59l321 539h68v-539h106v-59h-106v-96q0 -41 14 -53.5t74 -14.5v-43h-310v43q59 2 83 16.5t24 51.5v96h-274zM1018 266h219v367z" />
<glyph unicode="&#xbf;" horiz-adv-x="749" d="M66 289q0 53 10 96t38.5 88t45 65.5t68 75t65.5 70.5q49 53 69.5 104.5t20.5 135.5q0 37 -2 57h74q2 -25 2 -68q0 -170 -111 -315q-39 -49 -56.5 -77.5t-32.5 -87t-15 -136.5q0 -119 47 -181.5t133 -62.5q74 0 128 52.5t54 119.5v4q-8 -2 -26 -2q-94 0 -95 127 q0 57 27 92t72 35q113 0 112 -178q0 -143 -88 -239.5t-213 -96.5q-141 0 -234 90t-93 232zM305 1284q0 59 32 100t73 41q43 0 72.5 -39.5t29.5 -101.5q0 -59 -31.5 -100t-70.5 -41t-72 42t-33 99z" />
<glyph unicode="&#xc0;" horiz-adv-x="1056" d="M-72 0v66h15q117 0 163 145l392 1227h55l414 -1227q29 -86 54.5 -115.5t90.5 -29.5h21v-66h-512v66q139 0 139 77q0 37 -10 68l-82 254h-394l-63 -203q-16 -53 -16 -82q0 -115 157 -114h8v-66h-432zM245 1835q0 31 20.5 51t53.5 20q37 0 96 -59l289 -299h-67l-330 205 q-61 39 -62 82zM301 551h338l-170 520z" />
<glyph unicode="&#xc1;" horiz-adv-x="1056" d="M-72 0v66h15q117 0 163 145l392 1227h55l414 -1227q29 -86 54.5 -115.5t90.5 -29.5h21v-66h-512v66q139 0 139 77q0 37 -10 68l-82 254h-394l-63 -203q-16 -53 -16 -82q0 -115 157 -114h8v-66h-432zM301 551h338l-170 520zM352 1548l289 299q59 59 96 59q33 0 53.5 -20 t20.5 -51q0 -43 -62 -82l-330 -205h-67z" />
<glyph unicode="&#xc2;" horiz-adv-x="1056" d="M-72 0v66h15q117 0 163 145l392 1227h55l414 -1227q29 -86 54.5 -115.5t90.5 -29.5h21v-66h-512v66q139 0 139 77q0 37 -10 68l-82 254h-394l-63 -203q-16 -53 -16 -82q0 -115 157 -114h8v-66h-432zM237 1548l232 348h118l232 -348h-58l-233 209l-233 -209h-58zM301 551 h338l-170 520z" />
<glyph unicode="&#xc3;" horiz-adv-x="1056" d="M-72 0v66h15q117 0 163 145l392 1227h55l414 -1227q29 -86 54.5 -115.5t90.5 -29.5h21v-66h-512v66q139 0 139 77q0 37 -10 68l-82 254h-394l-63 -203q-16 -53 -16 -82q0 -115 157 -114h8v-66h-432zM241 1595q37 211 197 211q33 0 63 -8l111 -29q41 -10 55 -10 q68 0 94 86h54q-39 -205 -195 -205q-29 0 -74 10l-108 27q-33 8 -49 8q-39 0 -60.5 -20.5t-36.5 -69.5h-51zM301 551h338l-170 520z" />
<glyph unicode="&#xc4;" horiz-adv-x="1056" d="M-72 0v66h15q117 0 163 145l392 1227h55l414 -1227q29 -86 54.5 -115.5t90.5 -29.5h21v-66h-512v66q139 0 139 77q0 37 -10 68l-82 254h-394l-63 -203q-16 -53 -16 -82q0 -115 157 -114h8v-66h-432zM254 1702q0 41 29.5 70.5t68.5 29.5q41 0 70.5 -29.5t29.5 -70.5 q0 -43 -29.5 -72t-70.5 -29t-69.5 29t-28.5 72zM301 551h338l-170 520zM604 1702q0 41 29.5 70.5t70.5 29.5q39 0 68.5 -29.5t29.5 -70.5q0 -43 -28.5 -72t-69.5 -29t-70.5 29t-29.5 72z" />
<glyph unicode="&#xc5;" horiz-adv-x="1056" d="M-72 0v66h15q117 0 163 145l392 1227h55l414 -1227q29 -86 54.5 -115.5t90.5 -29.5h21v-66h-512v66q139 0 139 77q0 37 -10 68l-82 254h-398l-59 -203q-16 -53 -16 -82q0 -115 157 -114h8v-66h-432zM281 1724.5q0 100.5 69.5 170t171.5 69.5q100 0 170 -68.5t70 -171 t-69.5 -171t-170.5 -68.5q-102 0 -171.5 69.5t-69.5 170zM301 555h336l-168 516zM373 1724.5q0 -63.5 43 -106.5t106.5 -43t106.5 43t43 106q0 61 -44 106.5t-105.5 45.5t-105.5 -44t-44 -107.5z" />
<glyph unicode="&#xc6;" horiz-adv-x="1531" d="M-176 0v66h6q74 0 116 33.5t79 111.5l450 981q25 57 25 82q0 35 -17.5 50t-56.5 15q-29 0 -45 -2v66h1057v-520h-66q-29 229 -127 338.5t-278 109.5q-88 0 -116 -33.5t-28 -123.5v-396h64q94 0 149.5 65.5t55.5 184.5h57v-565h-57q-6 111 -60.5 174t-134.5 63h-74v-471 q0 -90 28 -123.5t116 -33.5q197 0 301 120.5t133 376.5h61v-569h-968v66h8q78 0 106.5 31.5t28.5 113.5v254h-401l-115 -254q-29 -59 -29 -90q0 -59 76 -60q12 0 45 5v-66h-389zM276 551h361v792z" />
<glyph unicode="&#xc7;" horiz-adv-x="1142" d="M82 702q0 326 170 545q147 188 350 189q117 0 213 -66q8 -4 28.5 -20.5t33 -21.5t26.5 -5q39 0 64 80h61v-535h-72q-35 238 -126 361t-228 123q-154 0 -223.5 -160t-69.5 -492q0 -336 70 -492.5t233 -156.5q160 0 251 135.5t98 388.5h86q-2 -291 -121 -449.5t-324 -158.5 q-201 0 -350 191q-170 215 -170 544zM372 -371l35 78q127 -72 223 -72q121 0 121 93q0 90 -112 90q-29 0 -62 -6v188h64v-113q35 6 61 7q88 0 135 -43.5t47 -120.5q0 -80 -58 -128t-161 -48.5t-293 75.5z" />
<glyph unicode="&#xc8;" horiz-adv-x="1157" d="M66 0v66h8q80 0 108.5 31.5t28.5 113.5v981q0 82 -28.5 113.5t-108.5 31.5h-8v66h954v-520h-64q-29 227 -128 337.5t-279 110.5q-88 0 -115.5 -33.5t-27.5 -123.5v-396h63q94 0 150.5 65.5t56.5 184.5h55v-565h-55q-6 111 -60.5 174t-134.5 63h-75v-471 q0 -90 27.5 -123.5t115.5 -33.5q197 0 301 120.5t133 376.5h61v-569h-978zM344 1835q0 31 20.5 51t53.5 20q37 0 96 -59l289 -299h-67l-330 205q-61 39 -62 82z" />
<glyph unicode="&#xc9;" horiz-adv-x="1157" d="M66 0v66h8q80 0 108.5 31.5t28.5 113.5v981q0 82 -28.5 113.5t-108.5 31.5h-8v66h954v-520h-64q-29 227 -128 337.5t-279 110.5q-88 0 -115.5 -33.5t-27.5 -123.5v-396h63q94 0 150.5 65.5t56.5 184.5h55v-565h-55q-6 111 -60.5 174t-134.5 63h-75v-471 q0 -90 27.5 -123.5t115.5 -33.5q197 0 301 120.5t133 376.5h61v-569h-978zM451 1548l289 299q59 59 96 59q33 0 53.5 -20t20.5 -51q0 -43 -62 -82l-330 -205h-67z" />
<glyph unicode="&#xca;" horiz-adv-x="1157" d="M66 0v66h8q80 0 108.5 31.5t28.5 113.5v981q0 82 -28.5 113.5t-108.5 31.5h-8v66h954v-520h-64q-29 227 -128 337.5t-279 110.5q-88 0 -115.5 -33.5t-27.5 -123.5v-396h63q94 0 150.5 65.5t56.5 184.5h55v-565h-55q-6 111 -60.5 174t-134.5 63h-75v-471 q0 -90 27.5 -123.5t115.5 -33.5q197 0 301 120.5t133 376.5h61v-569h-978zM336 1548l232 348h118l232 -348h-58l-233 209l-233 -209h-58z" />
<glyph unicode="&#xcb;" horiz-adv-x="1157" d="M66 0v66h8q80 0 108.5 31.5t28.5 113.5v981q0 82 -28.5 113.5t-108.5 31.5h-8v66h954v-520h-64q-29 227 -128 337.5t-279 110.5q-88 0 -115.5 -33.5t-27.5 -123.5v-396h63q94 0 150.5 65.5t56.5 184.5h55v-565h-55q-6 111 -60.5 174t-134.5 63h-75v-471 q0 -90 27.5 -123.5t115.5 -33.5q197 0 301 120.5t133 376.5h61v-569h-978zM353 1702q0 41 29.5 70.5t68.5 29.5q41 0 70.5 -29.5t29.5 -70.5q0 -43 -29.5 -72t-70.5 -29t-69.5 29t-28.5 72zM703 1702q0 41 29.5 70.5t70.5 29.5q39 0 68.5 -29.5t29.5 -70.5q0 -43 -28.5 -72 t-69.5 -29t-70.5 29t-29.5 72z" />
<glyph unicode="&#xcc;" horiz-adv-x="620" d="M28 1835q0 31 20.5 51t53.5 20q37 0 96 -59l289 -299h-67l-330 205q-61 39 -62 82zM66 0v66h8q80 0 108.5 31.5t28.5 113.5v981q0 82 -28.5 113.5t-108.5 31.5h-8v66h489v-66h-8q-80 0 -108.5 -31.5t-28.5 -113.5v-981q0 -82 28.5 -113.5t108.5 -31.5h8v-66h-489z" />
<glyph unicode="&#xcd;" horiz-adv-x="620" d="M66 0v66h8q80 0 108.5 31.5t28.5 113.5v981q0 82 -28.5 113.5t-108.5 31.5h-8v66h489v-66h-8q-80 0 -108.5 -31.5t-28.5 -113.5v-981q0 -82 28.5 -113.5t108.5 -31.5h8v-66h-489zM135 1548l289 299q59 59 96 59q33 0 53.5 -20t20.5 -51q0 -43 -62 -82l-330 -205h-67z" />
<glyph unicode="&#xce;" horiz-adv-x="620" d="M20 1548l232 348h118l232 -348h-58l-233 209l-233 -209h-58zM66 0v66h8q80 0 108.5 31.5t28.5 113.5v981q0 82 -28.5 113.5t-108.5 31.5h-8v66h489v-66h-8q-80 0 -108.5 -31.5t-28.5 -113.5v-981q0 -82 28.5 -113.5t108.5 -31.5h8v-66h-489z" />
<glyph unicode="&#xcf;" horiz-adv-x="620" d="M37 1702q0 41 29.5 70.5t68.5 29.5q41 0 70.5 -29.5t29.5 -70.5q0 -43 -29.5 -72t-70.5 -29t-69.5 29t-28.5 72zM66 0v66h8q80 0 108.5 31.5t28.5 113.5v981q0 82 -28.5 113.5t-108.5 31.5h-8v66h489v-66h-8q-80 0 -108.5 -31.5t-28.5 -113.5v-981q0 -82 28.5 -113.5 t108.5 -31.5h8v-66h-489zM387 1702q0 41 29.5 70.5t70.5 29.5q39 0 68.5 -29.5t29.5 -70.5q0 -43 -28.5 -72t-69.5 -29t-70.5 29t-29.5 72z" />
<glyph unicode="&#xd0;" horiz-adv-x="1224" d="M2 700v86h211v406q0 78 -30.5 111.5t-102.5 33.5h-14v66h434q127 0 215 -19.5t168 -78.5q266 -199 266 -602.5t-266 -602.5q-80 -59 -168 -79.5t-215 -20.5h-434v66h14q72 0 102.5 33.5t30.5 111.5v489h-211zM403 229q0 -88 31 -122.5t113 -34.5q201 0 288 152.5t87 478 t-87 477t-288 151.5q-82 0 -113 -34.5t-31 -122.5v-388h261v-86h-261v-471z" />
<glyph unicode="&#xd1;" horiz-adv-x="1179" d="M35 0v66h8q78 0 106.5 31.5t28.5 113.5v1008l-20 38q-47 80 -123 80v66h280l607 -1026v815q0 82 -29 113.5t-107 31.5h-8v66h375v-66h-8q-80 0 -108.5 -31.5t-28.5 -113.5v-1206h-80l-664 1122v-897q0 -82 29 -113.5t108 -31.5h9v-66h-375zM303 1595q37 211 197 211 q33 0 63 -8l111 -29q41 -10 55 -10q68 0 94 86h54q-39 -205 -195 -205q-29 0 -74 10l-108 27q-33 8 -49 8q-39 0 -60.5 -20.5t-36.5 -69.5h-51z" />
<glyph unicode="&#xd2;" horiz-adv-x="1193" d="M76 702.5q0 329.5 170 544.5q147 188 352 189q203 0 350 -189q170 -215 170 -545q0 -326 -170 -544q-150 -190 -350 -191q-203 0 -352 191q-170 215 -170 544.5zM303 700.5q0 -331.5 69.5 -490.5t225.5 -159q154 0 223.5 159t69.5 490.5t-69.5 491.5t-223.5 160 t-224.5 -160t-70.5 -491.5zM315 1835q0 31 20.5 51t53.5 20q37 0 96 -59l289 -299h-67l-330 205q-61 39 -62 82z" />
<glyph unicode="&#xd3;" horiz-adv-x="1193" d="M76 702.5q0 329.5 170 544.5q147 188 352 189q203 0 350 -189q170 -215 170 -545q0 -326 -170 -544q-150 -190 -350 -191q-203 0 -352 191q-170 215 -170 544.5zM303 700.5q0 -331.5 69.5 -490.5t225.5 -159q154 0 223.5 159t69.5 490.5t-69.5 491.5t-223.5 160 t-224.5 -160t-70.5 -491.5zM422 1548l289 299q59 59 96 59q33 0 53.5 -20t20.5 -51q0 -43 -62 -82l-330 -205h-67z" />
<glyph unicode="&#xd4;" horiz-adv-x="1193" d="M76 702.5q0 329.5 170 544.5q147 188 352 189q203 0 350 -189q170 -215 170 -545q0 -326 -170 -544q-150 -190 -350 -191q-203 0 -352 191q-170 215 -170 544.5zM303 700.5q0 -331.5 69.5 -490.5t225.5 -159q154 0 223.5 159t69.5 490.5t-69.5 491.5t-223.5 160 t-224.5 -160t-70.5 -491.5zM307 1548l232 348h118l232 -348h-58l-233 209l-233 -209h-58z" />
<glyph unicode="&#xd5;" horiz-adv-x="1193" d="M76 702.5q0 329.5 170 544.5q147 188 352 189q203 0 350 -189q170 -215 170 -545q0 -326 -170 -544q-150 -190 -350 -191q-203 0 -352 191q-170 215 -170 544.5zM303 700.5q0 -331.5 69.5 -490.5t225.5 -159q154 0 223.5 159t69.5 490.5t-69.5 491.5t-223.5 160 t-224.5 -160t-70.5 -491.5zM311 1595q37 211 197 211q33 0 63 -8l111 -29q41 -10 55 -10q68 0 94 86h54q-39 -205 -195 -205q-29 0 -74 10l-108 27q-33 8 -49 8q-39 0 -60.5 -20.5t-36.5 -69.5h-51z" />
<glyph unicode="&#xd6;" horiz-adv-x="1193" d="M76 702.5q0 329.5 170 544.5q147 188 352 189q203 0 350 -189q170 -215 170 -545q0 -326 -170 -544q-150 -190 -350 -191q-203 0 -352 191q-170 215 -170 544.5zM303 700.5q0 -331.5 69.5 -490.5t225.5 -159q154 0 223.5 159t69.5 490.5t-69.5 491.5t-223.5 160 t-224.5 -160t-70.5 -491.5zM324 1702q0 41 29.5 70.5t68.5 29.5q41 0 70.5 -29.5t29.5 -70.5q0 -43 -29.5 -72t-70.5 -29t-69.5 29t-28.5 72zM674 1702q0 41 29.5 70.5t70.5 29.5q39 0 68.5 -29.5t29.5 -70.5q0 -43 -28.5 -72t-69.5 -29t-70.5 29t-29.5 72z" />
<glyph unicode="&#xd7;" horiz-adv-x="1705" d="M301 135l475 475l-475 477l80 82l477 -477l475 477l82 -82l-475 -477l475 -475l-82 -82l-475 475l-477 -475z" />
<glyph unicode="&#xd8;" horiz-adv-x="1193" d="M33 -111l188 299q-145 207 -145 514q0 326 170 545q147 188 352 189q178 0 313 -146l93 146h108l-137 -224q143 -201 143 -510q0 -328 -170 -546q-147 -188 -350 -189q-172 0 -315 144l-140 -222h-110zM303 700q0 -215 25 -344l503 809q-59 186 -233 187 q-154 0 -224.5 -160t-70.5 -492zM358 236q84 -184 240 -185q154 0 223.5 159t69.5 490q0 227 -23 342z" />
<glyph unicode="&#xd9;" horiz-adv-x="1103" d="M23 1337v66h489v-66h-8q-80 0 -108.5 -31.5t-28.5 -113.5v-752q0 -201 56 -295t181 -94q274 0 275 389v752q0 82 -29 113.5t-109 31.5h-8v66h375v-66h-8q-80 0 -108.5 -31.5t-28.5 -113.5v-717q0 -264 -92.5 -386t-297.5 -122q-190 0 -297.5 119t-107.5 330v776 q0 82 -28.5 113.5t-108.5 31.5h-8zM325 1835q0 31 20.5 51t53.5 20q37 0 96 -59l289 -299h-67l-330 205q-61 39 -62 82z" />
<glyph unicode="&#xda;" horiz-adv-x="1103" d="M23 1337v66h489v-66h-8q-80 0 -108.5 -31.5t-28.5 -113.5v-752q0 -201 56 -295t181 -94q274 0 275 389v752q0 82 -29 113.5t-109 31.5h-8v66h375v-66h-8q-80 0 -108.5 -31.5t-28.5 -113.5v-717q0 -264 -92.5 -386t-297.5 -122q-190 0 -297.5 119t-107.5 330v776 q0 82 -28.5 113.5t-108.5 31.5h-8zM432 1548l289 299q59 59 96 59q33 0 53.5 -20t20.5 -51q0 -43 -62 -82l-330 -205h-67z" />
<glyph unicode="&#xdb;" horiz-adv-x="1103" d="M23 1337v66h489v-66h-8q-80 0 -108.5 -31.5t-28.5 -113.5v-752q0 -201 56 -295t181 -94q274 0 275 389v752q0 82 -29 113.5t-109 31.5h-8v66h375v-66h-8q-80 0 -108.5 -31.5t-28.5 -113.5v-717q0 -264 -92.5 -386t-297.5 -122q-190 0 -297.5 119t-107.5 330v776 q0 82 -28.5 113.5t-108.5 31.5h-8zM317 1548l232 348h118l232 -348h-58l-233 209l-233 -209h-58z" />
<glyph unicode="&#xdc;" horiz-adv-x="1103" d="M23 1337v66h489v-66h-8q-80 0 -108.5 -31.5t-28.5 -113.5v-752q0 -201 56 -295t181 -94q274 0 275 389v752q0 82 -29 113.5t-109 31.5h-8v66h375v-66h-8q-80 0 -108.5 -31.5t-28.5 -113.5v-717q0 -264 -92.5 -386t-297.5 -122q-190 0 -297.5 119t-107.5 330v776 q0 82 -28.5 113.5t-108.5 31.5h-8zM334 1702q0 41 29.5 70.5t68.5 29.5q41 0 70.5 -29.5t29.5 -70.5q0 -43 -29.5 -72t-70.5 -29t-69.5 29t-28.5 72zM684 1702q0 41 29.5 70.5t70.5 29.5q39 0 68.5 -29.5t29.5 -70.5q0 -43 -28.5 -72t-69.5 -29t-70.5 29t-29.5 72z" />
<glyph unicode="&#xdd;" horiz-adv-x="970" d="M-84 1337v66h498v-66q-16 2 -43 2q-78 0 -78 -59q0 -10 33 -88l198 -465l213 465q31 68 31 88q0 59 -78 59q-27 0 -43 -2v66h383v-66h-6q-78 0 -117 -32.5t-78 -112.5l-268 -567v-414q0 -82 28.5 -113.5t108.5 -31.5h9v-66h-484v66h8q78 0 107 31.5t29 113.5v389 l-250 592q-61 145 -185 145h-16zM309 1548l289 299q59 59 96 59q33 0 53.5 -20t20.5 -51q0 -43 -62 -82l-330 -205h-67z" />
<glyph unicode="&#xde;" horiz-adv-x="1054" d="M72 0v66h8q80 0 108.5 31.5t28.5 113.5v981q0 82 -28.5 113.5t-108.5 31.5h-8v66h485v-66h-8q-80 0 -108.5 -31.5t-28.5 -113.5v-92h114q496 0 496 -367q0 -176 -131 -285.5t-344 -109.5h-135v-127q0 -82 28.5 -113.5t108.5 -31.5h8v-66h-485zM412 422h135 q111 0 179.5 80t68.5 215q0 145 -63.5 221t-180.5 76q-82 0 -110.5 -23t-28.5 -86v-483z" />
<glyph unicode="&#xdf;" horiz-adv-x="1103" d="M55 0v59h8q70 0 93.5 31t23.5 115v682h-125v86h125q-4 49 -4 74q0 188 100.5 289.5t280.5 101.5q170 0 280.5 -93.5t110.5 -236.5q0 -201 -233 -283q-12 -4 -29.5 -9t-27 -8t-18.5 -8t-13 -12.5t-4 -17.5q0 -14 7 -26.5t24.5 -24.5t36 -22.5t53 -30t61.5 -35.5 q133 -80 187.5 -148.5t54.5 -187.5q0 -143 -85 -233.5t-212 -90.5q-102 0 -213 88l-35 -59h-53v395h67q31 -354 213 -354q72 0 115 46t43 126t-34 130t-112 101q-27 18 -79 50t-74.5 49.5t-52 44t-41 56.5t-11.5 67t7.5 61.5t28 40.5t33.5 24.5t47 20.5t48 19 q117 53 117 225q0 260 -213 260q-190 0 -191 -193v-1169h-305z" />
<glyph unicode="&#xe0;" horiz-adv-x="905" d="M55 199q0 141 118 233t382 174v152q0 90 -37 130t-125 40q-117 0 -164 -72q84 -27 84 -115q0 -55 -28.5 -85.5t-75.5 -30.5t-75 31.5t-28 82.5q0 115 88.5 188.5t235.5 73.5q160 0 230.5 -71.5t70.5 -231.5v-557q0 -43 35 -43q57 0 57 111v84h68v-111q0 -96 -48 -150.5 t-126 -54.5q-63 0 -101 40t-61 124q-80 -170 -248 -170q-115 0 -183.5 63.5t-68.5 164.5zM170 1399q0 31 20.5 51t53.5 20q37 0 96 -59l289 -299h-67l-330 205q-61 39 -62 82zM252 205q0 -63 28.5 -100t73.5 -37q82 0 141.5 96t59.5 252v108q-145 -27 -224 -110.5 t-79 -208.5z" />
<glyph unicode="&#xe1;" horiz-adv-x="905" d="M55 199q0 141 118 233t382 174v152q0 90 -37 130t-125 40q-117 0 -164 -72q84 -27 84 -115q0 -55 -28.5 -85.5t-75.5 -30.5t-75 31.5t-28 82.5q0 115 88.5 188.5t235.5 73.5q160 0 230.5 -71.5t70.5 -231.5v-557q0 -43 35 -43q57 0 57 111v84h68v-111q0 -96 -48 -150.5 t-126 -54.5q-63 0 -101 40t-61 124q-80 -170 -248 -170q-115 0 -183.5 63.5t-68.5 164.5zM252 205q0 -63 28.5 -100t73.5 -37q82 0 141.5 96t59.5 252v108q-145 -27 -224 -110.5t-79 -208.5zM277 1112l289 299q59 59 96 59q33 0 53.5 -20t20.5 -51q0 -43 -62 -82l-330 -205 h-67z" />
<glyph unicode="&#xe2;" horiz-adv-x="905" d="M55 199q0 141 118 233t382 174v152q0 90 -37 130t-125 40q-117 0 -164 -72q84 -27 84 -115q0 -55 -28.5 -85.5t-75.5 -30.5t-75 31.5t-28 82.5q0 115 88.5 188.5t235.5 73.5q160 0 230.5 -71.5t70.5 -231.5v-557q0 -43 35 -43q57 0 57 111v84h68v-111q0 -96 -48 -150.5 t-126 -54.5q-63 0 -101 40t-61 124q-80 -170 -248 -170q-115 0 -183.5 63.5t-68.5 164.5zM162 1112l232 348h118l232 -348h-58l-233 209l-233 -209h-58zM252 205q0 -63 28.5 -100t73.5 -37q82 0 141.5 96t59.5 252v108q-145 -27 -224 -110.5t-79 -208.5z" />
<glyph unicode="&#xe3;" horiz-adv-x="905" d="M55 199q0 141 118 233t382 174v152q0 90 -37 130t-125 40q-117 0 -164 -72q84 -27 84 -115q0 -55 -28.5 -85.5t-75.5 -30.5t-75 31.5t-28 82.5q0 115 88.5 188.5t235.5 73.5q160 0 230.5 -71.5t70.5 -231.5v-557q0 -43 35 -43q57 0 57 111v84h68v-111q0 -96 -48 -150.5 t-126 -54.5q-63 0 -101 40t-61 124q-80 -170 -248 -170q-115 0 -183.5 63.5t-68.5 164.5zM166 1159q37 211 197 211q33 0 63 -8l111 -29q41 -10 55 -10q68 0 94 86h54q-39 -205 -195 -205q-29 0 -74 10l-108 27q-33 8 -49 8q-39 0 -60.5 -20.5t-36.5 -69.5h-51zM252 205 q0 -63 28.5 -100t73.5 -37q82 0 141.5 96t59.5 252v108q-145 -27 -224 -110.5t-79 -208.5z" />
<glyph unicode="&#xe4;" horiz-adv-x="905" d="M55 199q0 141 118 233t382 174v152q0 90 -37 130t-125 40q-117 0 -164 -72q84 -27 84 -115q0 -55 -28.5 -85.5t-75.5 -30.5t-75 31.5t-28 82.5q0 115 88.5 188.5t235.5 73.5q160 0 230.5 -71.5t70.5 -231.5v-557q0 -43 35 -43q57 0 57 111v84h68v-111q0 -96 -48 -150.5 t-126 -54.5q-63 0 -101 40t-61 124q-80 -170 -248 -170q-115 0 -183.5 63.5t-68.5 164.5zM179 1266q0 41 29.5 70.5t68.5 29.5q41 0 70.5 -29.5t29.5 -70.5q0 -43 -29.5 -72t-70.5 -29t-69.5 29t-28.5 72zM252 205q0 -63 28.5 -100t73.5 -37q82 0 141.5 96t59.5 252v108 q-145 -27 -224 -110.5t-79 -208.5zM529 1266q0 41 29.5 70.5t70.5 29.5q39 0 68.5 -29.5t29.5 -70.5q0 -43 -28.5 -72t-69.5 -29t-70.5 29t-29.5 72z" />
<glyph unicode="&#xe5;" horiz-adv-x="905" d="M55 199q0 141 118 233t382 174v152q0 90 -37 130t-125 40q-117 0 -164 -72q84 -27 84 -115q0 -55 -28.5 -85.5t-75.5 -30.5t-75 31.5t-28 82.5q0 115 88.5 188.5t235.5 73.5q160 0 230.5 -71.5t70.5 -231.5v-557q0 -43 35 -43q57 0 57 111v84h68v-111q0 -96 -48 -150.5 t-126 -54.5q-63 0 -101 40t-61 124q-80 -170 -248 -170q-115 0 -183.5 63.5t-68.5 164.5zM193 1309q0 100 69.5 169.5t169.5 69.5q102 0 172 -69.5t70 -170t-71 -171t-171 -70.5t-169.5 70t-69.5 172zM252 205q0 -63 28.5 -100t73.5 -37q82 0 141.5 96t59.5 252v108 q-145 -27 -224 -110.5t-79 -208.5zM283 1308.5q0 -63.5 43 -106.5t106.5 -43t106.5 43t43 107q0 61 -44 105t-105.5 44t-105.5 -43t-44 -106.5z" />
<glyph unicode="&#xe6;" horiz-adv-x="1335" d="M55 199q0 141 118 233t382 174v152q0 90 -37 129t-125 39q-117 0 -164 -70q84 -27 84 -115q0 -53 -27.5 -84.5t-72.5 -31.5q-47 0 -77 31.5t-30 86.5q0 111 89.5 183.5t238.5 72.5q158 0 250 -98q88 98 238 98q170 0 263 -130t93 -373h-555v-31q0 -418 229 -418 q96 0 166 76t90 205h72q-20 -168 -111.5 -262.5t-230.5 -94.5q-213 0 -336 207q-70 -109 -138.5 -158t-156.5 -49q-115 0 -183.5 63.5t-68.5 164.5zM252 205q0 -63 28.5 -100t73.5 -37q82 0 141.5 96t59.5 252v108q-145 -27 -224 -110.5t-79 -208.5zM721 575h364 q-2 170 -50 260.5t-134 90.5q-78 0 -127 -92.5t-53 -258.5z" />
<glyph unicode="&#xe7;" horiz-adv-x="868" d="M70 485q0 227 114.5 371.5t282.5 144.5q131 0 216 -81.5t85 -196.5q0 -129 -109 -129q-43 0 -70.5 31.5t-27.5 85.5q0 102 92 112q-4 41 -50 71t-109 30q-119 0 -173.5 -106.5t-54.5 -332.5q0 -223 54.5 -330.5t173.5 -107.5q100 0 155.5 75t55.5 214v14h75v-24 q0 -168 -79.5 -261.5t-223.5 -93.5q-178 0 -292.5 142.5t-114.5 371.5zM196 -371l35 78q127 -72 223 -72q121 0 121 93q0 90 -112 90q-29 0 -62 -6v188h64v-113q35 6 61 7q88 0 135 -43.5t47 -120.5q0 -80 -58 -128t-161 -48.5t-293 75.5z" />
<glyph unicode="&#xe8;" horiz-adv-x="847" d="M43 485q0 227 113.5 371.5t287.5 144.5q162 0 255.5 -133t93.5 -372h-555v-31q0 -418 229 -418q94 0 163.5 75t90.5 206h72q-20 -168 -111.5 -262.5t-230.5 -94.5q-178 0 -293 142.5t-115 371.5zM141 1399q0 31 20.5 51t53.5 20q37 0 96 -59l289 -299h-67l-330 205 q-61 39 -62 82zM236 575h362q-2 170 -50 259.5t-134 89.5q-78 0 -126 -91.5t-52 -257.5z" />
<glyph unicode="&#xe9;" horiz-adv-x="847" d="M43 485q0 227 113.5 371.5t287.5 144.5q162 0 255.5 -133t93.5 -372h-555v-31q0 -418 229 -418q94 0 163.5 75t90.5 206h72q-20 -168 -111.5 -262.5t-230.5 -94.5q-178 0 -293 142.5t-115 371.5zM236 575h362q-2 170 -50 259.5t-134 89.5q-78 0 -126 -91.5t-52 -257.5z M248 1112l289 299q59 59 96 59q33 0 53.5 -20t20.5 -51q0 -43 -62 -82l-330 -205h-67z" />
<glyph unicode="&#xea;" horiz-adv-x="847" d="M43 485q0 227 113.5 371.5t287.5 144.5q162 0 255.5 -133t93.5 -372h-555v-31q0 -418 229 -418q94 0 163.5 75t90.5 206h72q-20 -168 -111.5 -262.5t-230.5 -94.5q-178 0 -293 142.5t-115 371.5zM133 1112l232 348h118l232 -348h-58l-233 209l-233 -209h-58zM236 575h362 q-2 170 -50 259.5t-134 89.5q-78 0 -126 -91.5t-52 -257.5z" />
<glyph unicode="&#xeb;" horiz-adv-x="847" d="M43 485q0 227 113.5 371.5t287.5 144.5q162 0 255.5 -133t93.5 -372h-555v-31q0 -418 229 -418q94 0 163.5 75t90.5 206h72q-20 -168 -111.5 -262.5t-230.5 -94.5q-178 0 -293 142.5t-115 371.5zM150 1266q0 41 29.5 70.5t68.5 29.5q41 0 70.5 -29.5t29.5 -70.5 q0 -43 -29.5 -72t-70.5 -29t-69.5 29t-28.5 72zM236 575h362q-2 170 -50 259.5t-134 89.5q-78 0 -126 -91.5t-52 -257.5zM500 1266q0 41 29.5 70.5t70.5 29.5q39 0 68.5 -29.5t29.5 -70.5q0 -43 -28.5 -72t-69.5 -29t-70.5 29t-29.5 72z" />
<glyph unicode="&#xec;" horiz-adv-x="497" d="M-21 1399q0 31 20.5 51t53.5 20q37 0 96 -59l289 -299h-67l-330 205q-61 39 -62 82zM41 0v59h8q70 0 93.5 31t23.5 115v577q0 74 -24.5 102.5t-92.5 28.5h-8v60l305 10v-778q0 -82 25.5 -114t95.5 -32h25v-59h-451z" />
<glyph unicode="&#xed;" horiz-adv-x="497" d="M41 0v59h8q70 0 93.5 31t23.5 115v577q0 74 -24.5 102.5t-92.5 28.5h-8v60l305 10v-778q0 -82 25.5 -114t95.5 -32h25v-59h-451zM86 1112l289 299q59 59 96 59q33 0 53.5 -20t20.5 -51q0 -43 -62 -82l-330 -205h-67z" />
<glyph unicode="&#xee;" horiz-adv-x="497" d="M-29 1112l232 348h118l232 -348h-58l-233 209l-233 -209h-58zM41 0v59h8q70 0 93.5 31t23.5 115v577q0 74 -24.5 102.5t-92.5 28.5h-8v60l305 10v-778q0 -82 25.5 -114t95.5 -32h25v-59h-451z" />
<glyph unicode="&#xef;" horiz-adv-x="497" d="M-12 1266q0 41 29.5 70.5t68.5 29.5q41 0 70.5 -29.5t29.5 -70.5q0 -43 -29.5 -72t-70.5 -29t-69.5 29t-28.5 72zM41 0v59h8q70 0 93.5 31t23.5 115v577q0 74 -24.5 102.5t-92.5 28.5h-8v60l305 10v-778q0 -82 25.5 -114t95.5 -32h25v-59h-451zM338 1266q0 41 29.5 70.5 t70.5 29.5q39 0 68.5 -29.5t29.5 -70.5q0 -43 -28.5 -72t-69.5 -29t-70.5 29t-29.5 72z" />
<glyph unicode="&#xf0;" horiz-adv-x="905" d="M70 485q0 227 113.5 370.5t285.5 143.5q41 0 90 -18q-41 86 -115 203l-264 -133l-35 67l256 129q-66 82 -149 180l41 33q141 -121 192 -172l242 127l35 -69l-221 -115q297 -322 297 -723q0 -240 -113 -388.5t-272 -148.5q-158 0 -270.5 144.5t-112.5 369.5zM268 485.5 q0 -225.5 44 -332t141 -106.5q98 0 141 106.5t43 332t-44 332t-140.5 106.5t-140.5 -106.5t-44 -332z" />
<glyph unicode="&#xf1;" horiz-adv-x="1013" d="M49 0v59h8q70 0 94.5 32t24.5 114v577q0 74 -25.5 102.5t-93.5 28.5h-8v60l283 10l8 -180q106 193 274 192q131 0 189.5 -80.5t58.5 -255.5v-454q0 -82 24.5 -114t90.5 -32h6v-59h-295v643q0 135 -27.5 193.5t-99.5 58.5q-92 0 -151.5 -103.5t-59.5 -293.5v-293 q0 -82 25.5 -114t95.5 -32h25v-59h-447zM243 1159q37 211 197 211q33 0 63 -8l111 -29q41 -10 55 -10q68 0 94 86h54q-39 -205 -195 -205q-29 0 -74 10l-108 27q-33 8 -49 8q-39 0 -60.5 -20.5t-36.5 -69.5h-51z" />
<glyph unicode="&#xf2;" horiz-adv-x="905" d="M70 485.5q0 223.5 113.5 368.5t269.5 145q158 0 271.5 -145t113.5 -368.5t-114 -369t-271 -145.5q-156 0 -269.5 145.5t-113.5 369zM170 1399q0 31 20.5 51t53.5 20q37 0 96 -59l289 -299h-67l-330 205q-61 39 -62 82zM268 485.5q0 -225.5 44.5 -332t140.5 -106.5 q98 0 141 106.5t43 332t-43 332t-141 106.5q-96 0 -140.5 -106.5t-44.5 -332z" />
<glyph unicode="&#xf3;" horiz-adv-x="905" d="M70 485.5q0 223.5 113.5 368.5t269.5 145q158 0 271.5 -145t113.5 -368.5t-114 -369t-271 -145.5q-156 0 -269.5 145.5t-113.5 369zM268 485.5q0 -225.5 44.5 -332t140.5 -106.5q98 0 141 106.5t43 332t-43 332t-141 106.5q-96 0 -140.5 -106.5t-44.5 -332zM277 1112 l289 299q59 59 96 59q33 0 53.5 -20t20.5 -51q0 -43 -62 -82l-330 -205h-67z" />
<glyph unicode="&#xf4;" horiz-adv-x="905" d="M70 485.5q0 223.5 113.5 368.5t269.5 145q158 0 271.5 -145t113.5 -368.5t-114 -369t-271 -145.5q-156 0 -269.5 145.5t-113.5 369zM162 1112l232 348h118l232 -348h-58l-233 209l-233 -209h-58zM268 485.5q0 -225.5 44.5 -332t140.5 -106.5q98 0 141 106.5t43 332 t-43 332t-141 106.5q-96 0 -140.5 -106.5t-44.5 -332z" />
<glyph unicode="&#xf5;" horiz-adv-x="905" d="M70 485.5q0 223.5 113.5 368.5t269.5 145q158 0 271.5 -145t113.5 -368.5t-114 -369t-271 -145.5q-156 0 -269.5 145.5t-113.5 369zM166 1159q37 211 197 211q33 0 63 -8l111 -29q41 -10 55 -10q68 0 94 86h54q-39 -205 -195 -205q-29 0 -74 10l-108 27q-33 8 -49 8 q-39 0 -60.5 -20.5t-36.5 -69.5h-51zM268 485.5q0 -225.5 44.5 -332t140.5 -106.5q98 0 141 106.5t43 332t-43 332t-141 106.5q-96 0 -140.5 -106.5t-44.5 -332z" />
<glyph unicode="&#xf6;" horiz-adv-x="905" d="M70 485.5q0 223.5 113.5 368.5t269.5 145q158 0 271.5 -145t113.5 -368.5t-114 -369t-271 -145.5q-156 0 -269.5 145.5t-113.5 369zM179 1266q0 41 29.5 70.5t68.5 29.5q41 0 70.5 -29.5t29.5 -70.5q0 -43 -29.5 -72t-70.5 -29t-69.5 29t-28.5 72zM268 485.5 q0 -225.5 44.5 -332t140.5 -106.5q98 0 141 106.5t43 332t-43 332t-141 106.5q-96 0 -140.5 -106.5t-44.5 -332zM529 1266q0 41 29.5 70.5t70.5 29.5q39 0 68.5 -29.5t29.5 -70.5q0 -43 -28.5 -72t-69.5 -29t-70.5 29t-29.5 72z" />
<glyph unicode="&#xf7;" horiz-adv-x="1705" d="M254 553v117h1198v-117h-1198zM739 250q0 49 34 82t81 33t81 -34t34 -81t-33 -81t-82 -34q-47 0 -81 34t-34 81zM739 971q0 47 34 80.5t81 33.5t81 -33.5t34 -80.5t-33 -81t-82 -34t-82 34t-33 81z" />
<glyph unicode="&#xf8;" horiz-adv-x="905" d="M10 -170l176 285q-117 147 -116 370q0 225 112.5 369.5t270.5 144.5q115 0 215 -88l86 150h88l-123 -205q119 -150 119 -371q0 -223 -115 -368.5t-270 -145.5q-115 0 -215 88l-140 -229h-88zM268 485q0 -156 13 -215l319 533q-47 121 -147 121q-96 0 -140.5 -106.5 t-44.5 -332.5zM305 168q47 -121 148 -121q96 0 140 106.5t44 331.5q0 158 -12 217z" />
<glyph unicode="&#xf9;" horiz-adv-x="1013" d="M29 913v60l301 10v-653q0 -135 27.5 -193.5t99.5 -58.5q92 0 150.5 103.5t58.5 293.5v307q0 74 -25 102.5t-92 28.5h-8v60l301 10v-793q0 -74 24.5 -102.5t91.5 -28.5h9v-59l-283 -12l-6 180q-106 -193 -275 -193q-131 0 -190 82t-59 256v469q0 74 -25 102.5t-92 28.5h-8 zM198 1399q0 31 20.5 51t53.5 20q37 0 96 -59l289 -299h-67l-330 205q-61 39 -62 82z" />
<glyph unicode="&#xfa;" horiz-adv-x="1013" d="M29 913v60l301 10v-653q0 -135 27.5 -193.5t99.5 -58.5q92 0 150.5 103.5t58.5 293.5v307q0 74 -25 102.5t-92 28.5h-8v60l301 10v-793q0 -74 24.5 -102.5t91.5 -28.5h9v-59l-283 -12l-6 180q-106 -193 -275 -193q-131 0 -190 82t-59 256v469q0 74 -25 102.5t-92 28.5h-8 zM305 1112l289 299q59 59 96 59q33 0 53.5 -20t20.5 -51q0 -43 -62 -82l-330 -205h-67z" />
<glyph unicode="&#xfb;" horiz-adv-x="1013" d="M29 913v60l301 10v-653q0 -135 27.5 -193.5t99.5 -58.5q92 0 150.5 103.5t58.5 293.5v307q0 74 -25 102.5t-92 28.5h-8v60l301 10v-793q0 -74 24.5 -102.5t91.5 -28.5h9v-59l-283 -12l-6 180q-106 -193 -275 -193q-131 0 -190 82t-59 256v469q0 74 -25 102.5t-92 28.5h-8 zM190 1112l232 348h118l232 -348h-58l-233 209l-233 -209h-58z" />
<glyph unicode="&#xfc;" horiz-adv-x="1013" d="M29 913v60l301 10v-653q0 -135 27.5 -193.5t99.5 -58.5q92 0 150.5 103.5t58.5 293.5v307q0 74 -25 102.5t-92 28.5h-8v60l301 10v-793q0 -74 24.5 -102.5t91.5 -28.5h9v-59l-283 -12l-6 180q-106 -193 -275 -193q-131 0 -190 82t-59 256v469q0 74 -25 102.5t-92 28.5h-8 zM207 1266q0 41 29.5 70.5t68.5 29.5q41 0 70.5 -29.5t29.5 -70.5q0 -43 -29.5 -72t-70.5 -29t-69.5 29t-28.5 72zM557 1266q0 41 29.5 70.5t70.5 29.5q39 0 68.5 -29.5t29.5 -70.5q0 -43 -28.5 -72t-69.5 -29t-70.5 29t-29.5 72z" />
<glyph unicode="&#xfd;" horiz-adv-x="825" d="M-20 913v60h426v-60h-9q-102 0 -102 -77q0 -14 6 -33l174 -522l174 524q8 23 8 37q0 72 -118 71v60h335v-60q-63 0 -87.5 -20.5t-45.5 -75.5l-354 -1022q-35 -98 -74 -141t-110 -43q-76 0 -123 50t-47 130q0 61 31.5 99t78.5 38q43 0 69 -29.5t26 -82.5q0 -43 -22.5 -69 t-57.5 -26q-9 1 -29 5q18 -45 76 -45q70 0 104 104l74 221l-272 811q-20 55 -43 75.5t-80 20.5h-8zM238 1112l289 299q59 59 96 59q33 0 53.5 -20t20.5 -51q0 -43 -62 -82l-330 -205h-67z" />
<glyph unicode="&#xfe;" horiz-adv-x="978" d="M31 -311h8q70 0 93.5 30.5t23.5 114.5v1380q0 74 -25 101.5t-92 27.5h-8v60l301 12v-588q35 80 93 125t126 45q145 0 250.5 -144t105.5 -367.5t-105.5 -367t-250.5 -143.5q-129 0 -219 148v-289q0 -82 25.5 -113.5t95.5 -31.5h24v-60h-446v60zM332 485.5 q0 -200.5 56 -310t144 -109.5q176 0 177 419q-1 422 -177 422q-88 0 -144 -110.5t-56 -311z" />
<glyph unicode="&#xff;" horiz-adv-x="825" d="M-20 913v60h426v-60h-9q-102 0 -102 -77q0 -14 6 -33l174 -522l174 524q8 23 8 37q0 72 -118 71v60h335v-60q-63 0 -87.5 -20.5t-45.5 -75.5l-354 -1022q-35 -98 -74 -141t-110 -43q-76 0 -123 50t-47 130q0 61 31.5 99t78.5 38q43 0 69 -29.5t26 -82.5q0 -43 -22.5 -69 t-57.5 -26q-9 1 -29 5q18 -45 76 -45q70 0 104 104l74 221l-272 811q-20 55 -43 75.5t-80 20.5h-8zM140 1266q0 41 29.5 70.5t68.5 29.5q41 0 70.5 -29.5t29.5 -70.5q0 -43 -29.5 -72t-70.5 -29t-69.5 29t-28.5 72zM490 1266q0 41 29.5 70.5t70.5 29.5q39 0 68.5 -29.5 t29.5 -70.5q0 -43 -28.5 -72t-69.5 -29t-70.5 29t-29.5 72z" />
<glyph unicode="&#x152;" horiz-adv-x="1773" d="M76 702q0 326 170 545q150 188 360 189q20 0 159.5 -16.5t264.5 -16.5h615v-520h-66q-29 227 -128 337.5t-280 110.5q-88 0 -114.5 -33.5t-26.5 -123.5v-396h64q94 0 149 65.5t55 184.5h58v-565h-58q-6 111 -60 174t-134 63h-74v-471q0 -90 27.5 -123.5t116.5 -33.5 q197 0 300 120.5t132 376.5h63v-569h-639q-129 0 -275.5 -16.5t-164.5 -16.5q-141 0 -252 92q-262 223 -262 643zM303 700.5q0 -331.5 70.5 -490.5t224.5 -159q246 1 246 320v663q0 317 -246 318q-154 0 -224.5 -160t-70.5 -491.5z" />
<glyph unicode="&#x153;" horiz-adv-x="1435" d="M70 485q0 225 112.5 369.5t270.5 144.5q160 0 276 -155q131 156 291 155q170 0 263 -130t93 -373h-553v-33q0 -416 228 -416q96 0 165.5 76t90.5 205h71q-20 -168 -111 -262.5t-231 -94.5q-184 0 -305 160q-121 -160 -278 -160q-156 0 -269.5 145.5t-113.5 368.5z M268 485.5q0 -225.5 44.5 -332t140.5 -106.5q98 0 141 106.5t43 332t-43 332t-141 106.5q-96 0 -140.5 -106.5t-44.5 -332zM819 575h365q-2 170 -50.5 259.5t-134.5 89.5q-78 0 -127 -91.5t-53 -257.5z" />
<glyph unicode="&#x178;" horiz-adv-x="970" d="M-84 1337v66h498v-66q-16 2 -43 2q-78 0 -78 -59q0 -10 33 -88l198 -465l213 465q31 68 31 88q0 59 -78 59q-27 0 -43 -2v66h383v-66h-6q-78 0 -117 -32.5t-78 -112.5l-268 -567v-414q0 -82 28.5 -113.5t108.5 -31.5h9v-66h-484v66h8q78 0 107 31.5t29 113.5v389 l-250 592q-61 145 -185 145h-16zM211 1702q0 41 29.5 70.5t68.5 29.5q41 0 70.5 -29.5t29.5 -70.5q0 -43 -29.5 -72t-70.5 -29t-69.5 29t-28.5 72zM561 1702q0 41 29.5 70.5t70.5 29.5q39 0 68.5 -29.5t29.5 -70.5q0 -43 -28.5 -72t-69.5 -29t-70.5 29t-29.5 72z" />
<glyph unicode="&#x2c6;" d="M221 1112l232 348h118l232 -348h-58l-233 209l-233 -209h-58z" />
<glyph unicode="&#x2dc;" d="M225 1159q37 211 197 211q33 0 63 -8l111 -29q41 -10 55 -10q68 0 94 86h54q-39 -205 -195 -205q-29 0 -74 10l-108 27q-33 8 -49 8q-39 0 -60.5 -20.5t-36.5 -69.5h-51z" />
<glyph unicode="&#x2000;" horiz-adv-x="982" />
<glyph unicode="&#x2001;" horiz-adv-x="1964" />
<glyph unicode="&#x2002;" horiz-adv-x="982" />
<glyph unicode="&#x2003;" horiz-adv-x="1964" />
<glyph unicode="&#x2004;" horiz-adv-x="654" />
<glyph unicode="&#x2005;" horiz-adv-x="491" />
<glyph unicode="&#x2006;" horiz-adv-x="327" />
<glyph unicode="&#x2007;" horiz-adv-x="327" />
<glyph unicode="&#x2008;" horiz-adv-x="245" />
<glyph unicode="&#x2009;" horiz-adv-x="392" />
<glyph unicode="&#x200a;" horiz-adv-x="109" />
<glyph unicode="&#x2010;" horiz-adv-x="569" d="M86 455v161h401v-161h-401z" />
<glyph unicode="&#x2011;" horiz-adv-x="569" d="M86 455v161h401v-161h-401z" />
<glyph unicode="&#x2012;" horiz-adv-x="569" d="M86 455v161h401v-161h-401z" />
<glyph unicode="&#x2013;" d="M0 473v115h1024v-115h-1024z" />
<glyph unicode="&#x2014;" horiz-adv-x="2048" d="M0 473v115h2048v-115h-2048z" />
<glyph unicode="&#x2018;" horiz-adv-x="454" d="M117 1020q0 219 166 416l59 -41q-115 -137 -137 -287q25 8 35 8q43 0 70.5 -39t27.5 -104q0 -141 -102 -142q-55 0 -87 49.5t-32 139.5z" />
<glyph unicode="&#x2019;" horiz-adv-x="454" d="M121 874q113 135 135 285q-25 -8 -35 -8q-43 0 -70.5 39t-27.5 104q0 68 27.5 105t76.5 37q117 0 117 -189q0 -221 -164 -416z" />
<glyph unicode="&#x201a;" horiz-adv-x="454" d="M121 -301q113 137 135 285q-18 -6 -35 -7q-43 0 -70.5 38t-27.5 104q0 68 27.5 105.5t76.5 37.5q117 0 117 -190q0 -221 -164 -416z" />
<glyph unicode="&#x201c;" horiz-adv-x="749" d="M117 1020q0 219 166 416l59 -41q-115 -137 -137 -287q25 8 35 8q43 0 70.5 -39t27.5 -104q0 -141 -102 -142q-55 0 -87 49.5t-32 139.5zM412 1020q-1 221 163 416l60 -41q-113 -135 -135 -287q25 8 35 8q43 0 70.5 -39t27.5 -104q0 -68 -27.5 -105t-77.5 -37 q-117 0 -116 189z" />
<glyph unicode="&#x201d;" horiz-adv-x="749" d="M121 874q113 135 135 285q-25 -8 -35 -8q-43 0 -70.5 39t-27.5 104q0 68 27.5 105t76.5 37q117 0 117 -189q0 -221 -164 -416zM414 874q115 139 137 285q-25 -8 -35 -8q-43 0 -70.5 39t-27.5 104q0 141 102 142q55 0 87 -49.5t32 -139.5q0 -219 -166 -416z" />
<glyph unicode="&#x201e;" horiz-adv-x="749" d="M121 -301q113 137 135 285q-18 -6 -35 -7q-43 0 -70.5 38t-27.5 104q0 68 27.5 105.5t76.5 37.5q117 0 117 -190q0 -221 -164 -416zM414 -301q115 139 137 285q-18 -6 -35 -7q-43 0 -70.5 38t-27.5 104q0 68 27.5 105.5t74.5 37.5q55 0 87 -49t32 -141q0 -219 -166 -416z " />
<glyph unicode="&#x2022;" horiz-adv-x="1208" d="M307 762q0 123 87 209t210 86q121 0 208 -86t87 -209q0 -121 -87 -209t-210 -88t-209 87t-86 210z" />
<glyph unicode="&#x2026;" horiz-adv-x="2048" d="M238 119q0 59 31.5 101t72.5 42q43 0 73.5 -41t30.5 -102q0 -59 -31.5 -100.5t-72.5 -41.5q-39 0 -71.5 42.5t-32.5 99.5zM920 119q0 59 31.5 101t72.5 42q43 0 73.5 -41t30.5 -102q0 -59 -31.5 -100.5t-72.5 -41.5q-39 0 -71.5 42.5t-32.5 99.5zM1604 119q0 59 31.5 101 t72.5 42q43 0 73.5 -41t30.5 -102q0 -59 -31.5 -100.5t-72.5 -41.5q-39 0 -71.5 42.5t-32.5 99.5z" />
<glyph unicode="&#x202f;" horiz-adv-x="392" />
<glyph unicode="&#x2039;" horiz-adv-x="446" d="M70 485q86 100 149.5 206t88 153t40.5 47q27 0 27 -39q0 -76 -113 -367q113 -287 113 -364q0 -41 -29 -41q-14 0 -39.5 47t-88 152.5t-148.5 205.5z" />
<glyph unicode="&#x203a;" horiz-adv-x="446" d="M70 121q0 70 114 364q-115 291 -114 367q0 39 28 39q14 0 40 -47t89.5 -153t149.5 -206q-86 -100 -149.5 -205.5t-88 -152.5t-41.5 -47q-29 0 -28 41z" />
<glyph unicode="&#x205f;" horiz-adv-x="491" />
<glyph unicode="&#x2122;" horiz-adv-x="1683" d="M244 1260l12 178h440l11 -178h-25q-14 152 -137 151h-21v-426q0 -49 45 -53l31 -2v-27h-248v27l31 2q45 4 45 53v426h-20q-123 0 -138 -151h-26zM788 903v27l33 2q45 4 45 53v371q0 49 -47 53l-31 2v27h183l141 -400l148 400h174v-25l-29 -2q-47 -4 -47 -53v-373 q0 -49 47 -53l29 -2v-27h-236v27l31 2q45 4 45 53v395l-178 -479h-15l-174 479v-395q0 -49 47 -53l31 -2v-27h-197z" />
<glyph unicode="&#xe000;" horiz-adv-x="972" d="M0 0v973h973v-973h-973z" />
<glyph unicode="&#xfb01;" horiz-adv-x="1028" d="M14 887v86h166q-2 20 -2 57q0 199 97.5 303.5t281.5 104.5q121 0 194.5 -54.5t73.5 -136.5q0 -59 -27.5 -92t-76.5 -33q-43 0 -68.5 30t-25.5 81q0 70 57 102q-53 27 -121 27q-207 0 -207 -193v-196h226q176 0 305 10v-778q0 -82 25.5 -114t95.5 -32h24v-59h-448v59h8 q72 0 96.5 32t24.5 114v551q0 76 -27 103.5t-102 27.5h-228v-682q0 -82 27 -114t98 -32h25v-59h-451v59h8q70 0 93.5 31t23.5 115v682h-166z" />
<glyph unicode="&#xfb02;" horiz-adv-x="1028" d="M14 887v86h166q-2 23 -2 63q0 197 97.5 299.5t281.5 102.5q109 0 199 -60l133 37v-1210q0 -84 23.5 -115t93.5 -31h8v-59h-430v59h8q72 0 96.5 32t24.5 114v919q-70 16 -70 105q0 61 45 106q-68 29 -119 29q-111 0 -162 -51t-51 -162v-178h195v-86h-195v-682 q0 -82 27 -114t98 -32h25v-59h-451v59h8q70 0 93.5 31t23.5 115v682h-166z" />
</font>
</defs>
</svg>
